<svg width="20" height="17" viewBox="0 0 20 17" fill="none" xmlns="http://www.w3.org/2000/svg">
<path d="M9.28571 5.66667H10.7143V4.95833C10.7143 4.77047 10.7895 4.5903 10.9235 4.45747C11.0574 4.32463 11.2391 4.25 11.4286 4.25H13.5714C13.7609 4.25 13.9426 4.32463 14.0765 4.45747C14.2105 4.5903 14.2857 4.77047 14.2857 4.95833V5.66667H17.1429V2.83333C17.1429 2.08189 16.8418 1.36122 16.306 0.829864C15.7702 0.298511 15.0435 0 14.2857 0H5.71429C4.95652 0 4.2298 0.298511 3.69398 0.829864C3.15816 1.36122 2.85714 2.08189 2.85714 2.83333V5.66667H5.71429V4.95833C5.71429 4.77047 5.78954 4.5903 5.9235 4.45747C6.05745 4.32463 6.23913 4.25 6.42857 4.25H8.57143C8.76087 4.25 8.94255 4.32463 9.0765 4.45747C9.21046 4.5903 9.28571 4.77047 9.28571 4.95833V5.66667ZM3.57143 7.08333C2.62423 7.08333 1.71582 7.45647 1.04605 8.12066C0.376274 8.78485 0 9.68569 0 10.625V16.2917C0 16.4795 0.0752549 16.6597 0.209209 16.7925C0.343164 16.9254 0.524845 17 0.714286 17C0.903726 17 1.08541 16.9254 1.21936 16.7925C1.35332 16.6597 1.42857 16.4795 1.42857 16.2917V12.75H18.5714V16.2917C18.5714 16.4795 18.6467 16.6597 18.7806 16.7925C18.9146 16.9254 19.0963 17 19.2857 17C19.4752 17 19.6568 16.9254 19.7908 16.7925C19.9247 16.6597 20 16.4795 20 16.2917V10.625C20 9.68569 19.6237 8.78485 18.954 8.12066C18.2842 7.45647 17.3758 7.08333 16.4286 7.08333H3.57143Z" fill="#5D86EF"/>
</svg>
