<svg width="32" height="32" viewBox="0 0 32 32" fill="none" xmlns="http://www.w3.org/2000/svg">
<path d="M15.2857 12.6667H16.7143V11.9583C16.7143 11.7705 16.7895 11.5903 16.9235 11.4575C17.0574 11.3246 17.2391 11.25 17.4286 11.25H19.5714C19.7609 11.25 19.9426 11.3246 20.0765 11.4575C20.2105 11.5903 20.2857 11.7705 20.2857 11.9583V12.6667H23.1429V9.83333C23.1429 9.08189 22.8418 8.36122 22.306 7.82986C21.7702 7.29851 21.0435 7 20.2857 7H11.7143C10.9565 7 10.2298 7.29851 9.69398 7.82986C9.15816 8.36122 8.85714 9.08189 8.85714 9.83333V12.6667H11.7143V11.9583C11.7143 11.7705 11.7895 11.5903 11.9235 11.4575C12.0574 11.3246 12.2391 11.25 12.4286 11.25H14.5714C14.7609 11.25 14.9426 11.3246 15.0765 11.4575C15.2105 11.5903 15.2857 11.7705 15.2857 11.9583V12.6667ZM9.57143 14.0833C8.62423 14.0833 7.71582 14.4565 7.04605 15.1207C6.37627 15.7849 6 16.6857 6 17.625V23.2917C6 23.4795 6.07525 23.6597 6.20921 23.7925C6.34316 23.9254 6.52485 24 6.71429 24C6.90373 24 7.08541 23.9254 7.21936 23.7925C7.35332 23.6597 7.42857 23.4795 7.42857 23.2917V19.75H24.5714V23.2917C24.5714 23.4795 24.6467 23.6597 24.7806 23.7925C24.9146 23.9254 25.0963 24 25.2857 24C25.4752 24 25.6568 23.9254 25.7908 23.7925C25.9247 23.6597 26 23.4795 26 23.2917V17.625C26 16.6857 25.6237 15.7849 24.954 15.1207C24.2842 14.4565 23.3758 14.0833 22.4286 14.0833H9.57143Z" fill="#F8FBF8"/>
</svg>
