<svg width="18" height="17" viewBox="0 0 18 17" fill="none" xmlns="http://www.w3.org/2000/svg">
<path d="M1.35022 15.0648V16.1502C1.35022 16.3756 1.43977 16.5918 1.59918 16.7512C1.75858 16.9106 1.97477 17.0002 2.2002 17.0002H3.05018C3.27561 17.0002 3.49181 16.9106 3.65121 16.7512C3.81061 16.5918 3.90016 16.3756 3.90016 16.1502V15.3002H14.0999V16.1502C14.0999 16.3756 14.1895 16.5918 14.3489 16.7512C14.5083 16.9106 14.7245 17.0002 14.9499 17.0002H15.7999C16.0253 17.0002 16.2415 16.9106 16.4009 16.7512C16.5603 16.5918 16.6498 16.3756 16.6498 16.1502V15.0648C16.9077 14.9169 17.1221 14.7036 17.2713 14.4465C17.4205 14.1894 17.4993 13.8975 17.4998 13.6003V11.0503C17.4998 10.344 17.0689 9.73965 16.4561 9.48211L15.2933 5.9938C15.1246 5.48592 14.8002 5.04411 14.3661 4.73116C13.9319 4.4182 13.4102 4.25001 12.8751 4.25049H5.12498C4.58982 4.25001 4.06813 4.4182 3.63402 4.73116C3.19991 5.04411 2.87547 5.48592 2.70679 5.9938L1.54402 9.48211C1.23488 9.61158 0.970888 9.8295 0.785186 10.1085C0.599485 10.3875 0.500355 10.7152 0.500244 11.0503V13.6003C0.500244 14.2275 0.843636 14.7698 1.35022 15.0648ZM3.47517 13.6003C3.30768 13.6002 3.14185 13.5672 2.98713 13.503C2.83242 13.4389 2.69185 13.3449 2.57346 13.2264C2.33435 12.9871 2.20009 12.6627 2.2002 12.3244C2.20032 11.9862 2.33479 11.6618 2.57406 11.4227C2.81332 11.1836 3.13777 11.0494 3.47602 11.0495C3.81428 11.0496 4.13863 11.1841 4.37774 11.4233C4.61684 11.6626 4.7511 11.987 4.75099 12.3253C4.75088 12.6635 4.6164 12.9879 4.37714 13.227C4.13787 13.4661 3.81343 13.6004 3.47517 13.6003V13.6003ZM14.5249 13.6003C14.1866 13.6001 13.8623 13.4657 13.6232 13.2264C13.3841 12.9871 13.2498 12.6627 13.2499 12.3244C13.25 11.9862 13.3845 11.6618 13.6238 11.4227C13.8631 11.1836 14.1875 11.0494 14.5258 11.0495C14.864 11.0496 15.1884 11.1841 15.4275 11.4233C15.6666 11.6626 15.8008 11.987 15.8007 12.3253C15.8006 12.6635 15.6661 12.9879 15.4269 13.227C15.1876 13.4661 14.8632 13.6004 14.5249 13.6003V13.6003ZM5.12498 5.95045H12.8742C13.0527 5.9504 13.2267 6.00654 13.3714 6.11089C13.5162 6.21524 13.6245 6.36251 13.6809 6.53183L14.6209 9.35036H3.37912L4.31835 6.53183C4.4348 6.18419 4.75949 5.95045 5.12498 5.95045V5.95045Z" fill="#5D86EF"/>
<path d="M17.4998 4.58012V2.78751L9.26863 0.0437788C9.08672 -0.0171108 8.88952 -0.0144137 8.70934 0.0514285L0.500244 3.03656V4.84531L9.01279 1.74969L17.4998 4.58012Z" fill="#5D86EF"/>
</svg>
