<svg width="32" height="32" viewBox="0 0 32 32" fill="none" xmlns="http://www.w3.org/2000/svg">
<path d="M8.84998 22.0648V23.1502C8.84998 23.3756 8.93953 23.5918 9.09893 23.7512C9.25833 23.9106 9.47453 24.0002 9.69996 24.0002H10.5499C10.7754 24.0002 10.9916 23.9106 11.151 23.7512C11.3104 23.5918 11.3999 23.3756 11.3999 23.1502V22.3002H21.5997V23.1502C21.5997 23.3756 21.6892 23.5918 21.8486 23.7512C22.008 23.9106 22.2242 24.0002 22.4496 24.0002H23.2996C23.5251 24.0002 23.7413 23.9106 23.9007 23.7512C24.0601 23.5918 24.1496 23.3756 24.1496 23.1502V22.0648C24.4075 21.9169 24.6218 21.7036 24.771 21.4465C24.9203 21.1894 24.9991 20.8975 24.9996 20.6003V18.0503C24.9996 17.344 24.5686 16.7397 23.9558 16.4821L22.793 12.9938C22.6244 12.4859 22.2999 12.0441 21.8658 11.7312C21.4317 11.4182 20.91 11.25 20.3748 11.2505H12.6247C12.0896 11.25 11.5679 11.4182 11.1338 11.7312C10.6997 12.0441 10.3752 12.4859 10.2065 12.9938L9.04377 16.4821C8.73464 16.6116 8.47064 16.8295 8.28494 17.1085C8.09924 17.3875 8.00011 17.7152 8 18.0503V20.6003C8 21.2275 8.34339 21.7698 8.84998 22.0648ZM10.9749 20.6003C10.8074 20.6002 10.6416 20.5672 10.4869 20.503C10.3322 20.4389 10.1916 20.3449 10.0732 20.2264C9.83411 19.9871 9.69985 19.6627 9.69996 19.3244C9.70007 18.9862 9.83455 18.6618 10.0738 18.4227C10.3131 18.1836 10.6375 18.0494 10.9758 18.0495C11.314 18.0496 11.6384 18.1841 11.8775 18.4233C12.1166 18.6626 12.2509 18.987 12.2507 19.3253C12.2506 19.6635 12.1162 19.9879 11.8769 20.227C11.6376 20.4661 11.3132 20.6004 10.9749 20.6003V20.6003ZM22.0247 20.6003C21.6864 20.6001 21.362 20.4657 21.1229 20.2264C20.8838 19.9871 20.7496 19.6627 20.7497 19.3244C20.7498 18.9862 20.8843 18.6618 21.1235 18.4227C21.3628 18.1836 21.6873 18.0494 22.0255 18.0495C22.3638 18.0496 22.6881 18.1841 22.9272 18.4233C23.1663 18.6626 23.3006 18.987 23.3005 19.3253C23.3004 19.6635 23.1659 19.9879 22.9266 20.227C22.6874 20.4661 22.3629 20.6004 22.0247 20.6003V20.6003ZM12.6247 12.9504H20.374C20.5525 12.9504 20.7264 13.0065 20.8712 13.1109C21.016 13.2152 21.1242 13.3625 21.1806 13.5318L22.1207 16.3504H10.8789L11.8181 13.5318C11.9346 13.1842 12.2592 12.9504 12.6247 12.9504V12.9504Z" fill="#F8FBF8"/>
<path d="M24.9996 11.5801V9.78751L16.7684 7.04378C16.5865 6.98289 16.3893 6.98559 16.2091 7.05143L8 10.0366V11.8453L16.5125 8.74969L24.9996 11.5801Z" fill="#F8FBF8"/>
</svg>
