<svg width="31" height="31" viewBox="0 0 31 31" fill="none" xmlns="http://www.w3.org/2000/svg">
<path d="M18.0309 15.4147L30.5859 2.85968C30.868 2.53021 31.0155 2.10641 30.9987 1.67297C30.982 1.23953 30.8023 0.828369 30.4956 0.52165C30.1889 0.214932 29.7777 0.0352474 29.3443 0.0185054C28.9108 0.00176339 28.487 0.149197 28.1575 0.431342L15.6025 12.9863L3.04755 0.41412C2.71808 0.131974 2.29429 -0.0154576 1.86084 0.00128441C1.4274 0.0180264 1.01624 0.197709 0.709523 0.504428C0.402804 0.811146 0.22312 1.22231 0.206378 1.65575C0.189636 2.08919 0.33707 2.51299 0.619215 2.84245L13.1742 15.4147L0.601992 27.9697C0.421707 28.1241 0.275283 28.3141 0.17191 28.5277C0.0685363 28.7414 0.0104447 28.9741 0.00128336 29.2113C-0.00787799 29.4485 0.0320878 29.685 0.118672 29.906C0.205256 30.127 0.336589 30.3277 0.504428 30.4956C0.672267 30.6634 0.872987 30.7947 1.09399 30.8813C1.315 30.9679 1.55151 31.0079 1.7887 30.9987C2.02588 30.9896 2.25861 30.9315 2.47227 30.8281C2.68594 30.7247 2.87593 30.5783 3.03033 30.398L15.6025 17.843L28.1575 30.398C28.487 30.6802 28.9108 30.8276 29.3443 30.8108C29.7777 30.7941 30.1889 30.6144 30.4956 30.3077C30.8023 30.001 30.982 29.5898 30.9987 29.1564C31.0155 28.7229 30.868 28.2991 30.5859 27.9697L18.0309 15.4147Z" fill="#F8FBF8"/>
</svg>
