<svg width="63" height="63" viewBox="0 0 63 63" fill="none" xmlns="http://www.w3.org/2000/svg">
<path d="M42.7114 50.3036C42.7114 50.8861 42.48 51.4448 42.068 51.8567C41.6561 52.2686 41.0974 52.5 40.5149 52.5H21.698C21.1154 52.5 20.5565 52.2686 20.1443 51.8568C19.7322 51.4449 19.5004 50.8862 19.5 50.3036V14.1964C19.5004 13.6138 19.7322 13.0551 20.1443 12.6432C20.5565 12.2314 21.1154 12 21.698 12H40.5149C41.0974 12 41.6561 12.2314 42.068 12.6433C42.48 13.0552 42.7114 13.6139 42.7114 14.1964V50.3036Z" stroke="#F8FBF8" stroke-miterlimit="10"/>
<path d="M42.7114 16.1658H19.5V48.3356H42.7114V16.1658Z" stroke="#F8FBF8" stroke-miterlimit="10"/>
<path d="M27.0975 14.1645H32.6878" stroke="#F8FBF8" stroke-miterlimit="10"/>
<path d="M33.4266 14.1645H35.1131" stroke="#F8FBF8" stroke-miterlimit="10"/>
<path d="M22.3911 36.9522V45.9122H31.105" stroke="#F8FBF8" stroke-miterlimit="10"/>
<path d="M36.7773 32.9542L37.9443 32.8663L37.7732 30.6139L36.6207 30.7018C36.45 30.0791 36.1749 29.4899 35.807 28.9594L36.5983 28.1313L34.9645 26.5711L34.178 27.3944C33.5843 27.0145 32.9252 26.7484 32.2342 26.6095V25.4793H29.977V26.6095C29.1073 26.784 28.2905 27.1595 27.5919 27.7061L26.7302 26.9595L25.25 28.6652L26.118 29.4182C25.7493 30.0748 25.514 30.7979 25.4258 31.5459L24.2684 31.6338L24.4379 33.8862L25.608 33.7967C25.7852 34.4107 26.0635 34.9909 26.4313 35.5135L25.6144 36.3704L27.2482 37.929L28.0715 37.0658C28.6553 37.4325 29.301 37.6898 29.977 37.8251V39.0224H32.2342V37.8251C33.0874 37.6538 33.8901 37.2897 34.5809 36.7604L35.4809 37.5406L36.9612 35.8349L36.0692 35.0612C36.4408 34.4119 36.6813 33.6961 36.7773 32.9542V32.9542ZM31.1056 34.0429C30.7502 34.0429 30.4028 33.9375 30.1073 33.74C29.8118 33.5426 29.5815 33.262 29.4455 32.9337C29.3095 32.6053 29.2739 32.2441 29.3433 31.8955C29.4126 31.547 29.5837 31.2268 29.835 30.9755C30.0863 30.7242 30.4065 30.5531 30.755 30.4838C31.1036 30.4144 31.4648 30.45 31.7932 30.586C32.1215 30.722 32.4021 30.9523 32.5995 31.2478C32.797 31.5433 32.9024 31.8907 32.9024 32.2461C32.9024 32.7226 32.7131 33.1796 32.3761 33.5166C32.0391 33.8536 31.5821 34.0429 31.1056 34.0429V34.0429Z" fill="#263969" stroke="#F8FBF8" stroke-miterlimit="10"/>
<path d="M32.902 32.2507C32.902 32.6061 32.7966 32.9535 32.5991 33.2489C32.4017 33.5444 32.1211 33.7747 31.7928 33.9107C31.4644 34.0467 31.1032 34.0823 30.7546 34.013C30.4061 33.9436 30.0859 33.7725 29.8346 33.5212C29.5833 33.2699 29.4122 32.9498 29.3429 32.6012C29.2735 32.2527 29.3091 31.8914 29.4451 31.5631C29.5811 31.2348 29.8114 30.9541 30.1069 30.7567C30.4024 30.5593 30.7498 30.4539 31.1052 30.4539C31.5817 30.4539 32.0387 30.6432 32.3757 30.9802C32.7127 31.3171 32.902 31.7741 32.902 32.2507V32.2507Z" stroke="#F8FBF8" stroke-miterlimit="10"/>
</svg>
