<svg width="25" height="22" viewBox="0 0 25 22" fill="none" xmlns="http://www.w3.org/2000/svg">
<path fill-rule="evenodd" clip-rule="evenodd" d="M25 11C25 11.4167 24.8354 11.8163 24.5424 12.111C24.2494 12.4056 23.852 12.5711 23.4377 12.5711H5.33657L12.0452 19.3145C12.1905 19.4606 12.3057 19.634 12.3843 19.8249C12.4629 20.0157 12.5034 20.2203 12.5034 20.4269C12.5034 20.6335 12.4629 20.838 12.3843 21.0289C12.3057 21.2197 12.1905 21.3932 12.0452 21.5392C11.8999 21.6853 11.7275 21.8012 11.5377 21.8803C11.3479 21.9593 11.1445 22 10.9391 22C10.7336 22 10.5302 21.9593 10.3404 21.8803C10.1506 21.8012 9.9782 21.6853 9.83294 21.5392L0.458992 12.1124C0.313498 11.9664 0.198064 11.793 0.119303 11.6022C0.0405412 11.4113 0 11.2067 0 11C0 10.7933 0.0405412 10.5887 0.119303 10.3978C0.198064 10.207 0.313498 10.0336 0.458992 9.88763L9.83294 0.460759C10.1263 0.16574 10.5242 0 10.9391 0C11.3539 0 11.7518 0.16574 12.0452 0.460759C12.3386 0.755778 12.5034 1.15591 12.5034 1.57313C12.5034 1.99035 12.3386 2.39048 12.0452 2.6855L5.33657 9.42886H23.4377C23.852 9.42886 24.2494 9.59439 24.5424 9.88903C24.8354 10.1837 25 10.5833 25 11Z" fill="#F8FBF8"/>
</svg>
