<svg width="1440" height="550" viewBox="0 0 1440 550" fill="none" xmlns="http://www.w3.org/2000/svg">
<path d="M1133.87 439.403L1133.87 464.601C1133.87 469.966 1136.89 474.963 1141.89 477.652L1157.41 486.075C1157.76 486.302 1158.2 486.302 1158.54 486.075L1189.85 469.23C1190.63 468.777 1190.63 467.814 1189.85 467.361L1135.6 438.511C1134.81 438.058 1133.87 438.582 1133.87 439.403Z" fill="#F3F3F3"/>
<path d="M1195.94 354.951L1195.94 380.8C1195.94 386.18 1192.93 391.106 1187.92 393.796L1135.6 421.966C1134.82 422.419 1133.87 421.895 1133.87 421.074L1133.87 396.202C1133.87 390.143 1137.49 384.467 1143.44 381.253L1194.22 354.06C1195 353.607 1195.94 354.13 1195.94 354.951Z" fill="#EDEDED"/>
<path d="M1195.94 453.421L1195.94 428.223C1195.94 422.858 1192.93 417.861 1187.92 415.172L1172.4 406.749C1172.06 406.522 1171.62 406.522 1171.27 406.749L1139.97 423.594C1139.18 424.047 1139.18 425.01 1139.97 425.463L1194.22 454.313C1195 454.766 1195.94 454.242 1195.94 453.421Z" fill="#F3F3F3"/>
<path d="M1128.36 421.249L1128.36 396.051C1128.36 390.686 1125.35 385.689 1120.34 383L1104.82 374.577C1104.48 374.35 1104.03 374.35 1103.69 374.577L1072.39 391.422C1071.6 391.875 1071.6 392.838 1072.39 393.291L1126.63 422.141C1127.42 422.594 1128.36 422.07 1128.36 421.249Z" fill="#F3F3F3"/>
<path d="M995.838 395.167L995.838 421.015C995.838 426.395 992.822 431.321 987.816 434.011L935.492 462.181C934.71 462.634 933.764 462.11 933.764 461.289L933.764 436.417C933.764 430.358 937.384 424.682 943.335 421.468L994.11 394.275C994.892 393.822 995.838 394.345 995.838 395.167Z" fill="#EDEDED"/>
<path d="M995.838 493.636L995.838 468.438C995.838 463.073 992.822 458.076 987.816 455.387L972.293 446.964C971.951 446.737 971.511 446.737 971.168 446.964L939.862 463.809C939.08 464.262 939.08 465.225 939.862 465.678L994.11 494.528C994.892 494.981 995.838 494.457 995.838 493.636Z" fill="#F3F3F3"/>
<path d="M1002.32 495.244L1002.32 469.396C1002.32 464.016 1005.33 459.09 1010.34 456.4L1062.66 428.23C1063.45 427.777 1064.39 428.301 1064.39 429.122L1064.39 453.994C1064.39 460.053 1060.77 465.729 1054.82 468.943L1004.05 496.136C1003.26 496.589 1002.32 496.066 1002.32 495.244Z" fill="#EDEDED"/>
<path d="M870.768 439.403L870.768 464.601C870.768 469.966 873.784 474.963 878.79 477.652L894.312 486.075C894.655 486.302 895.095 486.302 895.437 486.075L926.743 469.23C927.526 468.777 927.526 467.814 926.743 467.361L872.496 438.511C871.713 438.058 870.768 438.582 870.768 439.403Z" fill="#F3F3F3"/>
<path d="M867.067 371.038L867.067 396.886C867.067 402.266 864.05 407.192 859.044 409.882L806.721 438.052C805.938 438.505 804.993 437.981 804.993 437.16L804.993 412.288C804.993 406.229 808.612 400.553 814.564 397.339L865.338 370.146C866.121 369.693 867.067 370.216 867.067 371.038Z" fill="#EDEDED"/>
<path d="M867.067 469.507L867.067 444.309C867.067 438.944 864.05 433.947 859.044 431.258L843.522 422.835C843.179 422.608 842.739 422.608 842.397 422.835L811.091 439.68C810.308 440.133 810.308 441.096 811.091 441.549L865.338 470.399C866.121 470.852 867.067 470.328 867.067 469.507Z" fill="#F3F3F3"/>
<path d="M1390.49 327.605L1390.49 353.454C1390.49 358.833 1387.47 363.76 1382.47 366.449L1330.14 394.62C1329.36 395.073 1328.42 394.549 1328.42 393.728L1328.42 368.856C1328.42 362.797 1332.04 357.12 1337.99 353.907L1388.76 326.713C1389.54 326.26 1390.49 326.784 1390.49 327.605Z" fill="#EDEDED"/>
<path d="M1390.49 426.075L1390.49 400.877C1390.49 395.512 1387.47 390.515 1382.47 387.825L1366.95 379.402C1366.6 379.176 1366.16 379.176 1365.82 379.402L1334.51 396.248C1333.73 396.701 1333.73 397.664 1334.51 398.117L1388.76 426.967C1389.54 427.42 1390.49 426.896 1390.49 426.075Z" fill="#F3F3F3"/>
<path d="M1396.97 427.683L1396.97 401.834C1396.97 396.455 1399.99 391.529 1404.99 388.839L1457.32 360.669C1458.1 360.216 1459.04 360.739 1459.04 361.561L1459.04 386.433C1459.04 392.491 1455.43 398.168 1449.47 401.381L1398.7 428.575C1397.92 429.028 1396.97 428.504 1396.97 427.683Z" fill="#EDEDED"/>
<path d="M1265.42 470.311L1265.42 444.462C1265.42 439.083 1268.44 434.157 1273.44 431.467L1325.77 403.297C1326.55 402.844 1327.49 403.367 1327.49 404.188L1327.49 429.061C1327.49 435.119 1323.87 440.796 1317.92 444.009L1267.15 471.203C1266.37 471.656 1265.42 471.132 1265.42 470.311Z" fill="#EDEDED"/>
<path d="M1265.42 371.842L1265.42 397.039C1265.42 402.404 1268.44 407.401 1273.44 410.091L1288.96 418.514C1289.31 418.74 1289.75 418.74 1290.09 418.514L1321.4 401.668C1322.18 401.215 1322.18 400.253 1321.4 399.8L1267.15 370.95C1266.37 370.497 1265.42 371.021 1265.42 371.842Z" fill="#F3F3F3"/>
<path d="M1331.2 502.483L1331.2 476.634C1331.2 471.255 1334.21 466.329 1339.22 463.639L1391.54 435.469C1392.32 435.016 1393.27 435.54 1393.27 436.361L1393.27 461.233C1393.27 467.291 1389.65 472.968 1383.7 476.181L1332.92 503.375C1332.14 503.828 1331.2 503.304 1331.2 502.483Z" fill="#EDEDED"/>
<path d="M1331.2 404.014L1331.2 429.211C1331.2 434.576 1334.21 439.573 1339.22 442.263L1354.74 450.686C1355.08 450.912 1355.52 450.912 1355.87 450.686L1387.17 433.84C1387.95 433.387 1387.95 432.425 1387.17 431.972L1332.92 403.122C1332.14 402.669 1331.2 403.193 1331.2 404.014Z" fill="#F3F3F3"/>
<path d="M1396.97 438.599L1396.97 463.796C1396.97 469.161 1399.99 474.158 1404.99 476.848L1420.52 485.271C1420.86 485.497 1421.3 485.497 1421.64 485.271L1452.95 468.425C1453.73 467.972 1453.73 467.01 1452.95 466.557L1398.7 437.707C1397.92 437.254 1396.97 437.778 1396.97 438.599Z" fill="#F3F3F3"/>
<path d="M1261.72 303.476L1261.72 329.325C1261.72 334.704 1258.7 339.631 1253.7 342.32L1201.37 370.491C1200.59 370.944 1199.64 370.42 1199.64 369.599L1199.64 344.727C1199.64 338.668 1203.26 332.992 1209.22 329.778L1259.99 302.584C1260.77 302.131 1261.72 302.655 1261.72 303.476Z" fill="#EDEDED"/>
<path d="M1261.72 401.946L1261.72 376.748C1261.72 371.383 1258.7 366.386 1253.7 363.696L1238.17 355.273C1237.83 355.047 1237.39 355.047 1237.05 355.273L1205.74 372.119C1204.96 372.572 1204.96 373.535 1205.74 373.988L1259.99 402.838C1260.77 403.291 1261.72 402.767 1261.72 401.946Z" fill="#F3F3F3"/>
<path d="M1068.09 386.682L1068.09 360.833C1068.09 355.454 1071.11 350.527 1076.12 347.838L1128.44 319.667C1129.22 319.214 1130.17 319.738 1130.17 320.559L1130.17 345.431C1130.17 351.49 1126.55 357.167 1120.6 360.38L1069.82 387.574C1069.04 388.027 1068.09 387.503 1068.09 386.682Z" fill="#EDEDED"/>
<path d="M1068.09 288.212L1068.09 313.41C1068.09 318.775 1071.11 323.772 1076.12 326.462L1091.64 334.885C1091.98 335.111 1092.42 335.111 1092.76 334.885L1124.07 318.039C1124.85 317.586 1124.85 316.623 1124.07 316.17L1069.82 287.321C1069.04 286.868 1068.09 287.391 1068.09 288.212Z" fill="#F3F3F3"/>
<path d="M867.067 252.001L867.067 277.85C867.067 283.229 864.05 288.155 859.044 290.845L806.721 319.015C805.938 319.468 804.993 318.945 804.993 318.124L804.993 293.251C804.993 287.193 808.612 281.516 814.564 278.303L865.338 251.109C866.121 250.656 867.067 251.18 867.067 252.001Z" fill="#EDEDED"/>
<path d="M867.067 350.47L867.067 325.273C867.067 319.908 864.05 314.911 859.044 312.221L843.522 303.798C843.179 303.572 842.739 303.572 842.397 303.798L811.091 320.644C810.308 321.097 810.308 322.059 811.091 322.512L865.338 351.362C866.121 351.815 867.067 351.292 867.067 350.47Z" fill="#F3F3F3"/>
<path d="M1068.09 251.541L1068.09 225.692C1068.09 220.313 1071.11 215.387 1076.12 212.697L1128.44 184.527C1129.22 184.074 1130.17 184.598 1130.17 185.419L1130.17 210.291C1130.17 216.349 1126.55 222.026 1120.6 225.239L1069.82 252.433C1069.04 252.886 1068.09 252.362 1068.09 251.541Z" fill="#EDEDED"/>
<path d="M1068.09 153.072L1068.09 178.269C1068.09 183.634 1071.11 188.632 1076.12 191.321L1091.64 199.744C1091.98 199.971 1092.42 199.971 1092.76 199.744L1124.07 182.898C1124.85 182.445 1124.85 181.483 1124.07 181.03L1069.82 152.18C1069.04 151.727 1068.09 152.251 1068.09 153.072Z" fill="#F3F3F3"/>
<path d="M1130.17 68.6202L1130.17 94.4691C1130.17 99.8483 1127.15 104.775 1122.15 107.464L1069.82 135.635C1069.04 136.088 1068.09 135.564 1068.09 134.743L1068.09 109.871C1068.09 103.812 1071.71 98.1355 1077.67 94.9221L1128.44 67.7284C1129.22 67.2754 1130.17 67.7992 1130.17 68.6202Z" fill="#EDEDED"/>
<path d="M1130.17 167.09L1130.17 141.892C1130.17 136.527 1127.15 131.53 1122.15 128.84L1106.62 120.417C1106.28 120.191 1105.84 120.191 1105.5 120.417L1074.19 137.263C1073.41 137.716 1073.41 138.679 1074.19 139.132L1128.44 167.982C1129.22 168.435 1130.17 167.911 1130.17 167.09Z" fill="#F3F3F3"/>
<path d="M735.563 354.492L735.563 329.294C735.563 323.929 732.546 318.932 727.541 316.242L712.018 307.82C711.676 307.593 711.235 307.593 710.893 307.82L679.587 324.665C678.804 325.118 678.804 326.081 679.587 326.534L733.834 355.384C734.617 355.837 735.563 355.313 735.563 354.492Z" fill="#F3F3F3"/>
<path d="M1062.59 134.918L1062.59 109.72C1062.59 104.355 1059.57 99.3579 1054.56 96.6683L1039.04 88.2454C1038.7 88.0189 1038.26 88.0189 1037.92 88.2454L1006.61 105.091C1005.83 105.544 1005.83 106.507 1006.61 106.96L1060.86 135.81C1061.64 136.263 1062.59 135.739 1062.59 134.918Z" fill="#F3F3F3"/>
<path d="M930.063 108.835L930.063 134.684C930.063 140.063 927.046 144.99 922.041 147.679L869.717 175.85C868.934 176.303 867.989 175.779 867.989 174.958L867.989 150.086C867.989 144.027 871.608 138.351 877.56 135.137L928.334 107.944C929.117 107.491 930.063 108.014 930.063 108.835Z" fill="#EDEDED"/>
<path d="M930.063 207.305L930.063 182.107C930.063 176.742 927.046 171.745 922.041 169.055L906.518 160.633C906.176 160.406 905.735 160.406 905.393 160.633L874.087 177.478C873.304 177.931 873.304 178.894 874.087 179.347L928.334 208.197C929.117 208.65 930.063 208.126 930.063 207.305Z" fill="#F3F3F3"/>
<path d="M936.543 208.913L936.543 183.064C936.543 177.685 939.56 172.759 944.565 170.069L996.889 141.899C997.671 141.446 998.617 141.97 998.617 142.791L998.617 167.663C998.617 173.721 994.997 179.398 989.046 182.611L938.271 209.805C937.489 210.258 936.543 209.734 936.543 208.913Z" fill="#EDEDED"/>
<path d="M739.217 353.687L739.217 327.839C739.217 322.459 742.233 317.533 747.239 314.843L799.563 286.673C800.345 286.22 801.291 286.744 801.291 287.565L801.291 312.437C801.291 318.496 797.671 324.172 791.72 327.386L740.945 354.579C740.163 355.032 739.217 354.508 739.217 353.687Z" fill="#EDEDED"/>
<path d="M804.992 251.541L804.992 225.692C804.992 220.313 808.009 215.387 813.014 212.697L865.338 184.527C866.121 184.074 867.066 184.598 867.066 185.419L867.066 210.291C867.066 216.349 863.447 222.026 857.495 225.239L806.721 252.433C805.938 252.886 804.992 252.362 804.992 251.541Z" fill="#EDEDED"/>
<path d="M804.992 153.072L804.992 178.269C804.992 183.634 808.009 188.632 813.014 191.321L828.537 199.744C828.879 199.971 829.32 199.971 829.662 199.744L860.968 182.898C861.751 182.445 861.751 181.483 860.968 181.03L806.721 152.18C805.938 151.727 804.992 152.251 804.992 153.072Z" fill="#F3F3F3"/>
<path d="M1002.32 418.836L1002.32 392.987C1002.32 387.608 1005.33 382.681 1010.34 379.992L1062.66 351.821C1063.45 351.368 1064.39 351.892 1064.39 352.713L1064.39 377.585C1064.39 383.644 1060.77 389.321 1054.82 392.534L1004.05 419.728C1003.26 420.181 1002.32 419.657 1002.32 418.836Z" fill="#EDEDED"/>
<path d="M1002.32 320.366L1002.32 345.564C1002.32 350.929 1005.33 355.926 1010.34 358.616L1025.86 367.039C1026.21 367.265 1026.65 367.265 1026.99 367.039L1058.29 350.193C1059.08 349.74 1059.08 348.777 1058.29 348.324L1004.05 319.474C1003.26 319.021 1002.32 319.545 1002.32 320.366Z" fill="#F3F3F3"/>
<path d="M870.768 283.713L870.768 257.864C870.768 252.485 873.784 247.559 878.79 244.869L931.113 216.699C931.896 216.246 932.842 216.77 932.842 217.591L932.842 242.463C932.842 248.521 929.222 254.198 923.271 257.411L872.496 284.605C871.713 285.058 870.768 284.534 870.768 283.713Z" fill="#EDEDED"/>
<path d="M870.768 185.244L870.768 210.441C870.768 215.807 873.784 220.804 878.79 223.493L894.312 231.916C894.655 232.143 895.095 232.143 895.437 231.916L926.743 215.07C927.526 214.617 927.526 213.655 926.743 213.202L872.496 184.352C871.713 183.899 870.768 184.423 870.768 185.244Z" fill="#F3F3F3"/>
<path d="M936.543 318.298L936.543 292.449C936.543 287.07 939.56 282.144 944.565 279.454L996.889 251.284C997.671 250.831 998.617 251.355 998.617 252.176L998.617 277.048C998.617 283.106 994.997 288.783 989.046 291.996L938.271 319.19C937.489 319.643 936.543 319.119 936.543 318.298Z" fill="#EDEDED"/>
<path d="M936.543 219.829L936.543 245.026C936.543 250.391 939.56 255.389 944.565 258.078L960.088 266.501C960.43 266.727 960.87 266.727 961.213 266.501L992.519 249.655C993.302 249.202 993.302 248.24 992.519 247.787L938.271 218.937C937.489 218.484 936.543 219.008 936.543 219.829Z" fill="#F3F3F3"/>
<path d="M1064.39 219.829L1064.39 245.678C1064.39 251.057 1061.38 255.983 1056.37 258.673L1004.05 286.843C1003.26 287.296 1002.32 286.773 1002.32 285.951L1002.32 261.079C1002.32 255.021 1005.94 249.344 1011.89 246.131L1062.66 218.937C1063.45 218.484 1064.39 219.008 1064.39 219.829Z" fill="#F3F3F3"/>
<path d="M1064.39 318.298L1064.39 293.101C1064.39 287.736 1061.38 282.739 1056.37 280.049L1040.85 271.626C1040.51 271.4 1040.07 271.4 1039.72 271.626L1008.42 288.472C1007.63 288.925 1007.63 289.887 1008.42 290.34L1062.66 319.19C1063.45 319.643 1064.39 319.119 1064.39 318.298Z" fill="#F3F3F3"/>
<path d="M932.842 288.194L932.842 314.043C932.842 319.423 929.826 324.349 924.82 327.038L872.496 355.209C871.714 355.662 870.768 355.138 870.768 354.317L870.768 329.445C870.768 323.386 874.388 317.71 880.339 314.496L931.114 287.303C931.896 286.85 932.842 287.373 932.842 288.194Z" fill="#F3F3F3"/>
<path d="M932.842 386.664L932.842 361.466C932.842 356.101 929.826 351.104 924.82 348.414L909.297 339.992C908.955 339.765 908.515 339.765 908.172 339.992L876.866 356.837C876.084 357.29 876.084 358.253 876.866 358.706L931.114 387.556C931.896 388.009 932.842 387.485 932.842 386.664Z" fill="#F3F3F3"/>
<path d="M801.291 84.7063L801.291 110.555C801.291 115.934 798.275 120.861 793.269 123.55L740.946 151.721C740.163 152.174 739.217 151.65 739.217 150.829L739.217 125.957C739.217 119.898 742.837 114.222 748.788 111.008L799.563 83.8145C800.345 83.3615 801.291 83.8853 801.291 84.7063Z" fill="#EDEDED"/>
<path d="M801.291 183.176L801.291 157.978C801.291 152.613 798.275 147.616 793.269 144.926L777.746 136.504C777.404 136.277 776.964 136.277 776.621 136.504L745.315 153.349C744.533 153.802 744.533 154.765 745.315 155.218L799.563 184.068C800.345 184.521 801.291 183.997 801.291 183.176Z" fill="#F3F3F3"/>
<path d="M1260.79 184.44L1260.79 210.289C1260.79 215.668 1257.78 220.594 1252.77 223.284L1200.45 251.454C1199.66 251.907 1198.72 251.383 1198.72 250.562L1198.72 225.69C1198.72 219.632 1202.34 213.955 1208.29 210.742L1259.06 183.548C1259.85 183.095 1260.79 183.619 1260.79 184.44Z" fill="#EDEDED"/>
<path d="M1260.79 282.909L1260.79 257.712C1260.79 252.346 1257.78 247.349 1252.77 244.66L1237.25 236.237C1236.9 236.01 1236.46 236.01 1236.12 236.237L1204.82 253.083C1204.03 253.536 1204.03 254.498 1204.82 254.951L1259.06 283.801C1259.85 284.254 1260.79 283.73 1260.79 282.909Z" fill="#F3F3F3"/>
<path d="M1129.29 286.931L1129.29 261.733C1129.29 256.368 1126.27 251.371 1121.27 248.681L1105.74 240.258C1105.4 240.032 1104.96 240.032 1104.62 240.258L1073.31 257.104C1072.53 257.557 1072.53 258.52 1073.31 258.973L1127.56 287.823C1128.34 288.276 1129.29 287.752 1129.29 286.931Z" fill="#F3F3F3"/>
<path d="M1456.31 67.3566L1456.31 42.1589C1456.31 36.7938 1453.3 31.7967 1448.29 29.1071L1432.77 20.6843C1432.43 20.4578 1431.98 20.4578 1431.64 20.6843L1400.34 37.5299C1399.55 37.9829 1399.55 38.9455 1400.34 39.3985L1454.58 68.2484C1455.37 68.7014 1456.31 68.1776 1456.31 67.3566Z" fill="#F3F3F3"/>
<path d="M1323.79 41.2741L1323.79 67.123C1323.79 72.5023 1320.77 77.4285 1315.77 80.1182L1263.44 108.289C1262.66 108.742 1261.71 108.218 1261.71 107.397L1261.71 82.5247C1261.71 76.4659 1265.33 70.7894 1271.29 67.576L1322.06 40.3823C1322.84 39.9293 1323.79 40.4531 1323.79 41.2741Z" fill="#EDEDED"/>
<path d="M1323.79 139.744L1323.79 114.546C1323.79 109.181 1320.77 104.184 1315.77 101.494L1300.24 93.0714C1299.9 92.8449 1299.46 92.8449 1299.12 93.0714L1267.81 109.917C1267.03 110.37 1267.03 111.333 1267.81 111.786L1322.06 140.635C1322.84 141.088 1323.79 140.565 1323.79 139.744Z" fill="#F3F3F3"/>
<path d="M1330.27 141.352L1330.27 115.503C1330.27 110.124 1333.29 105.198 1338.29 102.508L1390.61 74.3376C1391.4 73.8846 1392.34 74.4084 1392.34 75.2295L1392.34 100.102C1392.34 106.16 1388.72 111.837 1382.77 115.05L1332 142.244C1331.21 142.697 1330.27 142.173 1330.27 141.352Z" fill="#EDEDED"/>
<path d="M1132.94 286.126L1132.94 260.277C1132.94 254.898 1135.96 249.972 1140.96 247.282L1193.29 219.112C1194.07 218.659 1195.02 219.183 1195.02 220.004L1195.02 244.876C1195.02 250.934 1191.4 256.611 1185.45 259.824L1134.67 287.018C1133.89 287.471 1132.94 286.947 1132.94 286.126Z" fill="#EDEDED"/>
<path d="M1198.72 183.98L1198.72 158.131C1198.72 152.752 1201.73 147.826 1206.74 145.136L1259.06 116.966C1259.85 116.513 1260.79 117.036 1260.79 117.857L1260.79 142.729C1260.79 148.788 1257.17 154.465 1251.22 157.678L1200.45 184.872C1199.66 185.325 1198.72 184.801 1198.72 183.98Z" fill="#EDEDED"/>
<path d="M1198.72 85.5106L1198.72 110.708C1198.72 116.073 1201.73 121.07 1206.74 123.76L1222.26 132.183C1222.6 132.409 1223.05 132.409 1223.39 132.183L1254.69 115.337C1255.48 114.884 1255.48 113.922 1254.69 113.469L1200.45 84.6187C1199.66 84.1657 1198.72 84.6895 1198.72 85.5106Z" fill="#F3F3F3"/>
<path d="M1396.04 351.275L1396.04 325.426C1396.04 320.047 1399.06 315.12 1404.07 312.431L1456.39 284.26C1457.17 283.807 1458.12 284.331 1458.12 285.152L1458.12 310.024C1458.12 316.083 1454.5 321.759 1448.55 324.973L1397.77 352.166C1396.99 352.619 1396.04 352.096 1396.04 351.275Z" fill="#EDEDED"/>
<path d="M1396.04 252.805L1396.04 278.003C1396.04 283.368 1399.06 288.365 1404.07 291.055L1419.59 299.477C1419.93 299.704 1420.37 299.704 1420.71 299.477L1452.02 282.632C1452.8 282.179 1452.8 281.216 1452.02 280.763L1397.77 251.913C1396.99 251.46 1396.04 251.984 1396.04 252.805Z" fill="#F3F3F3"/>
<path d="M1264.49 216.152L1264.49 190.303C1264.49 184.924 1267.51 179.998 1272.52 177.308L1324.84 149.138C1325.62 148.685 1326.57 149.208 1326.57 150.029L1326.57 174.901C1326.57 180.96 1322.95 186.637 1317 189.85L1266.22 217.044C1265.44 217.497 1264.49 216.973 1264.49 216.152Z" fill="#EDEDED"/>
<path d="M1264.49 117.683L1264.49 142.88C1264.49 148.245 1267.51 153.242 1272.52 155.932L1288.04 164.355C1288.38 164.581 1288.82 164.581 1289.16 164.355L1320.47 147.509C1321.25 147.056 1321.25 146.094 1320.47 145.641L1266.22 116.791C1265.44 116.338 1264.49 116.862 1264.49 117.683Z" fill="#F3F3F3"/>
<path d="M1330.27 250.737L1330.27 224.888C1330.27 219.509 1333.28 214.583 1338.29 211.893L1390.61 183.723C1391.4 183.27 1392.34 183.793 1392.34 184.614L1392.34 209.486C1392.34 215.545 1388.72 221.222 1382.77 224.435L1332 251.629C1331.21 252.082 1330.27 251.558 1330.27 250.737Z" fill="#EDEDED"/>
<path d="M1330.27 152.267L1330.27 177.465C1330.27 182.83 1333.29 187.827 1338.29 190.517L1353.81 198.94C1354.16 199.166 1354.6 199.166 1354.94 198.94L1386.24 182.094C1387.03 181.641 1387.03 180.679 1386.24 180.226L1332 151.376C1331.21 150.923 1330.27 151.446 1330.27 152.267Z" fill="#F3F3F3"/>
<path d="M1458.12 152.268L1458.12 178.117C1458.12 183.496 1455.1 188.422 1450.1 191.112L1397.77 219.282C1396.99 219.735 1396.04 219.211 1396.04 218.39L1396.04 193.518C1396.04 187.459 1399.66 181.783 1405.62 178.57L1456.39 151.376C1457.17 150.923 1458.12 151.447 1458.12 152.268Z" fill="#F3F3F3"/>
<path d="M1458.12 250.737L1458.12 225.54C1458.12 220.174 1455.1 215.177 1450.1 212.488L1434.57 204.065C1434.23 203.838 1433.79 203.838 1433.45 204.065L1402.14 220.911C1401.36 221.364 1401.36 222.326 1402.14 222.779L1456.39 251.629C1457.17 252.082 1458.12 251.558 1458.12 250.737Z" fill="#F3F3F3"/>
<path d="M1326.57 220.633L1326.57 246.482C1326.57 251.861 1323.55 256.788 1318.55 259.477L1266.22 287.648C1265.44 288.101 1264.49 287.577 1264.49 286.756L1264.49 261.884C1264.49 255.825 1268.11 250.149 1274.06 246.935L1324.84 219.741C1325.62 219.288 1326.57 219.812 1326.57 220.633Z" fill="#F3F3F3"/>
<path d="M1326.57 319.103L1326.57 293.905C1326.57 288.54 1323.55 283.543 1318.55 280.853L1303.02 272.431C1302.68 272.204 1302.24 272.204 1301.9 272.431L1270.59 289.276C1269.81 289.729 1269.81 290.692 1270.59 291.145L1324.84 319.995C1325.62 320.448 1326.57 319.924 1326.57 319.103Z" fill="#F3F3F3"/>
<path d="M1195.02 17.1452L1195.02 42.994C1195.02 48.3733 1192 53.2995 1186.99 55.9892L1134.67 84.1596C1133.89 84.6126 1132.94 84.0888 1132.94 83.2678L1132.94 58.3957C1132.94 52.3369 1136.56 46.6604 1142.51 43.447L1193.29 16.2533C1194.07 15.8003 1195.02 16.3241 1195.02 17.1452Z" fill="#EDEDED"/>
<path d="M1195.02 115.615L1195.02 90.417C1195.02 85.0519 1192 80.0548 1186.99 77.3652L1171.47 68.9424C1171.13 68.7159 1170.69 68.7159 1170.35 68.9424L1139.04 85.788C1138.26 86.241 1138.26 87.2036 1139.04 87.6566L1193.29 116.507C1194.07 116.959 1195.02 116.436 1195.02 115.615Z" fill="#F3F3F3"/>
<path d="M405.943 475.63L405.943 501.478C405.943 506.858 402.927 511.784 397.921 514.474L345.598 542.644C344.815 543.097 343.869 542.573 343.869 541.752L343.869 516.88C343.869 510.821 347.489 505.145 353.441 501.931L404.215 474.738C404.998 474.285 405.943 474.809 405.943 475.63Z" fill="#EDEDED"/>
<path d="M338.362 541.927L338.362 516.729C338.362 511.364 335.346 506.367 330.34 503.678L314.818 495.255C314.475 495.028 314.035 495.028 313.692 495.255L282.386 512.1C281.604 512.553 281.604 513.516 282.386 513.969L336.634 542.819C337.417 543.272 338.362 542.748 338.362 541.927Z" fill="#F3F3F3"/>
<path d="M800.596 408.068L800.596 433.917C800.596 439.296 797.579 444.223 792.574 446.912L740.25 475.083C739.468 475.536 738.522 475.012 738.522 474.191L738.522 449.319C738.522 443.26 742.142 437.584 748.093 434.37L798.867 407.176C799.65 406.723 800.596 407.247 800.596 408.068Z" fill="#EDEDED"/>
<path d="M733.015 474.366L733.015 449.168C733.015 443.803 729.998 438.806 724.992 436.116L709.47 427.693C709.128 427.467 708.687 427.467 708.345 427.693L677.039 444.539C676.256 444.992 676.256 445.955 677.039 446.408L731.286 475.258C732.069 475.711 733.015 475.187 733.015 474.366Z" fill="#F3F3F3"/>
<path d="M600.49 448.283L600.49 474.132C600.49 479.512 597.474 484.438 592.468 487.127L540.145 515.298C539.362 515.751 538.416 515.227 538.416 514.406L538.416 489.534C538.416 483.475 542.036 477.799 547.988 474.585L598.762 447.392C599.545 446.939 600.49 447.462 600.49 448.283Z" fill="#EDEDED"/>
<path d="M600.49 546.753L600.49 521.555C600.49 516.19 597.474 511.193 592.468 508.503L576.946 500.081C576.603 499.854 576.163 499.854 575.821 500.081L544.515 516.926C543.732 517.379 543.732 518.342 544.515 518.795L598.762 547.645C599.545 548.098 600.49 547.574 600.49 546.753Z" fill="#F3F3F3"/>
<path d="M606.971 548.361L606.971 522.512C606.971 517.133 609.987 512.207 614.993 509.517L667.316 481.347C668.099 480.894 669.045 481.418 669.045 482.239L669.045 507.111C669.045 513.17 665.425 518.846 659.474 522.059L608.699 549.253C607.916 549.706 606.971 549.182 606.971 548.361Z" fill="#EDEDED"/>
<path d="M475.42 492.52L475.42 517.717C475.42 523.083 478.436 528.08 483.442 530.769L498.965 539.192C499.307 539.419 499.747 539.419 500.09 539.192L531.396 522.346C532.178 521.893 532.178 520.931 531.396 520.478L477.148 491.628C476.366 491.175 475.42 491.699 475.42 492.52Z" fill="#F3F3F3"/>
<path d="M471.719 424.154L471.719 450.003C471.719 455.382 468.702 460.309 463.697 462.998L411.373 491.169C410.591 491.622 409.645 491.098 409.645 490.277L409.645 465.405C409.645 459.346 413.265 453.67 419.216 450.456L469.99 423.263C470.773 422.81 471.719 423.333 471.719 424.154Z" fill="#EDEDED"/>
<path d="M471.719 522.624L471.719 497.426C471.719 492.061 468.702 487.064 463.697 484.374L448.174 475.952C447.832 475.725 447.392 475.725 447.049 475.952L415.743 492.797C414.96 493.25 414.96 494.213 415.743 494.666L469.991 523.516C470.773 523.969 471.719 523.445 471.719 522.624Z" fill="#F3F3F3"/>
<path d="M278.094 507.36L278.094 481.511C278.094 476.132 281.11 471.206 286.116 468.516L338.439 440.346C339.222 439.893 340.168 440.416 340.168 441.237L340.168 466.109C340.168 472.168 336.548 477.845 330.597 481.058L279.822 508.252C279.04 508.705 278.094 508.181 278.094 507.36Z" fill="#EDEDED"/>
<path d="M278.094 408.89L278.094 434.088C278.094 439.453 281.11 444.45 286.116 447.14L301.639 455.563C301.981 455.789 302.421 455.789 302.764 455.563L334.07 438.717C334.852 438.264 334.852 437.302 334.07 436.849L279.822 407.999C279.04 407.546 278.094 408.069 278.094 408.89Z" fill="#F3F3F3"/>
<path d="M77.0665 372.679L77.0665 398.528C77.0665 403.907 74.0501 408.833 69.0444 411.523L16.7209 439.694C15.9383 440.147 14.9926 439.623 14.9926 438.802L14.9926 413.93C14.9926 407.871 18.6123 402.194 24.5637 398.981L75.3382 371.787C76.1208 371.334 77.0665 371.858 77.0665 372.679Z" fill="#EDEDED"/>
<path d="M77.0665 471.149L77.0665 445.951C77.0665 440.586 74.0501 435.589 69.0444 432.899L53.5218 424.476C53.1794 424.25 52.7391 424.25 52.3967 424.476L21.0907 441.322C20.3081 441.775 20.3081 442.738 21.0907 443.19L75.3382 472.04C76.1208 472.493 77.0665 471.97 77.0665 471.149Z" fill="#F3F3F3"/>
<path d="M278.094 372.219L278.094 346.37C278.094 340.991 281.11 336.065 286.116 333.375L338.439 305.205C339.222 304.752 340.168 305.276 340.168 306.097L340.168 330.969C340.168 337.028 336.548 342.704 330.597 345.917L279.822 373.111C279.039 373.564 278.094 373.04 278.094 372.219Z" fill="#EDEDED"/>
<path d="M278.094 273.75L278.094 298.947C278.094 304.313 281.11 309.31 286.116 311.999L301.639 320.422C301.981 320.649 302.421 320.649 302.764 320.422L334.07 303.576C334.852 303.123 334.852 302.161 334.07 301.708L279.822 272.858C279.04 272.405 278.094 272.929 278.094 273.75Z" fill="#F3F3F3"/>
<path d="M340.168 189.298L340.168 215.147C340.168 220.526 337.152 225.453 332.146 228.142L279.822 256.313C279.04 256.766 278.094 256.242 278.094 255.421L278.094 230.549C278.094 224.49 281.714 218.814 287.665 215.6L338.44 188.407C339.222 187.954 340.168 188.477 340.168 189.298Z" fill="#EDEDED"/>
<path d="M340.168 287.768L340.168 262.57C340.168 257.205 337.152 252.208 332.146 249.518L316.623 241.096C316.281 240.869 315.841 240.869 315.498 241.096L284.192 257.941C283.41 258.394 283.41 259.357 284.192 259.81L338.44 288.66C339.222 289.113 340.168 288.589 340.168 287.768Z" fill="#F3F3F3"/>
<path d="M272.587 255.596L272.587 230.398C272.587 225.033 269.57 220.036 264.565 217.346L249.042 208.924C248.7 208.697 248.259 208.697 247.917 208.924L216.611 225.769C215.828 226.222 215.828 227.185 216.611 227.638L270.859 256.488C271.641 256.941 272.587 256.417 272.587 255.596Z" fill="#F3F3F3"/>
<path d="M140.063 229.513L140.063 255.362C140.063 260.742 137.046 265.668 132.04 268.357L79.717 296.528C78.9344 296.981 77.9887 296.457 77.9887 295.636L77.9886 270.764C77.9886 264.705 81.6084 259.029 87.5598 255.815L138.334 228.622C139.117 228.169 140.063 228.692 140.063 229.513Z" fill="#EDEDED"/>
<path d="M140.063 327.983L140.063 302.785C140.063 297.42 137.046 292.423 132.041 289.733L116.518 281.311C116.176 281.084 115.735 281.084 115.393 281.311L84.0869 298.156C83.3042 298.609 83.3042 299.572 84.0869 300.025L138.334 328.875C139.117 329.328 140.063 328.804 140.063 327.983Z" fill="#F3F3F3"/>
<path d="M146.543 329.591L146.543 303.743C146.543 298.363 149.559 293.437 154.565 290.747L206.889 262.577C207.671 262.124 208.617 262.648 208.617 263.469L208.617 288.341C208.617 294.4 204.997 300.076 199.046 303.29L148.271 330.483C147.489 330.936 146.543 330.412 146.543 329.591Z" fill="#EDEDED"/>
<path d="M-50.7831 474.366L-50.7831 448.517C-50.7831 443.137 -47.7667 438.211 -42.761 435.522L9.56247 407.351C10.3451 406.898 11.2908 407.422 11.2908 408.243L11.2908 433.115C11.2908 439.174 7.67107 444.85 1.71966 448.064L-49.0548 475.257C-49.8374 475.71 -50.7831 475.187 -50.7831 474.366Z" fill="#EDEDED"/>
<path d="M14.9922 372.219L14.9922 346.371C14.9922 340.991 18.0087 336.065 23.0144 333.375L75.3379 305.205C76.1205 304.752 77.0662 305.276 77.0662 306.097L77.0662 330.969C77.0662 337.028 73.4465 342.704 67.4951 345.918L16.7206 373.111C15.938 373.564 14.9922 373.04 14.9922 372.219Z" fill="#EDEDED"/>
<path d="M14.9922 273.75L14.9922 298.947C14.9922 304.313 18.0087 309.31 23.0144 311.999L38.537 320.422C38.8794 320.649 39.3196 320.649 39.662 320.422L70.9681 303.576C71.7507 303.123 71.7507 302.161 70.9681 301.708L16.7206 272.858C15.9379 272.405 14.9922 272.929 14.9922 273.75Z" fill="#F3F3F3"/>
<path d="M212.318 539.514L212.318 513.665C212.318 508.286 215.335 503.36 220.341 500.67L272.664 472.499C273.447 472.046 274.392 472.57 274.392 473.391L274.392 498.263C274.392 504.322 270.773 509.999 264.821 513.212L214.047 540.406C213.264 540.859 212.318 540.335 212.318 539.514Z" fill="#EDEDED"/>
<path d="M212.318 441.044L212.318 466.242C212.318 471.607 215.335 476.604 220.341 479.294L235.863 487.717C236.206 487.943 236.646 487.943 236.988 487.717L268.294 470.871C269.077 470.418 269.077 469.455 268.294 469.002L214.047 440.153C213.264 439.7 212.318 440.223 212.318 441.044Z" fill="#F3F3F3"/>
<path d="M80.7676 404.391L80.7676 378.543C80.7676 373.163 83.7841 368.237 88.7898 365.547L141.113 337.377C141.896 336.924 142.842 337.448 142.842 338.269L142.842 363.141C142.842 369.2 139.222 374.876 133.27 378.09L82.496 405.283C81.7133 405.736 80.7676 405.212 80.7676 404.391Z" fill="#EDEDED"/>
<path d="M80.7676 305.922L80.7676 331.12C80.7676 336.485 83.7841 341.482 88.7898 344.171L104.312 352.594C104.655 352.821 105.095 352.821 105.437 352.594L136.743 335.749C137.526 335.296 137.526 334.333 136.743 333.88L82.496 305.03C81.7133 304.577 80.7676 305.101 80.7676 305.922Z" fill="#F3F3F3"/>
<path d="M146.543 438.976L146.543 413.127C146.543 407.748 149.559 402.822 154.565 400.132L206.889 371.962C207.671 371.509 208.617 372.033 208.617 372.854L208.617 397.726C208.617 403.785 204.997 409.461 199.046 412.674L148.271 439.868C147.489 440.321 146.543 439.797 146.543 438.976Z" fill="#EDEDED"/>
<path d="M146.543 340.507L146.543 365.704C146.543 371.07 149.559 376.067 154.565 378.756L170.088 387.179C170.43 387.406 170.87 387.406 171.213 387.179L202.519 370.333C203.301 369.88 203.301 368.918 202.519 368.465L148.271 339.615C147.489 339.162 146.543 339.686 146.543 340.507Z" fill="#F3F3F3"/>
<path d="M274.393 340.507L274.393 366.356C274.393 371.735 271.376 376.661 266.371 379.351L214.047 407.521C213.264 407.974 212.319 407.451 212.319 406.63L212.319 381.758C212.319 375.699 215.938 370.022 221.89 366.809L272.664 339.615C273.447 339.162 274.393 339.686 274.393 340.507Z" fill="#F3F3F3"/>
<path d="M274.393 438.976L274.393 413.779C274.393 408.414 271.376 403.417 266.371 400.727L250.848 392.304C250.506 392.078 250.065 392.078 249.723 392.304L218.417 409.15C217.634 409.603 217.634 410.565 218.417 411.018L272.664 439.868C273.447 440.321 274.393 439.797 274.393 438.976Z" fill="#F3F3F3"/>
<path d="M142.842 408.873L142.842 434.721C142.842 440.101 139.825 445.027 134.82 447.717L82.4963 475.887C81.7137 476.34 80.768 475.816 80.768 474.995L80.768 450.123C80.768 444.064 84.3877 438.388 90.3391 435.174L141.114 407.981C141.896 407.528 142.842 408.052 142.842 408.873Z" fill="#F3F3F3"/>
<path d="M142.842 507.342L142.842 482.144C142.842 476.779 139.825 471.782 134.82 469.093L119.297 460.67C118.955 460.443 118.515 460.443 118.172 460.67L86.8661 477.515C86.0835 477.968 86.0835 478.931 86.8661 479.384L141.114 508.234C141.896 508.687 142.842 508.163 142.842 507.342Z" fill="#F3F3F3"/>
<path d="M11.2911 205.384L11.2911 231.233C11.2911 236.613 8.27468 241.539 3.26898 244.228L-49.0545 272.399C-49.8371 272.852 -50.7828 272.328 -50.7828 271.507L-50.7828 246.635C-50.7828 240.576 -47.1631 234.9 -41.2117 231.686L9.56278 204.493C10.3454 204.04 11.2911 204.563 11.2911 205.384Z" fill="#EDEDED"/>
<path d="M11.2911 303.854L11.2911 278.656C11.2911 273.291 8.27467 268.294 3.26897 265.604L-12.2536 257.182C-12.596 256.955 -13.0362 256.955 -13.3787 257.182L-44.6847 274.027C-45.4673 274.48 -45.4673 275.443 -44.6847 275.896L9.56279 304.746C10.3454 305.199 11.2911 304.675 11.2911 303.854Z" fill="#F3F3F3"/>
<path d="M671.819 439.799L671.819 413.95C671.819 408.571 674.836 403.644 679.841 400.955L732.165 372.784C732.947 372.331 733.893 372.855 733.893 373.676L733.893 398.548C733.893 404.607 730.273 410.284 724.322 413.497L673.548 440.691C672.765 441.144 671.819 440.62 671.819 439.799Z" fill="#EDEDED"/>
<path d="M671.819 341.329L671.819 366.527C671.819 371.892 674.836 376.889 679.841 379.579L695.364 388.002C695.706 388.228 696.147 388.228 696.489 388.002L727.795 371.156C728.578 370.703 728.578 369.74 727.795 369.287L673.548 340.438C672.765 339.985 671.819 340.508 671.819 341.329Z" fill="#F3F3F3"/>
<path d="M470.792 305.118L470.792 330.967C470.792 336.346 467.776 341.272 462.77 343.962L410.446 372.132C409.664 372.585 408.718 372.062 408.718 371.241L408.718 346.368C408.718 340.31 412.338 334.633 418.289 331.42L469.064 304.226C469.846 303.773 470.792 304.297 470.792 305.118Z" fill="#EDEDED"/>
<path d="M470.792 403.587L470.792 378.39C470.792 373.025 467.776 368.028 462.77 365.338L447.247 356.915C446.905 356.689 446.465 356.689 446.122 356.915L414.816 373.761C414.034 374.214 414.034 375.176 414.816 375.629L469.064 404.479C469.846 404.932 470.792 404.408 470.792 403.587Z" fill="#F3F3F3"/>
<path d="M671.819 304.658L671.819 278.809C671.819 273.43 674.836 268.504 679.841 265.814L732.165 237.644C732.947 237.191 733.893 237.714 733.893 238.536L733.893 263.408C733.893 269.466 730.273 275.143 724.322 278.356L673.548 305.55C672.765 306.003 671.819 305.479 671.819 304.658Z" fill="#EDEDED"/>
<path d="M671.819 206.189L671.819 231.386C671.819 236.751 674.836 241.749 679.841 244.438L695.364 252.861C695.706 253.087 696.147 253.087 696.489 252.861L727.795 236.015C728.578 235.562 728.578 234.6 727.795 234.147L673.548 205.297C672.765 204.844 671.819 205.368 671.819 206.189Z" fill="#F3F3F3"/>
<path d="M733.894 121.737L733.894 147.586C733.894 152.965 730.877 157.892 725.871 160.581L673.548 188.752C672.765 189.205 671.82 188.681 671.82 187.86L671.82 162.988C671.82 156.929 675.439 151.252 681.391 148.039L732.165 120.845C732.948 120.392 733.894 120.916 733.894 121.737Z" fill="#EDEDED"/>
<path d="M733.893 220.207L733.893 195.009C733.893 189.644 730.877 184.647 725.871 181.957L710.349 173.534C710.006 173.308 709.566 173.308 709.224 173.534L677.918 190.38C677.135 190.833 677.135 191.796 677.918 192.249L732.165 221.099C732.948 221.552 733.893 221.028 733.893 220.207Z" fill="#F3F3F3"/>
<path d="M339.288 407.609L339.288 382.411C339.288 377.046 336.272 372.049 331.266 369.359L315.744 360.937C315.401 360.71 314.961 360.71 314.618 360.937L283.312 377.782C282.53 378.235 282.53 379.198 283.312 379.651L337.56 408.501C338.343 408.954 339.288 408.43 339.288 407.609Z" fill="#F3F3F3"/>
<path d="M666.312 188.035L666.312 162.837C666.312 157.472 663.296 152.475 658.29 149.785L642.768 141.362C642.425 141.136 641.985 141.136 641.643 141.362L610.336 158.208C609.554 158.661 609.554 159.624 610.336 160.077L664.584 188.927C665.367 189.38 666.312 188.856 666.312 188.035Z" fill="#F3F3F3"/>
<path d="M533.788 161.952L533.788 187.801C533.788 193.18 530.772 198.107 525.766 200.796L473.443 228.967C472.66 229.42 471.714 228.896 471.714 228.075L471.714 203.203C471.714 197.144 475.334 191.468 481.285 188.254L532.06 161.06C532.842 160.607 533.788 161.131 533.788 161.952Z" fill="#EDEDED"/>
<path d="M533.788 260.422L533.788 235.224C533.788 229.859 530.772 224.862 525.766 222.172L510.243 213.749C509.901 213.523 509.461 213.523 509.118 213.749L477.812 230.595C477.03 231.048 477.03 232.011 477.812 232.464L532.06 261.314C532.842 261.767 533.788 261.243 533.788 260.422Z" fill="#F3F3F3"/>
<path d="M540.269 262.03L540.269 236.181C540.269 230.802 543.285 225.876 548.291 223.186L600.614 195.016C601.397 194.563 602.343 195.087 602.343 195.908L602.343 220.78C602.343 226.838 598.723 232.515 592.771 235.728L541.997 262.922C541.214 263.375 540.269 262.851 540.269 262.03Z" fill="#EDEDED"/>
<path d="M342.942 406.804L342.942 380.956C342.942 375.576 345.959 370.65 350.965 367.96L403.288 339.79C404.071 339.337 405.016 339.861 405.016 340.682L405.016 365.554C405.016 371.613 401.397 377.289 395.445 380.503L344.671 407.696C343.888 408.149 342.942 407.625 342.942 406.804Z" fill="#EDEDED"/>
<path d="M408.718 304.658L408.718 278.809C408.718 273.43 411.734 268.504 416.74 265.814L469.063 237.644C469.846 237.191 470.792 237.715 470.792 238.536L470.792 263.408C470.792 269.466 467.172 275.143 461.221 278.356L410.446 305.55C409.663 306.003 408.718 305.479 408.718 304.658Z" fill="#EDEDED"/>
<path d="M408.718 206.189L408.718 231.386C408.718 236.751 411.734 241.748 416.74 244.438L432.262 252.861C432.605 253.087 433.045 253.087 433.388 252.861L464.694 236.015C465.476 235.562 465.476 234.6 464.694 234.147L410.446 205.297C409.663 204.844 408.718 205.368 408.718 206.189Z" fill="#F3F3F3"/>
<path d="M606.044 471.953L606.044 446.104C606.044 440.725 609.061 435.798 614.066 433.109L666.39 404.938C667.172 404.485 668.118 405.009 668.118 405.83L668.118 430.702C668.118 436.761 664.498 442.438 658.547 445.651L607.772 472.845C606.99 473.298 606.044 472.774 606.044 471.953Z" fill="#EDEDED"/>
<path d="M606.044 373.483L606.044 398.681C606.044 404.046 609.06 409.043 614.066 411.733L629.589 420.156C629.931 420.382 630.371 420.382 630.714 420.156L662.02 403.31C662.802 402.857 662.802 401.894 662.02 401.441L607.772 372.591C606.99 372.138 606.044 372.662 606.044 373.483Z" fill="#F3F3F3"/>
<path d="M474.493 336.83L474.493 310.981C474.493 305.602 477.51 300.676 482.515 297.986L534.839 269.816C535.621 269.363 536.567 269.887 536.567 270.708L536.567 295.58C536.567 301.638 532.947 307.315 526.996 310.528L476.221 337.722C475.439 338.175 474.493 337.651 474.493 336.83Z" fill="#EDEDED"/>
<path d="M474.493 238.361L474.493 263.558C474.493 268.923 477.51 273.921 482.515 276.61L498.038 285.033C498.38 285.26 498.82 285.26 499.163 285.033L530.469 268.187C531.252 267.734 531.252 266.772 530.469 266.319L476.221 237.469C475.439 237.016 474.493 237.54 474.493 238.361Z" fill="#F3F3F3"/>
<path d="M540.268 371.415L540.268 345.566C540.268 340.187 543.285 335.261 548.291 332.571L600.614 304.401C601.397 303.948 602.342 304.471 602.342 305.292L602.342 330.165C602.342 336.223 598.723 341.9 592.771 345.113L541.997 372.307C541.214 372.76 540.268 372.236 540.268 371.415Z" fill="#EDEDED"/>
<path d="M540.269 272.946L540.269 298.143C540.269 303.508 543.285 308.505 548.291 311.195L563.813 319.618C564.156 319.844 564.596 319.844 564.938 319.618L596.244 302.772C597.027 302.319 597.027 301.357 596.244 300.904L541.997 272.054C541.214 271.601 540.269 272.125 540.269 272.946Z" fill="#F3F3F3"/>
<path d="M668.118 272.946L668.118 298.795C668.118 304.174 665.102 309.1 660.096 311.79L607.773 339.96C606.99 340.413 606.044 339.89 606.044 339.068L606.044 314.196C606.044 308.138 609.664 302.461 615.615 299.248L666.39 272.054C667.172 271.601 668.118 272.125 668.118 272.946Z" fill="#F3F3F3"/>
<path d="M668.118 371.415L668.118 346.218C668.118 340.853 665.102 335.856 660.096 333.166L644.573 324.743C644.231 324.517 643.791 324.517 643.448 324.743L612.142 341.589C611.36 342.042 611.36 343.004 612.142 343.457L666.39 372.307C667.172 372.76 668.118 372.236 668.118 371.415Z" fill="#F3F3F3"/>
<path d="M536.567 341.311L536.567 367.16C536.567 372.54 533.551 377.466 528.545 380.155L476.222 408.326C475.439 408.779 474.493 408.255 474.493 407.434L474.493 382.562C474.493 376.503 478.113 370.827 484.065 367.613L534.839 340.42C535.622 339.967 536.567 340.49 536.567 341.311Z" fill="#F3F3F3"/>
<path d="M536.567 439.781L536.567 414.583C536.567 409.218 533.551 404.221 528.545 401.531L513.023 393.109C512.68 392.882 512.24 392.882 511.898 393.109L480.592 409.954C479.809 410.407 479.809 411.37 480.592 411.823L534.839 440.673C535.622 441.126 536.567 440.602 536.567 439.781Z" fill="#F3F3F3"/>
<path d="M405.017 137.823L405.017 163.672C405.017 169.051 402 173.978 396.994 176.667L344.671 204.838C343.888 205.291 342.943 204.767 342.943 203.946L342.943 179.074C342.943 173.015 346.562 167.338 352.514 164.125L403.288 136.931C404.071 136.478 405.017 137.002 405.017 137.823Z" fill="#EDEDED"/>
<path d="M405.017 236.293L405.017 211.095C405.017 205.73 402 200.733 396.994 198.043L381.472 189.62C381.129 189.394 380.689 189.394 380.347 189.62L349.041 206.466C348.258 206.919 348.258 207.882 349.041 208.335L403.288 237.185C404.071 237.638 405.017 237.114 405.017 236.293Z" fill="#F3F3F3"/>
</svg>
