<svg width="63" height="63" viewBox="0 0 63 63" fill="none" xmlns="http://www.w3.org/2000/svg">
<path d="M37.3022 44.1306V42.6118C37.4813 40.4776 37.3342 39.5119 38.5812 38.8741C41.2766 37.2231 43.3589 34.7369 44.5114 31.7937C45.6638 28.8505 45.8234 25.6114 44.9658 22.5692C44.1081 19.527 42.2802 16.8482 39.7601 14.9403C37.2401 13.0325 34.1658 12 31.005 12C27.8442 12 24.7699 13.0325 22.2498 14.9403C19.7297 16.8482 17.9018 19.527 17.0442 22.5692C16.1865 25.6114 16.3461 28.8505 17.4986 31.7937C18.651 34.7369 20.7334 37.2231 23.4288 38.8741C24.8676 39.9468 24.5366 40.4728 24.7077 42.6118V44.1338L37.3022 44.1306Z" stroke="#F8FBF8" stroke-linecap="round" stroke-linejoin="round"/>
<path d="M37.3092 44.1306H24.7242V49.2768H37.3092V44.1306Z" stroke="#F8FBF8" stroke-linecap="round" stroke-linejoin="round"/>
<path d="M24.7242 45.926H37.3076" stroke="#F8FBF8" stroke-linecap="round" stroke-linejoin="round"/>
<path d="M24.7242 47.6093H37.3076" stroke="#F8FBF8" stroke-linecap="round" stroke-linejoin="round"/>
<path d="M27.2902 49.2767C27.4203 50.172 27.8685 50.9905 28.5526 51.5824C29.2368 52.1742 30.1112 52.5 31.0159 52.5C31.9206 52.5 32.795 52.1742 33.4792 51.5824C34.1633 50.9905 34.6115 50.172 34.7417 49.2767H27.2902Z" stroke="#F8FBF8" stroke-linecap="round" stroke-linejoin="round"/>
<path d="M41.1269 28.0461L41.2196 25.242L39.5186 25.1877C39.4161 24.6123 39.2554 24.0488 39.039 23.5058L40.5977 22.6521L39.2484 20.1901L37.5905 21.1014C37.2332 20.6809 36.8365 20.2954 36.4059 19.9503L37.3955 18.2781L34.9815 16.8473L33.9583 18.5739C33.4566 18.3901 32.9384 18.2552 32.4108 18.171V16.1454H29.6067V18.171C29.2055 18.2371 28.8092 18.33 28.4204 18.4492L27.4772 16.6746L24.9992 17.9919L25.9153 19.7185C25.5153 20.0102 25.1409 20.3353 24.7962 20.6905L23.1847 19.6642L21.6771 22.0286L23.1959 22.9991C22.9473 23.5225 22.7529 24.07 22.6156 24.6329L20.8906 24.5754L20.7979 27.3811L22.3965 27.4322C22.4469 28.0467 22.5633 28.654 22.7435 29.2436L21.4134 29.971L22.7627 32.4314L23.9984 31.7535C24.377 32.2808 24.8141 32.7634 25.3014 33.1923L24.6171 34.353L27.0312 35.7806L27.6818 34.6823C28.298 34.938 28.9418 35.1209 29.6003 35.2275V36.4856H32.4172V35.2275C32.9395 35.1435 33.4528 35.0108 33.9503 34.831L34.5482 35.9501L37.0246 34.6328L36.3995 33.4545C36.8624 33.0848 37.2866 32.6692 37.6657 32.2139L38.8359 32.9605L40.3435 30.5944L39.0837 29.7951C39.3078 29.2162 39.4686 28.6148 39.5633 28.0014L41.1269 28.0461Z" stroke="#F8FBF8" stroke-miterlimit="10"/>
<path d="M31.0117 20.1773C29.7982 20.1773 28.612 20.5372 27.6031 21.2116C26.5942 21.8859 25.808 22.8443 25.3439 23.9655C24.8798 25.0868 24.7587 26.3205 24.9959 27.5106C25.2331 28.7007 25.818 29.7937 26.6765 30.6513C27.535 31.5089 28.6286 32.0926 29.819 32.3286C31.0093 32.5646 32.2429 32.4422 33.3636 31.9769C34.4844 31.5117 35.442 30.7244 36.1153 29.7148C36.7885 28.7052 37.1472 27.5186 37.1459 26.3051C37.1442 24.6793 36.4972 23.1207 35.347 21.9717C34.1968 20.8227 32.6375 20.1773 31.0117 20.1773ZM31.0117 30.5113C30.1809 30.5116 29.3687 30.2656 28.6777 29.8043C27.9866 29.3431 27.4479 28.6873 27.1295 27.9199C26.8111 27.1525 26.7274 26.308 26.889 25.493C27.0505 24.678 27.4501 23.9293 28.0371 23.3413C28.6241 22.7534 29.3723 22.3527 30.187 22.19C31.0017 22.0272 31.8464 22.1096 32.6143 22.4268C33.3821 22.744 34.0387 23.2818 34.501 23.9721C34.9633 24.6624 35.2106 25.4743 35.2115 26.3051C35.2124 26.8572 35.1044 27.404 34.8937 27.9142C34.683 28.4245 34.3738 28.8883 33.9837 29.2789C33.5936 29.6696 33.1304 29.9795 32.6204 30.191C32.1105 30.4024 31.5638 30.5113 31.0117 30.5113Z" fill="#263969" stroke="#F8FBF8" stroke-miterlimit="10"/>
<path d="M43.2397 26.5129C43.2397 29.6603 41.9894 32.6787 39.7639 34.9043C37.5384 37.1298 34.5199 38.3801 31.3726 38.3801" stroke="#F8FBF8" stroke-miterlimit="10"/>
</svg>
