<svg width="32" height="32" viewBox="0 0 32 32" fill="none" xmlns="http://www.w3.org/2000/svg">
<path d="M8 13.75V8.8C8 8.305 8.18375 7.8811 8.55125 7.5283C8.91812 7.1761 9.35937 7 9.875 7H21.125C21.6406 7 22.0822 7.1761 22.4497 7.5283C22.8166 7.8811 23 8.305 23 8.8V13.75H8ZM12.6875 12.4C12.9531 12.4 13.1759 12.3139 13.3559 12.1417C13.5353 11.9689 13.625 11.755 13.625 11.5V10.6C13.625 10.345 13.5353 10.1311 13.3559 9.9583C13.1759 9.7861 12.9531 9.7 12.6875 9.7C12.4219 9.7 12.1994 9.7861 12.02 9.9583C11.84 10.1311 11.75 10.345 11.75 10.6V11.5C11.75 11.755 11.84 11.9689 12.02 12.1417C12.1994 12.3139 12.4219 12.4 12.6875 12.4ZM12.6875 20.5C12.9531 20.5 13.1759 20.4136 13.3559 20.2408C13.5353 20.0686 13.625 19.855 13.625 19.6V16.9C13.625 16.645 13.5353 16.4311 13.3559 16.2583C13.1759 16.0861 12.9531 16 12.6875 16C12.4219 16 12.1994 16.0861 12.02 16.2583C11.84 16.4311 11.75 16.645 11.75 16.9V19.6C11.75 19.855 11.84 20.0686 12.02 20.2408C12.1994 20.4136 12.4219 20.5 12.6875 20.5ZM9.875 25C9.35937 25 8.91812 24.8239 8.55125 24.4717C8.18375 24.1189 8 23.695 8 23.2V14.65H23V23.2C23 23.695 22.8166 24.1189 22.4497 24.4717C22.0822 24.8239 21.6406 25 21.125 25H9.875Z" fill="#F8FBF8"/>
</svg>
