<svg width="15" height="18" viewBox="0 0 15 18" fill="none" xmlns="http://www.w3.org/2000/svg">
<path d="M0 6.75V1.8C0 1.305 0.18375 0.8811 0.55125 0.5283C0.918125 0.1761 1.35937 0 1.875 0H13.125C13.6406 0 14.0822 0.1761 14.4497 0.5283C14.8166 0.8811 15 1.305 15 1.8V6.75H0ZM4.6875 5.4C4.95312 5.4 5.17594 5.3139 5.35594 5.1417C5.53531 4.9689 5.625 4.755 5.625 4.5V3.6C5.625 3.345 5.53531 3.1311 5.35594 2.9583C5.17594 2.7861 4.95312 2.7 4.6875 2.7C4.42188 2.7 4.19938 2.7861 4.02 2.9583C3.84 3.1311 3.75 3.345 3.75 3.6V4.5C3.75 4.755 3.84 4.9689 4.02 5.1417C4.19938 5.3139 4.42188 5.4 4.6875 5.4ZM4.6875 13.5C4.95312 13.5 5.17594 13.4136 5.35594 13.2408C5.53531 13.0686 5.625 12.855 5.625 12.6V9.9C5.625 9.645 5.53531 9.4311 5.35594 9.2583C5.17594 9.0861 4.95312 9 4.6875 9C4.42188 9 4.19938 9.0861 4.02 9.2583C3.84 9.4311 3.75 9.645 3.75 9.9V12.6C3.75 12.855 3.84 13.0686 4.02 13.2408C4.19938 13.4136 4.42188 13.5 4.6875 13.5ZM1.875 18C1.35937 18 0.918125 17.8239 0.55125 17.4717C0.18375 17.1189 0 16.695 0 16.2V7.65H15V16.2C15 16.695 14.8166 17.1189 14.4497 17.4717C14.0822 17.8239 13.6406 18 13.125 18H1.875Z" fill="#5D86EF"/>
</svg>
