<svg width="214" height="40" viewBox="0 0 214 40" fill="none" xmlns="http://www.w3.org/2000/svg">
<path d="M2.47054 0.810028H20.9593C24.807 0.810028 28.3306 2.68321 30.2544 5.79167L50.4037 38.2838C50.7277 38.7698 50.3531 39.357 49.7658 39.357H31.9757C27.642 39.357 23.5818 37.1092 21.2833 33.4135L1.83265 1.88331C1.50864 1.3973 1.88328 0.810028 2.47054 0.810028Z" fill="#5D86EF"/>
<path d="M72.9023 0.810028H54.8792C51.0417 0.810028 47.4675 2.68321 45.5437 5.79168L39.5191 15.431C39.3571 15.6436 39.3571 15.917 39.5191 16.1296L51.5683 35.5702C51.8923 36.0562 52.5808 36.0562 52.9048 35.5702L73.5402 1.88331C73.8642 1.3973 73.4896 0.810028 72.9023 0.810028Z" fill="white"/>
<path d="M72.9023 0.810028H54.8792C51.0417 0.810028 47.4675 2.68321 45.5437 5.79168L39.5191 15.431C39.3571 15.6436 39.3571 15.917 39.5191 16.1296L51.5683 35.5702C51.8923 36.0562 52.5808 36.0562 52.9048 35.5702L73.5402 1.88331C73.8642 1.3973 73.4896 0.810028 72.9023 0.810028Z" fill="black" fill-opacity="0.2"/>
<path d="M72.9023 0.810028H54.8792C51.0417 0.810028 47.4675 2.68321 45.5437 5.79168L39.5191 15.431C39.3571 15.6436 39.3571 15.917 39.5191 16.1296L51.5683 35.5702C51.8923 36.0562 52.5808 36.0562 52.9048 35.5702L73.5402 1.88331C73.8642 1.3973 73.4896 0.810028 72.9023 0.810028Z" fill="black" fill-opacity="0.2"/>
<path d="M72.9023 0.810028H54.8792C51.0417 0.810028 47.4675 2.68321 45.5437 5.79168L39.5191 15.431C39.3571 15.6436 39.3571 15.917 39.5191 16.1296L51.5683 35.5702C51.8923 36.0562 52.5808 36.0562 52.9048 35.5702L73.5402 1.88331C73.8642 1.3973 73.4896 0.810028 72.9023 0.810028Z" fill="#73E262"/>
<path d="M74.5931 21.7897H72.2947C71.8492 21.7897 71.5151 21.4961 71.5151 21.0911V19.0559C71.5151 18.661 71.8492 18.3573 72.2947 18.3573H74.583C75.0285 18.3573 75.3627 18.6509 75.3627 19.0559V21.0911C75.3728 21.4961 75.0386 21.7897 74.5931 21.7897Z" fill="white"/>
<path d="M74.5931 21.7897H72.2947C71.8492 21.7897 71.5151 21.4961 71.5151 21.0911V19.0559C71.5151 18.661 71.8492 18.3573 72.2947 18.3573H74.583C75.0285 18.3573 75.3627 18.6509 75.3627 19.0559V21.0911C75.3728 21.4961 75.0386 21.7897 74.5931 21.7897Z" fill="black" fill-opacity="0.2"/>
<path d="M74.5931 21.7897H72.2947C71.8492 21.7897 71.5151 21.4961 71.5151 21.0911V19.0559C71.5151 18.661 71.8492 18.3573 72.2947 18.3573H74.583C75.0285 18.3573 75.3627 18.6509 75.3627 19.0559V21.0911C75.3728 21.4961 75.0386 21.7897 74.5931 21.7897Z" fill="black" fill-opacity="0.2"/>
<path d="M74.5931 21.7897H72.2947C71.8492 21.7897 71.5151 21.4961 71.5151 21.0911V19.0559C71.5151 18.661 71.8492 18.3573 72.2947 18.3573H74.583C75.0285 18.3573 75.3627 18.6509 75.3627 19.0559V21.0911C75.3728 21.4961 75.0386 21.7897 74.5931 21.7897Z" fill="#73E262"/>
<path d="M3.12872 21.7897H0.779648C0.334135 21.7897 0 21.4961 0 21.0911V19.0559C0 18.661 0.334135 18.3573 0.779648 18.3573H3.06797C3.51348 18.3573 3.84761 18.6509 3.84761 19.0559V21.0911C3.90837 21.4961 3.51348 21.7897 3.12872 21.7897Z" fill="#5D86EF"/>
<path d="M94.6105 19.0988L87.4038 1.25693C87.3222 1.05869 87.4738 0.848785 87.6837 0.848785H90.8206C91.6136 0.848785 92.3249 1.33856 92.6048 2.07323L97.3743 14.5742L102.249 2.07323C102.529 1.33856 103.24 0.860447 104.021 0.860447H106.983C107.193 0.860447 107.345 1.08201 107.263 1.28026L99.9514 19.1105C99.9048 19.2271 99.7998 19.2971 99.6715 19.2971H94.8904C94.7738 19.2854 94.6572 19.2038 94.6105 19.0988Z" fill="#5D86EF"/>
<path d="M110.703 4.464C110.155 4.464 109.677 4.26576 109.292 3.88094C108.907 3.49611 108.709 3.01799 108.709 2.46991C108.709 1.92182 108.907 1.44371 109.292 1.05888C109.677 0.674058 110.143 0.475815 110.703 0.475815C111.251 0.475815 111.729 0.674058 112.114 1.05888C112.499 1.44371 112.697 1.92182 112.697 2.46991C112.697 3.01799 112.499 3.49611 112.114 3.88094C111.717 4.26576 111.251 4.464 110.703 4.464Z" fill="#5D86EF"/>
<path d="M133.559 4.464C133.011 4.464 132.533 4.26576 132.148 3.88094C131.763 3.49611 131.565 3.01799 131.565 2.46991C131.565 1.92182 131.763 1.44371 132.148 1.05888C132.533 0.674058 133 0.475815 133.559 0.475815C134.107 0.475815 134.586 0.674058 134.97 1.05888C135.355 1.44371 135.553 1.92182 135.553 2.46991C135.553 3.01799 135.355 3.49611 134.97 3.88094C134.586 4.26576 134.119 4.464 133.559 4.464Z" fill="#5D86EF"/>
<path d="M112.837 5.65299V18.9819C112.837 19.1452 112.697 19.2851 112.534 19.2851H108.872C108.709 19.2851 108.569 19.1452 108.569 18.9819V5.65299C108.569 5.48973 108.709 5.34979 108.872 5.34979H112.534C112.697 5.34979 112.837 5.48973 112.837 5.65299Z" fill="#5D86EF"/>
<path d="M119.974 19.1219L114.272 5.7696C114.19 5.57136 114.33 5.34979 114.551 5.34979H117.444C118.225 5.34979 118.925 5.81625 119.216 6.53925L122.19 13.8743L125.152 6.53925C125.443 5.81625 126.143 5.34979 126.924 5.34979H129.77C129.956 5.34979 130.084 5.54804 130.014 5.72296L124.277 19.1219C124.23 19.2152 124.137 19.2851 124.032 19.2851H120.219C120.114 19.2851 120.009 19.2152 119.974 19.1219Z" fill="#5D86EF"/>
<path d="M135.694 5.65299V18.9819C135.694 19.1452 135.554 19.2851 135.39 19.2851H131.729C131.565 19.2851 131.426 19.1452 131.426 18.9819V5.65299C131.426 5.48973 131.565 5.34979 131.729 5.34979H135.39C135.565 5.34979 135.694 5.48973 135.694 5.65299Z" fill="#5D86EF"/>
<path d="M149.991 7.27404C149.373 6.60934 148.638 6.08458 147.775 5.6881C146.912 5.30327 145.979 5.10503 144.953 5.10503C143.938 5.10503 142.982 5.29161 142.084 5.65311C141.21 6.02628 140.44 6.52771 139.799 7.18075C139.146 7.83379 138.633 8.60344 138.248 9.50137C137.875 10.376 137.7 11.3205 137.7 12.3234C137.7 13.3263 137.898 14.2709 138.283 15.1688C138.691 16.0434 139.227 16.813 139.892 17.4544C140.58 18.1075 141.385 18.6089 142.318 18.9821C143.25 19.3552 144.242 19.5302 145.291 19.5302C146.446 19.5302 147.484 19.3669 148.393 19.0287C149.221 18.7255 150.037 18.2707 150.83 17.6527C150.982 17.5361 150.982 17.3145 150.842 17.1862L148.486 15.1221C148.37 15.0172 148.207 15.0172 148.09 15.1221C147.798 15.3787 147.46 15.5769 147.075 15.7402C146.597 15.9151 146.072 16.0084 145.489 16.0084C144.685 16.0084 143.985 15.8102 143.379 15.402C142.784 14.9822 142.341 14.4458 142.061 13.7928H151.693C151.857 13.7928 151.996 13.6528 151.996 13.4896V12.7316C151.996 11.6471 151.822 10.6325 151.472 9.69961C151.11 8.74338 150.62 7.93874 149.991 7.27404ZM147.81 10.8074H141.991C142.201 10.1078 142.562 9.55967 143.076 9.17485C143.589 8.79002 144.195 8.59178 144.895 8.59178C145.583 8.59178 146.177 8.79002 146.691 9.19817C147.204 9.59466 147.577 10.1311 147.81 10.8074Z" fill="#5D86EF"/>
<path d="M161.99 5.08168C161.291 5.08168 160.614 5.18663 159.961 5.39654C159.332 5.60644 158.76 5.90964 158.247 6.29446V5.64143C158.247 5.47817 158.107 5.33823 157.944 5.33823H154.282C154.119 5.33823 153.979 5.47817 153.979 5.64143V18.9704C153.979 19.1336 154.119 19.2736 154.282 19.2736H157.944C158.107 19.2736 158.247 19.1336 158.247 18.9704V9.96779C158.247 9.89782 158.27 9.82786 158.317 9.76955C158.585 9.45469 158.912 9.2098 159.297 9.03488C159.716 8.83664 160.206 8.74335 160.743 8.74335C161.501 8.74335 162.107 8.97658 162.562 9.45469C163.04 9.90949 163.273 10.5159 163.273 11.2739V18.982C163.273 19.1453 163.413 19.2852 163.576 19.2852H167.238C167.401 19.2852 167.541 19.1453 167.541 18.982V10.7025C167.541 9.06987 167.028 7.72881 165.99 6.66763C164.964 5.6181 163.623 5.08168 161.99 5.08168Z" fill="#5D86EF"/>
<path d="M184.159 0.00901426L180.497 0.801988C180.357 0.836972 180.264 0.953585 180.264 1.09352V6.09625C179.739 5.79305 179.179 5.57149 178.585 5.40823C177.99 5.24497 177.36 5.175 176.719 5.175C175.716 5.175 174.771 5.36158 173.874 5.72309C172.999 6.09625 172.229 6.59769 171.588 7.25073C170.935 7.88044 170.422 8.63843 170.037 9.51303C169.664 10.376 169.489 11.3089 169.489 12.3001C169.489 13.303 169.675 14.2359 170.037 15.1222C170.41 15.9851 170.912 16.7431 171.541 17.3845C172.194 18.0375 172.952 18.5389 173.804 18.9121C174.678 19.2853 175.611 19.4602 176.591 19.4602C177.279 19.4602 177.932 19.3552 178.561 19.1453C179.191 18.9354 179.786 18.6322 180.322 18.2474V18.9704C180.322 19.1337 180.462 19.2736 180.625 19.2736H184.241C184.404 19.2736 184.544 19.1337 184.544 18.9704V0.300549C184.52 0.102305 184.345 -0.0376312 184.159 0.00901426ZM180.252 14.5974C180.252 14.679 180.217 14.7606 180.159 14.819C179.798 15.1455 179.389 15.3904 178.935 15.5769C178.445 15.7519 177.897 15.8452 177.302 15.8452C176.287 15.8452 175.413 15.507 174.69 14.8423C173.99 14.1543 173.64 13.3146 173.64 12.3118C173.64 11.3089 173.99 10.4809 174.69 9.80457C175.39 9.11655 176.264 8.77837 177.302 8.77837C177.885 8.77837 178.421 8.87166 178.935 9.0699C179.401 9.24482 179.798 9.47805 180.147 9.76958C180.217 9.82789 180.252 9.90952 180.252 10.0028V14.5974Z" fill="#5D86EF"/>
<path d="M212.845 12.1485C212.111 11.4255 211.05 10.9707 209.685 10.7842L206.921 10.3643C206.327 10.271 205.907 10.1544 205.662 9.99118C205.417 9.81626 205.289 9.58303 205.289 9.30316C205.289 8.99996 205.452 8.76673 205.79 8.59181C206.129 8.39357 206.56 8.30028 207.108 8.30028C207.796 8.30028 208.472 8.40523 209.16 8.61513C209.779 8.79006 210.42 9.05827 211.096 9.43143C211.225 9.5014 211.388 9.46641 211.481 9.3498L213.16 7.08749C213.265 6.94756 213.219 6.73765 213.067 6.64436C212.286 6.18957 211.446 5.82807 210.537 5.58318C209.534 5.27998 208.531 5.14005 207.528 5.14005C205.662 5.14005 204.204 5.54819 203.132 6.35283C202.059 7.15746 201.522 8.26529 201.522 9.67632C201.522 10.8191 201.895 11.752 202.63 12.4634C203.365 13.1631 204.414 13.6179 205.79 13.8278L208.554 14.2476C209.044 14.3175 209.405 14.4458 209.639 14.6207C209.872 14.784 209.977 14.9939 209.977 15.2505C209.977 15.5886 209.767 15.8568 209.347 16.0668C208.939 16.265 208.391 16.3583 207.691 16.3583C206.991 16.3583 206.28 16.2417 205.557 16.0201C204.904 15.7985 204.181 15.4604 203.4 15.0056C203.271 14.9239 203.097 14.9706 203.003 15.0872L201.312 17.4894C201.219 17.6294 201.254 17.816 201.394 17.9092C202.152 18.4223 203.027 18.8188 204.041 19.0987C205.184 19.4019 206.408 19.5418 207.726 19.5418C208.624 19.5418 209.452 19.4252 210.233 19.2037C211.003 18.9588 211.668 18.6206 212.204 18.2008C212.764 17.781 213.207 17.2795 213.522 16.6965C213.837 16.1134 214 15.4953 214 14.8306C213.977 13.7461 213.603 12.8482 212.845 12.1485Z" fill="#5D86EF"/>
<path d="M87.6717 36.346L89.3159 34.2936C89.4092 34.177 89.5842 34.1537 89.7008 34.2586C90.5987 35.005 91.45 35.5647 92.2779 35.9379C93.1875 36.3227 94.1321 36.5093 95.135 36.5093C96.1728 36.5093 96.9891 36.3227 97.6072 35.9379C98.2252 35.553 98.5401 35.0516 98.5401 34.4102C98.5401 33.8388 98.3302 33.3957 97.8987 33.0808C97.4906 32.766 96.7909 32.5211 95.7997 32.3695L92.4878 31.7981C91.0535 31.5649 89.969 31.0634 89.2227 30.2938C88.488 29.5358 88.1265 28.5446 88.1265 27.3434C88.1265 25.7925 88.7096 24.5564 89.8874 23.6584C91.0768 22.7489 92.6861 22.3057 94.6918 22.3057C95.893 22.3057 97.1174 22.5156 98.3302 22.9238C99.473 23.3086 100.476 23.8217 101.35 24.4747C101.467 24.568 101.502 24.7313 101.409 24.8596L99.8695 26.9936C99.7762 27.1219 99.6129 27.1452 99.4847 27.0519C98.6684 26.4572 97.8754 26.014 97.0824 25.7225C96.2195 25.3843 95.3449 25.2211 94.4353 25.2211C93.514 25.2211 92.7794 25.396 92.2196 25.7458C91.6599 26.084 91.38 26.5271 91.38 27.0985C91.38 27.6116 91.5666 28.0081 91.9281 28.288C92.2896 28.5795 92.9076 28.7778 93.7589 28.9061L96.9075 29.4308C98.5634 29.699 99.7995 30.2355 100.627 31.0284C101.467 31.8097 101.887 32.8359 101.887 34.1187C101.887 35.7396 101.246 37.034 99.9628 38.0019C98.6917 38.9698 96.9891 39.4596 94.8668 39.4596C93.5374 39.4596 92.2196 39.203 90.9136 38.7016C89.7358 38.2002 88.6629 37.5471 87.7067 36.7192C87.5901 36.6259 87.5784 36.4626 87.6717 36.346ZM108.161 39.413C106.831 39.413 105.735 39.0631 104.896 38.3634C104.056 37.6521 103.636 36.7308 103.636 35.5997C103.636 34.4219 104.091 33.5006 104.989 32.8359C105.898 32.1712 107.146 31.8331 108.732 31.8331C109.245 31.8331 109.747 31.868 110.26 31.9497C110.761 32.0313 111.263 32.1479 111.764 32.3112V31.4249C111.764 30.7136 111.543 30.1655 111.099 29.804C110.656 29.4425 110.003 29.2559 109.152 29.2559C108.627 29.2559 108.056 29.3375 107.438 29.5125C106.831 29.6757 106.143 29.9206 105.362 30.2704L104.301 28.1131C104.231 27.9732 104.289 27.8099 104.429 27.7399C105.304 27.3551 106.155 27.0636 106.983 26.8537C107.904 26.6321 108.814 26.5155 109.7 26.5155C111.368 26.5155 112.662 26.9236 113.583 27.7283C114.516 28.5212 114.983 29.6524 114.983 31.1101V38.8882C114.983 39.0398 114.866 39.1564 114.714 39.1564H112.044C111.892 39.1564 111.776 39.0398 111.776 38.8882V38.3051C111.251 38.6666 110.703 38.9348 110.108 39.1098C109.525 39.3197 108.884 39.413 108.161 39.413ZM106.761 35.5297C106.761 36.0078 106.971 36.3927 107.379 36.6725C107.788 36.9407 108.336 37.0807 109.024 37.0807C109.56 37.0807 110.062 37.0224 110.505 36.8941C110.971 36.7542 111.391 36.5559 111.764 36.2994V34.4452C111.368 34.282 110.948 34.177 110.505 34.107C110.073 34.0254 109.63 33.9904 109.152 33.9904C108.406 33.9904 107.823 34.1304 107.391 34.4219C106.96 34.6784 106.761 35.0516 106.761 35.5297ZM117.443 38.9232V27.0636C117.443 26.912 117.56 26.7954 117.711 26.7954H120.428C120.58 26.7954 120.697 26.912 120.697 27.0636V27.7632C121.175 27.3668 121.7 27.0636 122.271 26.8537C122.854 26.6438 123.495 26.5388 124.172 26.5388C125.606 26.5388 126.772 26.9936 127.694 27.9148C128.615 28.8361 129.07 30.0139 129.07 31.4599V38.8999C129.07 39.0515 128.953 39.1681 128.801 39.1681H126.096C125.944 39.1681 125.828 39.0515 125.828 38.8999V31.9497C125.828 31.1684 125.594 30.5503 125.116 30.0722C124.65 29.5941 124.032 29.3609 123.262 29.3609C122.726 29.3609 122.224 29.4775 121.781 29.699C121.385 29.8973 121.035 30.1655 120.767 30.527C120.732 30.5736 120.708 30.6319 120.708 30.6903V38.9232C120.708 39.0748 120.592 39.1914 120.44 39.1914H117.723C117.56 39.1914 117.443 39.0748 117.443 38.9232ZM132.79 35.693V29.5241H130.516C130.364 29.5241 130.247 29.4075 130.247 29.2559V27.0636C130.247 26.912 130.364 26.7954 130.516 26.7954H132.79V23.845C132.79 23.7168 132.883 23.6118 132.999 23.5768L135.717 22.9588C135.891 22.9238 136.043 23.0521 136.043 23.227V26.7954H139.297C139.448 26.7954 139.565 26.912 139.565 27.0636V29.2559C139.565 29.4075 139.448 29.5241 139.297 29.5241H136.043V35.0283C136.043 35.6113 136.171 36.0312 136.428 36.2644C136.684 36.4976 137.128 36.6259 137.757 36.6259C138.06 36.6259 138.34 36.6142 138.609 36.5792C138.62 36.5792 138.62 36.5792 138.632 36.5792C138.795 36.5443 138.97 36.5093 139.157 36.451C139.332 36.4043 139.506 36.5326 139.506 36.7075V38.7949C139.506 38.9232 139.425 39.0281 139.308 39.0631C139.005 39.1447 138.644 39.2147 138.247 39.2614C137.757 39.343 137.337 39.378 136.988 39.378C135.612 39.378 134.562 39.0631 133.839 38.4451C133.128 37.8153 132.79 36.9058 132.79 35.693ZM145.116 39.413C143.786 39.413 142.69 39.0631 141.85 38.3634C141.011 37.6521 140.591 36.7308 140.591 35.5997C140.591 34.4219 141.046 33.5006 141.944 32.8359C142.853 32.1712 144.089 31.8331 145.687 31.8331C146.188 31.8331 146.702 31.868 147.215 31.9497C147.728 32.0313 148.218 32.1479 148.719 32.3112V31.4249C148.719 30.7136 148.497 30.1655 148.054 29.804C147.611 29.4425 146.958 29.2559 146.107 29.2559C145.582 29.2559 145.011 29.3375 144.393 29.5125C143.786 29.6757 143.098 29.9206 142.317 30.2704L141.256 28.1131C141.186 27.9732 141.244 27.8099 141.384 27.7399C142.259 27.3551 143.11 27.0636 143.938 26.8537C144.859 26.6321 145.769 26.5155 146.655 26.5155C148.322 26.5155 149.617 26.9236 150.538 27.7283C151.471 28.5212 151.949 29.6524 151.949 31.1101V38.8882C151.949 39.0398 151.833 39.1564 151.681 39.1564H149.01C148.859 39.1564 148.742 39.0398 148.742 38.8882V38.3051C148.218 38.6666 147.658 38.9348 147.075 39.1098C146.468 39.3197 145.827 39.413 145.116 39.413ZM143.705 35.5297C143.705 36.0078 143.914 36.3927 144.323 36.6725C144.731 36.9407 145.279 37.0807 145.967 37.0807C146.503 37.0807 146.993 37.0224 147.448 36.8941C147.903 36.7542 148.322 36.5559 148.707 36.2994V34.4452C148.311 34.282 147.891 34.177 147.448 34.107C147.016 34.0254 146.562 33.9904 146.095 33.9904C145.349 33.9904 144.766 34.1304 144.334 34.4219C143.914 34.6784 143.705 35.0516 143.705 35.5297ZM159.401 38.9232V22.7955C159.401 22.6439 159.517 22.5273 159.669 22.5273H172.007C172.158 22.5273 172.275 22.6439 172.275 22.7955V24.743C172.275 25.1744 171.925 25.5243 171.494 25.5243H163.121C162.969 25.5243 162.853 25.6409 162.853 25.7925V29.1743C162.853 29.3259 162.969 29.4425 163.121 29.4425H168.835C168.986 29.4425 169.103 29.5591 169.103 29.7107V32.0663C169.103 32.2179 168.986 32.3345 168.835 32.3345H163.121C162.969 32.3345 162.853 32.4511 162.853 32.6027V38.8882C162.853 39.0398 162.736 39.1564 162.584 39.1564H159.681C159.517 39.1914 159.401 39.0748 159.401 38.9232ZM183.178 37.4305C183.307 37.5471 183.295 37.7454 183.155 37.8503C182.479 38.3634 181.779 38.7483 181.056 39.0048C180.263 39.2963 179.377 39.4363 178.385 39.4363C177.453 39.4363 176.566 39.273 175.738 38.9348C174.934 38.5967 174.222 38.1535 173.616 37.5821C173.033 37.0107 172.555 36.3344 172.217 35.553C171.878 34.7601 171.715 33.9088 171.715 33.0109C171.715 32.1246 171.878 31.285 172.193 30.5153C172.531 29.7224 172.975 29.0343 173.546 28.4629C174.117 27.8799 174.794 27.4134 175.575 27.0869C176.368 26.7487 177.208 26.5854 178.094 26.5854C178.969 26.5854 179.773 26.7604 180.52 27.1102C181.278 27.4484 181.931 27.9032 182.467 28.4863C183.027 29.0693 183.447 29.7807 183.75 30.6086C184.065 31.4133 184.228 32.2995 184.228 33.2558C184.228 33.7339 183.843 34.1187 183.365 34.1187H174.98C175.202 34.9 175.633 35.5181 176.263 35.9962C176.893 36.4743 177.639 36.7075 178.502 36.7075C179.039 36.7075 179.552 36.6259 180.03 36.451C180.426 36.311 180.776 36.1128 181.068 35.8679C181.173 35.7863 181.324 35.7863 181.417 35.8796L183.178 37.4305ZM178.036 29.2676C177.289 29.2676 176.648 29.5008 176.112 29.9556C175.575 30.3987 175.202 31.0051 174.992 31.7631H181.068C180.858 31.0284 180.485 30.4337 179.925 29.9789C179.377 29.5008 178.747 29.2676 178.036 29.2676Z" fill="white"/>
<path d="M87.6717 36.346L89.3159 34.2936C89.4092 34.177 89.5842 34.1537 89.7008 34.2586C90.5987 35.005 91.45 35.5647 92.2779 35.9379C93.1875 36.3227 94.1321 36.5093 95.135 36.5093C96.1728 36.5093 96.9891 36.3227 97.6072 35.9379C98.2252 35.553 98.5401 35.0516 98.5401 34.4102C98.5401 33.8388 98.3302 33.3957 97.8987 33.0808C97.4906 32.766 96.7909 32.5211 95.7997 32.3695L92.4878 31.7981C91.0535 31.5649 89.969 31.0634 89.2227 30.2938C88.488 29.5358 88.1265 28.5446 88.1265 27.3434C88.1265 25.7925 88.7096 24.5564 89.8874 23.6584C91.0768 22.7489 92.6861 22.3057 94.6918 22.3057C95.893 22.3057 97.1174 22.5156 98.3302 22.9238C99.473 23.3086 100.476 23.8217 101.35 24.4747C101.467 24.568 101.502 24.7313 101.409 24.8596L99.8695 26.9936C99.7762 27.1219 99.6129 27.1452 99.4847 27.0519C98.6684 26.4572 97.8754 26.014 97.0824 25.7225C96.2195 25.3843 95.3449 25.2211 94.4353 25.2211C93.514 25.2211 92.7794 25.396 92.2196 25.7458C91.6599 26.084 91.38 26.5271 91.38 27.0985C91.38 27.6116 91.5666 28.0081 91.9281 28.288C92.2896 28.5795 92.9076 28.7778 93.7589 28.9061L96.9075 29.4308C98.5634 29.699 99.7995 30.2355 100.627 31.0284C101.467 31.8097 101.887 32.8359 101.887 34.1187C101.887 35.7396 101.246 37.034 99.9628 38.0019C98.6917 38.9698 96.9891 39.4596 94.8668 39.4596C93.5374 39.4596 92.2196 39.203 90.9136 38.7016C89.7358 38.2002 88.6629 37.5471 87.7067 36.7192C87.5901 36.6259 87.5784 36.4626 87.6717 36.346ZM108.161 39.413C106.831 39.413 105.735 39.0631 104.896 38.3634C104.056 37.6521 103.636 36.7308 103.636 35.5997C103.636 34.4219 104.091 33.5006 104.989 32.8359C105.898 32.1712 107.146 31.8331 108.732 31.8331C109.245 31.8331 109.747 31.868 110.26 31.9497C110.761 32.0313 111.263 32.1479 111.764 32.3112V31.4249C111.764 30.7136 111.543 30.1655 111.099 29.804C110.656 29.4425 110.003 29.2559 109.152 29.2559C108.627 29.2559 108.056 29.3375 107.438 29.5125C106.831 29.6757 106.143 29.9206 105.362 30.2704L104.301 28.1131C104.231 27.9732 104.289 27.8099 104.429 27.7399C105.304 27.3551 106.155 27.0636 106.983 26.8537C107.904 26.6321 108.814 26.5155 109.7 26.5155C111.368 26.5155 112.662 26.9236 113.583 27.7283C114.516 28.5212 114.983 29.6524 114.983 31.1101V38.8882C114.983 39.0398 114.866 39.1564 114.714 39.1564H112.044C111.892 39.1564 111.776 39.0398 111.776 38.8882V38.3051C111.251 38.6666 110.703 38.9348 110.108 39.1098C109.525 39.3197 108.884 39.413 108.161 39.413ZM106.761 35.5297C106.761 36.0078 106.971 36.3927 107.379 36.6725C107.788 36.9407 108.336 37.0807 109.024 37.0807C109.56 37.0807 110.062 37.0224 110.505 36.8941C110.971 36.7542 111.391 36.5559 111.764 36.2994V34.4452C111.368 34.282 110.948 34.177 110.505 34.107C110.073 34.0254 109.63 33.9904 109.152 33.9904C108.406 33.9904 107.823 34.1304 107.391 34.4219C106.96 34.6784 106.761 35.0516 106.761 35.5297ZM117.443 38.9232V27.0636C117.443 26.912 117.56 26.7954 117.711 26.7954H120.428C120.58 26.7954 120.697 26.912 120.697 27.0636V27.7632C121.175 27.3668 121.7 27.0636 122.271 26.8537C122.854 26.6438 123.495 26.5388 124.172 26.5388C125.606 26.5388 126.772 26.9936 127.694 27.9148C128.615 28.8361 129.07 30.0139 129.07 31.4599V38.8999C129.07 39.0515 128.953 39.1681 128.801 39.1681H126.096C125.944 39.1681 125.828 39.0515 125.828 38.8999V31.9497C125.828 31.1684 125.594 30.5503 125.116 30.0722C124.65 29.5941 124.032 29.3609 123.262 29.3609C122.726 29.3609 122.224 29.4775 121.781 29.699C121.385 29.8973 121.035 30.1655 120.767 30.527C120.732 30.5736 120.708 30.6319 120.708 30.6903V38.9232C120.708 39.0748 120.592 39.1914 120.44 39.1914H117.723C117.56 39.1914 117.443 39.0748 117.443 38.9232ZM132.79 35.693V29.5241H130.516C130.364 29.5241 130.247 29.4075 130.247 29.2559V27.0636C130.247 26.912 130.364 26.7954 130.516 26.7954H132.79V23.845C132.79 23.7168 132.883 23.6118 132.999 23.5768L135.717 22.9588C135.891 22.9238 136.043 23.0521 136.043 23.227V26.7954H139.297C139.448 26.7954 139.565 26.912 139.565 27.0636V29.2559C139.565 29.4075 139.448 29.5241 139.297 29.5241H136.043V35.0283C136.043 35.6113 136.171 36.0312 136.428 36.2644C136.684 36.4976 137.128 36.6259 137.757 36.6259C138.06 36.6259 138.34 36.6142 138.609 36.5792C138.62 36.5792 138.62 36.5792 138.632 36.5792C138.795 36.5443 138.97 36.5093 139.157 36.451C139.332 36.4043 139.506 36.5326 139.506 36.7075V38.7949C139.506 38.9232 139.425 39.0281 139.308 39.0631C139.005 39.1447 138.644 39.2147 138.247 39.2614C137.757 39.343 137.337 39.378 136.988 39.378C135.612 39.378 134.562 39.0631 133.839 38.4451C133.128 37.8153 132.79 36.9058 132.79 35.693ZM145.116 39.413C143.786 39.413 142.69 39.0631 141.85 38.3634C141.011 37.6521 140.591 36.7308 140.591 35.5997C140.591 34.4219 141.046 33.5006 141.944 32.8359C142.853 32.1712 144.089 31.8331 145.687 31.8331C146.188 31.8331 146.702 31.868 147.215 31.9497C147.728 32.0313 148.218 32.1479 148.719 32.3112V31.4249C148.719 30.7136 148.497 30.1655 148.054 29.804C147.611 29.4425 146.958 29.2559 146.107 29.2559C145.582 29.2559 145.011 29.3375 144.393 29.5125C143.786 29.6757 143.098 29.9206 142.317 30.2704L141.256 28.1131C141.186 27.9732 141.244 27.8099 141.384 27.7399C142.259 27.3551 143.11 27.0636 143.938 26.8537C144.859 26.6321 145.769 26.5155 146.655 26.5155C148.322 26.5155 149.617 26.9236 150.538 27.7283C151.471 28.5212 151.949 29.6524 151.949 31.1101V38.8882C151.949 39.0398 151.833 39.1564 151.681 39.1564H149.01C148.859 39.1564 148.742 39.0398 148.742 38.8882V38.3051C148.218 38.6666 147.658 38.9348 147.075 39.1098C146.468 39.3197 145.827 39.413 145.116 39.413ZM143.705 35.5297C143.705 36.0078 143.914 36.3927 144.323 36.6725C144.731 36.9407 145.279 37.0807 145.967 37.0807C146.503 37.0807 146.993 37.0224 147.448 36.8941C147.903 36.7542 148.322 36.5559 148.707 36.2994V34.4452C148.311 34.282 147.891 34.177 147.448 34.107C147.016 34.0254 146.562 33.9904 146.095 33.9904C145.349 33.9904 144.766 34.1304 144.334 34.4219C143.914 34.6784 143.705 35.0516 143.705 35.5297ZM159.401 38.9232V22.7955C159.401 22.6439 159.517 22.5273 159.669 22.5273H172.007C172.158 22.5273 172.275 22.6439 172.275 22.7955V24.743C172.275 25.1744 171.925 25.5243 171.494 25.5243H163.121C162.969 25.5243 162.853 25.6409 162.853 25.7925V29.1743C162.853 29.3259 162.969 29.4425 163.121 29.4425H168.835C168.986 29.4425 169.103 29.5591 169.103 29.7107V32.0663C169.103 32.2179 168.986 32.3345 168.835 32.3345H163.121C162.969 32.3345 162.853 32.4511 162.853 32.6027V38.8882C162.853 39.0398 162.736 39.1564 162.584 39.1564H159.681C159.517 39.1914 159.401 39.0748 159.401 38.9232ZM183.178 37.4305C183.307 37.5471 183.295 37.7454 183.155 37.8503C182.479 38.3634 181.779 38.7483 181.056 39.0048C180.263 39.2963 179.377 39.4363 178.385 39.4363C177.453 39.4363 176.566 39.273 175.738 38.9348C174.934 38.5967 174.222 38.1535 173.616 37.5821C173.033 37.0107 172.555 36.3344 172.217 35.553C171.878 34.7601 171.715 33.9088 171.715 33.0109C171.715 32.1246 171.878 31.285 172.193 30.5153C172.531 29.7224 172.975 29.0343 173.546 28.4629C174.117 27.8799 174.794 27.4134 175.575 27.0869C176.368 26.7487 177.208 26.5854 178.094 26.5854C178.969 26.5854 179.773 26.7604 180.52 27.1102C181.278 27.4484 181.931 27.9032 182.467 28.4863C183.027 29.0693 183.447 29.7807 183.75 30.6086C184.065 31.4133 184.228 32.2995 184.228 33.2558C184.228 33.7339 183.843 34.1187 183.365 34.1187H174.98C175.202 34.9 175.633 35.5181 176.263 35.9962C176.893 36.4743 177.639 36.7075 178.502 36.7075C179.039 36.7075 179.552 36.6259 180.03 36.451C180.426 36.311 180.776 36.1128 181.068 35.8679C181.173 35.7863 181.324 35.7863 181.417 35.8796L183.178 37.4305ZM178.036 29.2676C177.289 29.2676 176.648 29.5008 176.112 29.9556C175.575 30.3987 175.202 31.0051 174.992 31.7631H181.068C180.858 31.0284 180.485 30.4337 179.925 29.9789C179.377 29.5008 178.747 29.2676 178.036 29.2676Z" fill="black" fill-opacity="0.2"/>
<path d="M87.6717 36.346L89.3159 34.2936C89.4092 34.177 89.5842 34.1537 89.7008 34.2586C90.5987 35.005 91.45 35.5647 92.2779 35.9379C93.1875 36.3227 94.1321 36.5093 95.135 36.5093C96.1728 36.5093 96.9891 36.3227 97.6072 35.9379C98.2252 35.553 98.5401 35.0516 98.5401 34.4102C98.5401 33.8388 98.3302 33.3957 97.8987 33.0808C97.4906 32.766 96.7909 32.5211 95.7997 32.3695L92.4878 31.7981C91.0535 31.5649 89.969 31.0634 89.2227 30.2938C88.488 29.5358 88.1265 28.5446 88.1265 27.3434C88.1265 25.7925 88.7096 24.5564 89.8874 23.6584C91.0768 22.7489 92.6861 22.3057 94.6918 22.3057C95.893 22.3057 97.1174 22.5156 98.3302 22.9238C99.473 23.3086 100.476 23.8217 101.35 24.4747C101.467 24.568 101.502 24.7313 101.409 24.8596L99.8695 26.9936C99.7762 27.1219 99.6129 27.1452 99.4847 27.0519C98.6684 26.4572 97.8754 26.014 97.0824 25.7225C96.2195 25.3843 95.3449 25.2211 94.4353 25.2211C93.514 25.2211 92.7794 25.396 92.2196 25.7458C91.6599 26.084 91.38 26.5271 91.38 27.0985C91.38 27.6116 91.5666 28.0081 91.9281 28.288C92.2896 28.5795 92.9076 28.7778 93.7589 28.9061L96.9075 29.4308C98.5634 29.699 99.7995 30.2355 100.627 31.0284C101.467 31.8097 101.887 32.8359 101.887 34.1187C101.887 35.7396 101.246 37.034 99.9628 38.0019C98.6917 38.9698 96.9891 39.4596 94.8668 39.4596C93.5374 39.4596 92.2196 39.203 90.9136 38.7016C89.7358 38.2002 88.6629 37.5471 87.7067 36.7192C87.5901 36.6259 87.5784 36.4626 87.6717 36.346ZM108.161 39.413C106.831 39.413 105.735 39.0631 104.896 38.3634C104.056 37.6521 103.636 36.7308 103.636 35.5997C103.636 34.4219 104.091 33.5006 104.989 32.8359C105.898 32.1712 107.146 31.8331 108.732 31.8331C109.245 31.8331 109.747 31.868 110.26 31.9497C110.761 32.0313 111.263 32.1479 111.764 32.3112V31.4249C111.764 30.7136 111.543 30.1655 111.099 29.804C110.656 29.4425 110.003 29.2559 109.152 29.2559C108.627 29.2559 108.056 29.3375 107.438 29.5125C106.831 29.6757 106.143 29.9206 105.362 30.2704L104.301 28.1131C104.231 27.9732 104.289 27.8099 104.429 27.7399C105.304 27.3551 106.155 27.0636 106.983 26.8537C107.904 26.6321 108.814 26.5155 109.7 26.5155C111.368 26.5155 112.662 26.9236 113.583 27.7283C114.516 28.5212 114.983 29.6524 114.983 31.1101V38.8882C114.983 39.0398 114.866 39.1564 114.714 39.1564H112.044C111.892 39.1564 111.776 39.0398 111.776 38.8882V38.3051C111.251 38.6666 110.703 38.9348 110.108 39.1098C109.525 39.3197 108.884 39.413 108.161 39.413ZM106.761 35.5297C106.761 36.0078 106.971 36.3927 107.379 36.6725C107.788 36.9407 108.336 37.0807 109.024 37.0807C109.56 37.0807 110.062 37.0224 110.505 36.8941C110.971 36.7542 111.391 36.5559 111.764 36.2994V34.4452C111.368 34.282 110.948 34.177 110.505 34.107C110.073 34.0254 109.63 33.9904 109.152 33.9904C108.406 33.9904 107.823 34.1304 107.391 34.4219C106.96 34.6784 106.761 35.0516 106.761 35.5297ZM117.443 38.9232V27.0636C117.443 26.912 117.56 26.7954 117.711 26.7954H120.428C120.58 26.7954 120.697 26.912 120.697 27.0636V27.7632C121.175 27.3668 121.7 27.0636 122.271 26.8537C122.854 26.6438 123.495 26.5388 124.172 26.5388C125.606 26.5388 126.772 26.9936 127.694 27.9148C128.615 28.8361 129.07 30.0139 129.07 31.4599V38.8999C129.07 39.0515 128.953 39.1681 128.801 39.1681H126.096C125.944 39.1681 125.828 39.0515 125.828 38.8999V31.9497C125.828 31.1684 125.594 30.5503 125.116 30.0722C124.65 29.5941 124.032 29.3609 123.262 29.3609C122.726 29.3609 122.224 29.4775 121.781 29.699C121.385 29.8973 121.035 30.1655 120.767 30.527C120.732 30.5736 120.708 30.6319 120.708 30.6903V38.9232C120.708 39.0748 120.592 39.1914 120.44 39.1914H117.723C117.56 39.1914 117.443 39.0748 117.443 38.9232ZM132.79 35.693V29.5241H130.516C130.364 29.5241 130.247 29.4075 130.247 29.2559V27.0636C130.247 26.912 130.364 26.7954 130.516 26.7954H132.79V23.845C132.79 23.7168 132.883 23.6118 132.999 23.5768L135.717 22.9588C135.891 22.9238 136.043 23.0521 136.043 23.227V26.7954H139.297C139.448 26.7954 139.565 26.912 139.565 27.0636V29.2559C139.565 29.4075 139.448 29.5241 139.297 29.5241H136.043V35.0283C136.043 35.6113 136.171 36.0312 136.428 36.2644C136.684 36.4976 137.128 36.6259 137.757 36.6259C138.06 36.6259 138.34 36.6142 138.609 36.5792C138.62 36.5792 138.62 36.5792 138.632 36.5792C138.795 36.5443 138.97 36.5093 139.157 36.451C139.332 36.4043 139.506 36.5326 139.506 36.7075V38.7949C139.506 38.9232 139.425 39.0281 139.308 39.0631C139.005 39.1447 138.644 39.2147 138.247 39.2614C137.757 39.343 137.337 39.378 136.988 39.378C135.612 39.378 134.562 39.0631 133.839 38.4451C133.128 37.8153 132.79 36.9058 132.79 35.693ZM145.116 39.413C143.786 39.413 142.69 39.0631 141.85 38.3634C141.011 37.6521 140.591 36.7308 140.591 35.5997C140.591 34.4219 141.046 33.5006 141.944 32.8359C142.853 32.1712 144.089 31.8331 145.687 31.8331C146.188 31.8331 146.702 31.868 147.215 31.9497C147.728 32.0313 148.218 32.1479 148.719 32.3112V31.4249C148.719 30.7136 148.497 30.1655 148.054 29.804C147.611 29.4425 146.958 29.2559 146.107 29.2559C145.582 29.2559 145.011 29.3375 144.393 29.5125C143.786 29.6757 143.098 29.9206 142.317 30.2704L141.256 28.1131C141.186 27.9732 141.244 27.8099 141.384 27.7399C142.259 27.3551 143.11 27.0636 143.938 26.8537C144.859 26.6321 145.769 26.5155 146.655 26.5155C148.322 26.5155 149.617 26.9236 150.538 27.7283C151.471 28.5212 151.949 29.6524 151.949 31.1101V38.8882C151.949 39.0398 151.833 39.1564 151.681 39.1564H149.01C148.859 39.1564 148.742 39.0398 148.742 38.8882V38.3051C148.218 38.6666 147.658 38.9348 147.075 39.1098C146.468 39.3197 145.827 39.413 145.116 39.413ZM143.705 35.5297C143.705 36.0078 143.914 36.3927 144.323 36.6725C144.731 36.9407 145.279 37.0807 145.967 37.0807C146.503 37.0807 146.993 37.0224 147.448 36.8941C147.903 36.7542 148.322 36.5559 148.707 36.2994V34.4452C148.311 34.282 147.891 34.177 147.448 34.107C147.016 34.0254 146.562 33.9904 146.095 33.9904C145.349 33.9904 144.766 34.1304 144.334 34.4219C143.914 34.6784 143.705 35.0516 143.705 35.5297ZM159.401 38.9232V22.7955C159.401 22.6439 159.517 22.5273 159.669 22.5273H172.007C172.158 22.5273 172.275 22.6439 172.275 22.7955V24.743C172.275 25.1744 171.925 25.5243 171.494 25.5243H163.121C162.969 25.5243 162.853 25.6409 162.853 25.7925V29.1743C162.853 29.3259 162.969 29.4425 163.121 29.4425H168.835C168.986 29.4425 169.103 29.5591 169.103 29.7107V32.0663C169.103 32.2179 168.986 32.3345 168.835 32.3345H163.121C162.969 32.3345 162.853 32.4511 162.853 32.6027V38.8882C162.853 39.0398 162.736 39.1564 162.584 39.1564H159.681C159.517 39.1914 159.401 39.0748 159.401 38.9232ZM183.178 37.4305C183.307 37.5471 183.295 37.7454 183.155 37.8503C182.479 38.3634 181.779 38.7483 181.056 39.0048C180.263 39.2963 179.377 39.4363 178.385 39.4363C177.453 39.4363 176.566 39.273 175.738 38.9348C174.934 38.5967 174.222 38.1535 173.616 37.5821C173.033 37.0107 172.555 36.3344 172.217 35.553C171.878 34.7601 171.715 33.9088 171.715 33.0109C171.715 32.1246 171.878 31.285 172.193 30.5153C172.531 29.7224 172.975 29.0343 173.546 28.4629C174.117 27.8799 174.794 27.4134 175.575 27.0869C176.368 26.7487 177.208 26.5854 178.094 26.5854C178.969 26.5854 179.773 26.7604 180.52 27.1102C181.278 27.4484 181.931 27.9032 182.467 28.4863C183.027 29.0693 183.447 29.7807 183.75 30.6086C184.065 31.4133 184.228 32.2995 184.228 33.2558C184.228 33.7339 183.843 34.1187 183.365 34.1187H174.98C175.202 34.9 175.633 35.5181 176.263 35.9962C176.893 36.4743 177.639 36.7075 178.502 36.7075C179.039 36.7075 179.552 36.6259 180.03 36.451C180.426 36.311 180.776 36.1128 181.068 35.8679C181.173 35.7863 181.324 35.7863 181.417 35.8796L183.178 37.4305ZM178.036 29.2676C177.289 29.2676 176.648 29.5008 176.112 29.9556C175.575 30.3987 175.202 31.0051 174.992 31.7631H181.068C180.858 31.0284 180.485 30.4337 179.925 29.9789C179.377 29.5008 178.747 29.2676 178.036 29.2676Z" fill="black" fill-opacity="0.2"/>
<path d="M87.6717 36.346L89.3159 34.2936C89.4092 34.177 89.5842 34.1537 89.7008 34.2586C90.5987 35.005 91.45 35.5647 92.2779 35.9379C93.1875 36.3227 94.1321 36.5093 95.135 36.5093C96.1728 36.5093 96.9891 36.3227 97.6072 35.9379C98.2252 35.553 98.5401 35.0516 98.5401 34.4102C98.5401 33.8388 98.3302 33.3957 97.8987 33.0808C97.4906 32.766 96.7909 32.5211 95.7997 32.3695L92.4878 31.7981C91.0535 31.5649 89.969 31.0634 89.2227 30.2938C88.488 29.5358 88.1265 28.5446 88.1265 27.3434C88.1265 25.7925 88.7096 24.5564 89.8874 23.6584C91.0768 22.7489 92.6861 22.3057 94.6918 22.3057C95.893 22.3057 97.1174 22.5156 98.3302 22.9238C99.473 23.3086 100.476 23.8217 101.35 24.4747C101.467 24.568 101.502 24.7313 101.409 24.8596L99.8695 26.9936C99.7762 27.1219 99.6129 27.1452 99.4847 27.0519C98.6684 26.4572 97.8754 26.014 97.0824 25.7225C96.2195 25.3843 95.3449 25.2211 94.4353 25.2211C93.514 25.2211 92.7794 25.396 92.2196 25.7458C91.6599 26.084 91.38 26.5271 91.38 27.0985C91.38 27.6116 91.5666 28.0081 91.9281 28.288C92.2896 28.5795 92.9076 28.7778 93.7589 28.9061L96.9075 29.4308C98.5634 29.699 99.7995 30.2355 100.627 31.0284C101.467 31.8097 101.887 32.8359 101.887 34.1187C101.887 35.7396 101.246 37.034 99.9628 38.0019C98.6917 38.9698 96.9891 39.4596 94.8668 39.4596C93.5374 39.4596 92.2196 39.203 90.9136 38.7016C89.7358 38.2002 88.6629 37.5471 87.7067 36.7192C87.5901 36.6259 87.5784 36.4626 87.6717 36.346ZM108.161 39.413C106.831 39.413 105.735 39.0631 104.896 38.3634C104.056 37.6521 103.636 36.7308 103.636 35.5997C103.636 34.4219 104.091 33.5006 104.989 32.8359C105.898 32.1712 107.146 31.8331 108.732 31.8331C109.245 31.8331 109.747 31.868 110.26 31.9497C110.761 32.0313 111.263 32.1479 111.764 32.3112V31.4249C111.764 30.7136 111.543 30.1655 111.099 29.804C110.656 29.4425 110.003 29.2559 109.152 29.2559C108.627 29.2559 108.056 29.3375 107.438 29.5125C106.831 29.6757 106.143 29.9206 105.362 30.2704L104.301 28.1131C104.231 27.9732 104.289 27.8099 104.429 27.7399C105.304 27.3551 106.155 27.0636 106.983 26.8537C107.904 26.6321 108.814 26.5155 109.7 26.5155C111.368 26.5155 112.662 26.9236 113.583 27.7283C114.516 28.5212 114.983 29.6524 114.983 31.1101V38.8882C114.983 39.0398 114.866 39.1564 114.714 39.1564H112.044C111.892 39.1564 111.776 39.0398 111.776 38.8882V38.3051C111.251 38.6666 110.703 38.9348 110.108 39.1098C109.525 39.3197 108.884 39.413 108.161 39.413ZM106.761 35.5297C106.761 36.0078 106.971 36.3927 107.379 36.6725C107.788 36.9407 108.336 37.0807 109.024 37.0807C109.56 37.0807 110.062 37.0224 110.505 36.8941C110.971 36.7542 111.391 36.5559 111.764 36.2994V34.4452C111.368 34.282 110.948 34.177 110.505 34.107C110.073 34.0254 109.63 33.9904 109.152 33.9904C108.406 33.9904 107.823 34.1304 107.391 34.4219C106.96 34.6784 106.761 35.0516 106.761 35.5297ZM117.443 38.9232V27.0636C117.443 26.912 117.56 26.7954 117.711 26.7954H120.428C120.58 26.7954 120.697 26.912 120.697 27.0636V27.7632C121.175 27.3668 121.7 27.0636 122.271 26.8537C122.854 26.6438 123.495 26.5388 124.172 26.5388C125.606 26.5388 126.772 26.9936 127.694 27.9148C128.615 28.8361 129.07 30.0139 129.07 31.4599V38.8999C129.07 39.0515 128.953 39.1681 128.801 39.1681H126.096C125.944 39.1681 125.828 39.0515 125.828 38.8999V31.9497C125.828 31.1684 125.594 30.5503 125.116 30.0722C124.65 29.5941 124.032 29.3609 123.262 29.3609C122.726 29.3609 122.224 29.4775 121.781 29.699C121.385 29.8973 121.035 30.1655 120.767 30.527C120.732 30.5736 120.708 30.6319 120.708 30.6903V38.9232C120.708 39.0748 120.592 39.1914 120.44 39.1914H117.723C117.56 39.1914 117.443 39.0748 117.443 38.9232ZM132.79 35.693V29.5241H130.516C130.364 29.5241 130.247 29.4075 130.247 29.2559V27.0636C130.247 26.912 130.364 26.7954 130.516 26.7954H132.79V23.845C132.79 23.7168 132.883 23.6118 132.999 23.5768L135.717 22.9588C135.891 22.9238 136.043 23.0521 136.043 23.227V26.7954H139.297C139.448 26.7954 139.565 26.912 139.565 27.0636V29.2559C139.565 29.4075 139.448 29.5241 139.297 29.5241H136.043V35.0283C136.043 35.6113 136.171 36.0312 136.428 36.2644C136.684 36.4976 137.128 36.6259 137.757 36.6259C138.06 36.6259 138.34 36.6142 138.609 36.5792C138.62 36.5792 138.62 36.5792 138.632 36.5792C138.795 36.5443 138.97 36.5093 139.157 36.451C139.332 36.4043 139.506 36.5326 139.506 36.7075V38.7949C139.506 38.9232 139.425 39.0281 139.308 39.0631C139.005 39.1447 138.644 39.2147 138.247 39.2614C137.757 39.343 137.337 39.378 136.988 39.378C135.612 39.378 134.562 39.0631 133.839 38.4451C133.128 37.8153 132.79 36.9058 132.79 35.693ZM145.116 39.413C143.786 39.413 142.69 39.0631 141.85 38.3634C141.011 37.6521 140.591 36.7308 140.591 35.5997C140.591 34.4219 141.046 33.5006 141.944 32.8359C142.853 32.1712 144.089 31.8331 145.687 31.8331C146.188 31.8331 146.702 31.868 147.215 31.9497C147.728 32.0313 148.218 32.1479 148.719 32.3112V31.4249C148.719 30.7136 148.497 30.1655 148.054 29.804C147.611 29.4425 146.958 29.2559 146.107 29.2559C145.582 29.2559 145.011 29.3375 144.393 29.5125C143.786 29.6757 143.098 29.9206 142.317 30.2704L141.256 28.1131C141.186 27.9732 141.244 27.8099 141.384 27.7399C142.259 27.3551 143.11 27.0636 143.938 26.8537C144.859 26.6321 145.769 26.5155 146.655 26.5155C148.322 26.5155 149.617 26.9236 150.538 27.7283C151.471 28.5212 151.949 29.6524 151.949 31.1101V38.8882C151.949 39.0398 151.833 39.1564 151.681 39.1564H149.01C148.859 39.1564 148.742 39.0398 148.742 38.8882V38.3051C148.218 38.6666 147.658 38.9348 147.075 39.1098C146.468 39.3197 145.827 39.413 145.116 39.413ZM143.705 35.5297C143.705 36.0078 143.914 36.3927 144.323 36.6725C144.731 36.9407 145.279 37.0807 145.967 37.0807C146.503 37.0807 146.993 37.0224 147.448 36.8941C147.903 36.7542 148.322 36.5559 148.707 36.2994V34.4452C148.311 34.282 147.891 34.177 147.448 34.107C147.016 34.0254 146.562 33.9904 146.095 33.9904C145.349 33.9904 144.766 34.1304 144.334 34.4219C143.914 34.6784 143.705 35.0516 143.705 35.5297ZM159.401 38.9232V22.7955C159.401 22.6439 159.517 22.5273 159.669 22.5273H172.007C172.158 22.5273 172.275 22.6439 172.275 22.7955V24.743C172.275 25.1744 171.925 25.5243 171.494 25.5243H163.121C162.969 25.5243 162.853 25.6409 162.853 25.7925V29.1743C162.853 29.3259 162.969 29.4425 163.121 29.4425H168.835C168.986 29.4425 169.103 29.5591 169.103 29.7107V32.0663C169.103 32.2179 168.986 32.3345 168.835 32.3345H163.121C162.969 32.3345 162.853 32.4511 162.853 32.6027V38.8882C162.853 39.0398 162.736 39.1564 162.584 39.1564H159.681C159.517 39.1914 159.401 39.0748 159.401 38.9232ZM183.178 37.4305C183.307 37.5471 183.295 37.7454 183.155 37.8503C182.479 38.3634 181.779 38.7483 181.056 39.0048C180.263 39.2963 179.377 39.4363 178.385 39.4363C177.453 39.4363 176.566 39.273 175.738 38.9348C174.934 38.5967 174.222 38.1535 173.616 37.5821C173.033 37.0107 172.555 36.3344 172.217 35.553C171.878 34.7601 171.715 33.9088 171.715 33.0109C171.715 32.1246 171.878 31.285 172.193 30.5153C172.531 29.7224 172.975 29.0343 173.546 28.4629C174.117 27.8799 174.794 27.4134 175.575 27.0869C176.368 26.7487 177.208 26.5854 178.094 26.5854C178.969 26.5854 179.773 26.7604 180.52 27.1102C181.278 27.4484 181.931 27.9032 182.467 28.4863C183.027 29.0693 183.447 29.7807 183.75 30.6086C184.065 31.4133 184.228 32.2995 184.228 33.2558C184.228 33.7339 183.843 34.1187 183.365 34.1187H174.98C175.202 34.9 175.633 35.5181 176.263 35.9962C176.893 36.4743 177.639 36.7075 178.502 36.7075C179.039 36.7075 179.552 36.6259 180.03 36.451C180.426 36.311 180.776 36.1128 181.068 35.8679C181.173 35.7863 181.324 35.7863 181.417 35.8796L183.178 37.4305ZM178.036 29.2676C177.289 29.2676 176.648 29.5008 176.112 29.9556C175.575 30.3987 175.202 31.0051 174.992 31.7631H181.068C180.858 31.0284 180.485 30.4337 179.925 29.9789C179.377 29.5008 178.747 29.2676 178.036 29.2676Z" fill="#73E262"/>
<path d="M198.07 6.4814C196.997 5.54849 195.493 5.08203 193.569 5.08203C192.52 5.08203 191.447 5.21031 190.362 5.47852C189.383 5.70008 188.38 6.03826 187.354 6.4814C187.202 6.55136 187.132 6.73795 187.202 6.88954L188.473 9.49003C188.543 9.62997 188.718 9.69993 188.858 9.62996C189.651 9.30345 190.35 9.05856 190.969 8.8953C191.657 8.72038 192.263 8.62709 192.811 8.62709C193.686 8.62709 194.35 8.80201 194.782 9.15185C195.237 9.49003 195.47 10.0031 195.47 10.7028V11.3908C194.957 11.2626 194.444 11.1693 193.919 11.0993C193.394 11.0293 192.858 10.9943 192.31 10.9943C190.502 10.9943 189.091 11.3675 188.065 12.1022C187.062 12.8368 186.561 13.863 186.561 15.1808C186.561 16.4402 187.039 17.4781 187.983 18.2827C188.928 19.0873 190.141 19.4955 191.622 19.4955C192.38 19.4955 193.056 19.4139 193.674 19.2623C194.105 19.1456 194.525 18.9707 194.922 18.7492C195.143 18.6092 195.47 18.3643 195.47 18.3643V18.9474C195.47 19.1107 195.61 19.2506 195.773 19.2506H199.388C199.551 19.2506 199.691 19.1107 199.691 18.9474V10.318C199.68 8.68539 199.143 7.39098 198.07 6.4814ZM195.458 15.8571C195.085 16.0904 194.677 16.2536 194.222 16.3586C193.779 16.4635 193.312 16.5218 192.799 16.5218C192.111 16.5218 191.575 16.3936 191.19 16.1487C190.805 15.9038 190.607 15.5656 190.607 15.1225C190.607 14.6793 190.805 14.3528 191.213 14.1196C191.622 13.8747 192.193 13.7464 192.928 13.7464C193.371 13.7464 193.791 13.7698 194.222 13.8281C194.642 13.8864 195.062 13.9563 195.458 14.0613V15.8571Z" fill="#5D86EF"/>
</svg>
