<svg width="63" height="63" viewBox="0 0 63 63" fill="none" xmlns="http://www.w3.org/2000/svg">
<path d="M21.8414 45.9954L31.236 18.9964L27.8431 17.8147L19.502 45.1824V51.1104L21.8414 45.9954Z" stroke="#F8FBF8" stroke-miterlimit="10"/>
<path d="M41.8766 51.1104L41.9985 45.9954L34.0213 17.8147L30.6284 18.9964L41.8766 51.1104Z" stroke="#F8FBF8" stroke-miterlimit="10"/>
<path d="M34.9299 19.2675C34.9302 20.0581 34.696 20.8312 34.257 21.4887C33.8179 22.1463 33.1937 22.6589 32.4633 22.9617C31.7329 23.2645 30.9291 23.3439 30.1536 23.1899C29.3781 23.0358 28.6657 22.6552 28.1065 22.0962C27.5472 21.5372 27.1664 20.825 27.012 20.0495C26.8576 19.274 26.9367 18.4702 27.2392 17.7397C27.5417 17.0092 28.0541 16.3848 28.7115 15.9455C29.3689 15.5062 30.1418 15.2717 30.9325 15.2717C31.9924 15.2717 33.0089 15.6926 33.7585 16.4419C34.5081 17.1912 34.9294 18.2076 34.9299 19.2675V19.2675Z" fill="#263969" stroke="#F8FBF8" stroke-miterlimit="10"/>
<path d="M42 25.1921C38.9379 28.0228 34.9211 29.595 30.751 29.595C26.5809 29.595 22.5641 28.0228 19.502 25.1921" stroke="#F8FBF8" stroke-miterlimit="10"/>
<path d="M30.9327 26.4012V31.4793" stroke="#F8FBF8" stroke-miterlimit="10"/>
<path d="M30.9328 15.2716C31.3867 15.271 31.8373 15.348 32.2652 15.4993V11.8803C32.2715 11.7013 32.2416 11.5229 32.1774 11.3558C32.1132 11.1886 32.0159 11.036 31.8915 10.9072C31.7671 10.7784 31.618 10.676 31.4532 10.606C31.2883 10.536 31.1111 10.5 30.932 10.5C30.7529 10.5 30.5756 10.536 30.4108 10.606C30.2459 10.676 30.0969 10.7784 29.9724 10.9072C29.848 11.036 29.7508 11.1886 29.6866 11.3558C29.6224 11.5229 29.5925 11.7013 29.5987 11.8803V15.5041C30.0269 15.3512 30.4781 15.2726 30.9328 15.2716Z" stroke="#F8FBF8" stroke-miterlimit="10"/>
<path d="M24.9774 40.6046C24.9771 41.1462 24.8162 41.6755 24.5151 42.1257C24.2139 42.5758 23.7861 42.9266 23.2856 43.1337C22.7852 43.3407 22.2346 43.3947 21.7034 43.2888C21.1723 43.183 20.6844 42.922 20.3016 42.539C19.9187 42.1559 19.6581 41.6679 19.5525 41.1367C19.447 40.6055 19.5013 40.0549 19.7086 39.5545C19.916 39.0542 20.267 38.6266 20.7173 38.3257C21.1677 38.0248 21.6971 37.8643 22.2387 37.8643C22.5985 37.864 22.9549 37.9348 23.2874 38.0725C23.6198 38.2101 23.9219 38.412 24.1763 38.6665C24.4307 38.921 24.6324 39.2232 24.7698 39.5558C24.9073 39.8883 24.9778 40.2447 24.9774 40.6046V40.6046Z" fill="#263969" stroke="#F8FBF8" stroke-miterlimit="10"/>
</svg>
