<svg width="64" height="55" viewBox="0 0 64 55" fill="none" xmlns="http://www.w3.org/2000/svg">
<path d="M58.6977 1H4.53479C4.0704 1 3.61056 1.09151 3.18154 1.26931C2.75252 1.4471 2.36273 1.70768 2.03446 2.03617C1.70619 2.36467 1.44587 2.75461 1.26838 3.18375C1.09088 3.61289 0.999683 4.0728 1 4.5372V42.1116C0.999683 42.576 1.09088 43.0359 1.26838 43.465C1.44587 43.8942 1.70619 44.2841 2.03446 44.6126C2.36273 44.9411 2.75252 45.2017 3.18154 45.3795C3.61056 45.5573 4.0704 45.6488 4.53479 45.6488H41.3363L40.6095 54L50.4022 45.6488H58.6904C59.6286 45.6488 60.5283 45.2761 61.1916 44.6128C61.855 43.9494 62.2276 43.0497 62.2276 42.1116V4.5372C62.2277 3.60034 61.856 2.70175 61.1942 2.0386C60.5324 1.37545 59.6346 1.00193 58.6977 1Z" fill="#F8FBF8" stroke="#263969" stroke-width="2" stroke-linecap="round" stroke-linejoin="round"/>
<path d="M42.7708 22.3613C42.7708 22.0294 42.7539 21.7023 42.7248 21.3922L44.9053 20.818L43.9362 17.0797L41.7097 17.6612C41.2432 16.6884 40.6349 15.7903 39.9047 14.9962L41.3317 13.1428L38.2718 10.783L36.8181 12.6558C35.8684 12.1708 34.8518 11.8295 33.8018 11.6431V9.25909H29.9254V11.6431C28.9267 11.8214 27.9579 12.1386 27.0472 12.5855L25.6299 10.6909L22.5336 13.0095L23.9388 14.8847C23.4016 15.4487 22.9272 16.0693 22.5239 16.7357L20.3435 15.9362L19.0061 19.5703L21.1357 20.3553C21.009 21.0214 20.9449 21.6978 20.9443 22.3758C20.9443 22.6181 20.9564 22.8604 20.971 23.0857L18.8074 23.6526L19.7765 27.3933L21.8916 26.8386C22.347 27.853 22.9548 28.7917 23.6941 29.6223L22.3786 31.3182L25.4385 33.6804L26.7347 32.0038C27.7273 32.5311 28.7967 32.899 29.9036 33.0941V35.2043H33.78V33.0941C34.8337 32.9072 35.8535 32.5642 36.806 32.0765L38.0755 33.7725L41.1694 31.4539L39.9071 29.7337C40.4566 29.1372 40.9369 28.4805 41.339 27.7762L43.3789 28.5272L44.7139 24.8931L42.6327 24.1251C42.7255 23.5417 42.7717 22.9519 42.7708 22.3613ZM31.8685 29.6465C30.4003 29.6465 28.9651 29.2111 27.7443 28.3954C26.5235 27.5798 25.5721 26.4204 25.0102 25.064C24.4484 23.7076 24.3014 22.215 24.5878 20.775C24.8742 19.335 25.5812 18.0123 26.6194 16.9741C27.6576 15.936 28.9803 15.229 30.4202 14.9426C31.8602 14.6561 33.3528 14.8031 34.7092 15.365C36.0657 15.9268 37.225 16.8783 38.0407 18.099C38.8564 19.3198 39.2918 20.755 39.2918 22.2232C39.2918 23.1981 39.0998 24.1634 38.7267 25.064C38.3536 25.9646 37.8069 26.783 37.1175 27.4723C36.4282 28.1616 35.6099 28.7084 34.7092 29.0814C33.8086 29.4545 32.8433 29.6465 31.8685 29.6465Z" fill="#5D86EF" stroke="#263969" stroke-width="2" stroke-miterlimit="10"/>
<path d="M5.76508 20.5781V36.2121C5.76508 36.2121 6.07518 38.9037 8.54881 39.5191H25.8714" stroke="#263969" stroke-width="2" stroke-miterlimit="10"/>
</svg>
