<svg width="26" height="82" viewBox="0 0 26 82" fill="none" xmlns="http://www.w3.org/2000/svg">
<path d="M17.397 2V12.7499H8.05493V2C5.58232 3.07385 3.55521 4.96686 2.3149 7.36031C1.07459 9.75376 0.696816 12.5015 1.24521 15.1408C1.7936 17.7802 3.23465 20.15 5.32573 21.8513C7.41682 23.5526 10.0303 24.4814 12.726 24.4814C15.4217 24.4814 18.0351 23.5526 20.1262 21.8513C22.2173 20.15 23.6583 17.7802 24.2067 15.1408C24.7551 12.5015 24.3774 9.75376 23.1371 7.36031C21.8968 4.96686 19.8697 3.07385 17.397 2Z" fill="#F8FBF8" stroke="#263969" stroke-width="2" stroke-miterlimit="10"/>
<path d="M20.6455 12.0959C20.5889 14.3714 19.6317 16.5314 17.9841 18.1017C16.3364 19.672 14.1329 20.5244 11.8574 20.4716" stroke="#263969" stroke-width="2" stroke-miterlimit="10"/>
<path d="M14.9562 24.2729H10.5332V36.9106H14.9562V24.2729Z" fill="#F8FBF8" stroke="#263969" stroke-width="2" stroke-miterlimit="10"/>
<path d="M17.1469 39.5843V77.2266C17.1469 81.1277 12.7304 80.6831 12.7304 80.6831C8.31058 80.7572 8.31055 77.2266 8.31055 77.2266V39.5843C8.31055 39.5843 8.44265 36.292 12.7304 36.3951C12.7304 36.3951 16.6669 36.0891 17.1469 39.5843Z" fill="#5D86EF" stroke="#263969" stroke-width="2" stroke-miterlimit="10"/>
<path d="M13.9381 72.2592C13.9386 72.4181 13.9076 72.5755 13.8471 72.7224C13.7866 72.8694 13.6977 73.0029 13.5854 73.1154C13.4732 73.228 13.3399 73.3172 13.1931 73.3781C13.0464 73.4391 12.889 73.4704 12.7301 73.4704C12.5708 73.4708 12.4129 73.4398 12.2656 73.3791C12.1182 73.3185 11.9843 73.2293 11.8715 73.1168C11.7587 73.0043 11.6692 72.8706 11.6081 72.7234C11.547 72.5763 11.5156 72.4185 11.5156 72.2592V43.8302C11.5156 43.6708 11.547 43.513 11.6081 43.3659C11.6692 43.2187 11.7587 43.085 11.8715 42.9725C11.9843 42.86 12.1182 42.7709 12.2656 42.7102C12.4129 42.6495 12.5708 42.6185 12.7301 42.6189V42.6189C12.889 42.6189 13.0464 42.6503 13.1931 42.7112C13.3399 42.7721 13.4732 42.8614 13.5854 42.9739C13.6977 43.0864 13.7866 43.2199 13.8471 43.3669C13.9076 43.5138 13.9386 43.6712 13.9381 43.8302V72.2592Z" fill="#F8FBF8" stroke="#263969" stroke-width="2" stroke-miterlimit="10"/>
</svg>
