<svg width="63" height="63" viewBox="0 0 63 63" fill="none" xmlns="http://www.w3.org/2000/svg">
<path d="M29.2995 44.8777C29.9476 49.2818 19.7313 49.4146 18.8677 42.7566C14.6548 43.9346 11.7576 39.874 13.7911 36.2882C11.3606 34.6241 11.3979 29.7695 13.9386 28.3145C11.9942 26.2453 14.3534 20.4525 19.0475 21.4847C17.7658 16.8327 24.5567 13.0411 29.327 16.7484L29.2995 44.8777Z" stroke="#F8FBF8" stroke-miterlimit="10"/>
<path d="M18.9053 20.4525C19.2536 22.5168 21.0717 24.1145 23.1457 24.4872" stroke="#F8FBF8" stroke-miterlimit="10"/>
<path d="M23.1451 18.9001C22.659 21.9787 27.8441 23.275 29.2489 21.2788" stroke="#F8FBF8" stroke-miterlimit="10"/>
<path d="M20.559 23.4533C20.559 24.5357 19.1007 25.9227 18.2905 26.2452" stroke="#F8FBF8" stroke-miterlimit="10"/>
<path d="M17.3523 29.7614C18.6275 30.4095 18.6486 32.2632 20.0372 32.678C21.4842 33.109 22.2717 31.5114 22.8534 30.4014C23.7397 28.7082 25.0554 28.0228 26.9707 28.3241C27.5961 28.4214 28.6801 28.8605 29.0415 29.0436" stroke="#F8FBF8" stroke-miterlimit="10"/>
<path d="M15.9042 29.6577C16.8958 30.8859 18.4854 29.0711 17.4565 28.0033" stroke="#F8FBF8" stroke-miterlimit="10"/>
<path d="M29.3517 36.0726C27.9938 34.718 25.8777 36.246 25.4223 37.7124C24.886 39.4413 26.5193 40.8478 25.9441 42.5297C25.5957 43.5505 24.7937 44.001 23.7664 43.826" stroke="#F8FBF8" stroke-miterlimit="10"/>
<path d="M18.9045 43.6218C17.31 39.4494 25.2141 40.6242 21.8 34.3129" stroke="#F8FBF8" stroke-miterlimit="10"/>
<path d="M13.7311 36.4857C14.2982 35.5589 15.6512 35.4909 16.6364 35.5508C17.5276 35.6059 18.5289 36.2783 18.9049 36.382" stroke="#F8FBF8" stroke-miterlimit="10"/>
<path d="M49.8826 34.3162L50.0317 29.7646L47.2771 29.6739C47.1123 28.7407 46.8522 27.8269 46.5009 26.9468L49.0319 25.5598L46.8412 21.5673L44.1514 23.0418C43.5708 22.3606 42.9268 21.7362 42.2281 21.1768L43.8355 18.4594L39.9158 16.1391L38.2582 18.9407C37.4433 18.6478 36.6031 18.4309 35.7483 18.2925V15H33.4928V48H35.7434V45.96C36.5903 45.8215 37.4224 45.6046 38.2291 45.3118L39.2013 47.1347L43.2214 44.9991L42.2054 43.0855C42.9567 42.4854 43.6451 41.8106 44.26 41.0714L46.159 42.2834L48.6074 38.4416L46.5609 37.1453C46.9241 36.2043 47.1828 35.2262 47.3322 34.2287L49.8826 34.3162Z" stroke="#F8FBF8" stroke-miterlimit="10"/>
<path d="M33.4928 21.5446V24.6832C35.2823 24.7108 36.9892 25.441 38.2449 26.7163C39.5006 27.9915 40.2045 29.7095 40.2045 31.4992C40.2045 33.2889 39.5006 35.0068 38.2449 36.2821C36.9892 37.5573 35.2823 38.2876 33.4928 38.3152V41.4538C36.1109 41.4204 38.6105 40.3569 40.4501 38.4937C42.2897 36.6305 43.3212 34.1175 43.3212 31.4992C43.3212 28.8809 42.2897 26.3679 40.4501 24.5047C38.6105 22.6415 36.1109 21.578 33.4928 21.5446V21.5446Z" fill="#263969" stroke="#F8FBF8" stroke-miterlimit="10"/>
</svg>
