<svg width="82" height="82" viewBox="0 0 82 82" fill="none" xmlns="http://www.w3.org/2000/svg">
<path d="M54.189 54.3936H29.8882V63.7321H54.189V54.3936Z" fill="#5D86EF" stroke="#263969" stroke-width="1.6" stroke-miterlimit="10"/>
<path d="M25.6726 29.4954C24.8285 30.3661 24.2231 31.4395 23.9147 32.6123C23.6062 33.785 23.6053 35.0175 23.9118 36.1907C23.9118 36.1907 26.1464 43.1077 31.8287 48.4726V54.394H52.5015V48.8443L55.3165 46.4032C55.3165 46.4032 57.3381 44.8445 57.3251 42.1469V26.813H46.3953" fill="#F8FBF8"/>
<path d="M25.6726 29.4954C24.8285 30.3661 24.2231 31.4395 23.9147 32.6123C23.6062 33.785 23.6053 35.0175 23.9118 36.1907C23.9118 36.1907 26.1464 43.1077 31.8287 48.4726V54.394H52.5015V48.8443L55.3165 46.4032C55.3165 46.4032 57.3381 44.8445 57.3251 42.1469V26.813H46.3953" stroke="#263969" stroke-width="1.6" stroke-miterlimit="10"/>
<path d="M58.8142 24.5047C58.7598 24.5047 58.712 24.5047 58.6555 24.5047H22.8684C22.6583 24.5042 22.4487 24.5239 22.2424 24.5634C21.4765 22.6554 20.1641 21.0163 18.4699 19.8517C16.7756 18.6871 14.7751 18.0489 12.7195 18.0173C10.6638 17.9858 8.64467 18.5622 6.91547 19.6742C5.18627 20.7862 3.82411 22.3842 3 24.2677H12.5647V32.5716H3C3.82286 34.4556 5.18394 36.0545 6.91237 37.1676C8.64079 38.2808 10.6595 38.8585 12.7151 38.8283C14.7708 38.7981 16.7717 38.1614 18.4667 36.998C20.1616 35.8345 21.4752 34.1963 22.2424 32.289C22.4486 32.3292 22.6583 32.3496 22.8684 32.3499H58.6555C58.6881 32.3499 58.7142 32.3499 58.7468 32.3499C59.5088 34.262 60.8193 35.906 62.5134 37.0751C64.2076 38.2442 66.2096 38.8861 68.2677 38.92C70.3258 38.9539 72.3479 38.3784 74.0797 37.2658C75.8114 36.1532 77.1754 34.5532 78 32.6672H68.4353V24.3612H78C77.1824 22.4888 75.833 20.8976 74.1192 19.7851C72.4055 18.6726 70.4029 18.0876 68.3597 18.1029C66.3166 18.1182 64.323 18.733 62.6261 19.871C60.9292 21.009 59.6037 22.6202 58.8142 24.5047V24.5047Z" fill="#5D86EF" stroke="#263969" stroke-width="1.6" stroke-miterlimit="10"/>
<path d="M56.1733 27.4424C56.4453 27.443 56.7059 27.5512 56.8982 27.7435C57.0905 27.9358 57.1988 28.1965 57.1993 28.4684C57.1993 28.7405 57.0912 29.0015 56.8988 29.1939C56.7064 29.3863 56.4454 29.4944 56.1733 29.4944H24.8316C24.6966 29.4947 24.5628 29.4684 24.438 29.417C24.3131 29.3656 24.1996 29.2901 24.104 29.1948C24.0083 29.0996 23.9323 28.9864 23.8804 28.8617C23.8284 28.7371 23.8016 28.6034 23.8013 28.4684V28.4684C23.8016 28.3334 23.8284 28.1997 23.8804 28.0751C23.9323 27.9505 24.0083 27.8373 24.104 27.742C24.1996 27.6467 24.3131 27.5712 24.438 27.5198C24.5628 27.4684 24.6966 27.4421 24.8316 27.4424H56.1733Z" fill="#F8FBF8" stroke="#263969" stroke-width="1.6" stroke-miterlimit="10"/>
<path d="M13.0854 20.748C15.1092 20.7959 17.0312 21.6456 18.4286 23.1103C19.826 24.5749 20.5845 26.5347 20.5372 28.5585" stroke="#263969" stroke-width="1.6" stroke-miterlimit="10"/>
<path d="M69.9279 36.1898C67.9043 36.1414 65.9827 35.2915 64.5854 33.827C63.1881 32.3624 62.4295 30.403 62.4762 28.3794" stroke="#263969" stroke-width="1.6" stroke-miterlimit="10"/>
<path d="M38.0966 28.371C38.0968 28.7827 38.016 29.1905 37.8585 29.5709C37.7011 29.9513 37.4702 30.297 37.1791 30.5881C36.888 30.8793 36.5423 31.1102 36.1619 31.2676C35.7814 31.425 35.3737 31.5059 34.962 31.5056V31.5056C34.1304 31.5056 33.3329 31.1754 32.7447 30.5876C32.1565 29.9998 31.8258 29.2026 31.8252 28.371V22.5018C31.8258 21.6702 32.1565 20.8729 32.7447 20.2852C33.3329 19.6974 34.1304 19.3672 34.962 19.3672V19.3672C35.3737 19.3669 35.7814 19.4478 36.1619 19.6052C36.5423 19.7626 36.888 19.9935 37.1791 20.2847C37.4702 20.5758 37.7011 20.9215 37.8585 21.3019C38.016 21.6823 38.0968 22.0901 38.0966 22.5018V28.371Z" fill="#F8FBF8" stroke="#263969" stroke-width="1.6" stroke-miterlimit="10"/>
<path d="M44.7829 27.9277C44.7829 28.7592 44.4527 29.5568 43.8649 30.145C43.2771 30.7332 42.4798 31.0639 41.6483 31.0645V31.0645C40.8167 31.0639 40.0195 30.7332 39.4317 30.145C38.8439 29.5568 38.5137 28.7592 38.5137 27.9277V21.1346C38.5142 20.3034 38.8447 19.5065 39.4324 18.9187C40.0201 18.331 40.8171 18.0006 41.6483 18V18C42.4795 18.0006 43.2764 18.331 43.8642 18.9187C44.4519 19.5065 44.7823 20.3034 44.7829 21.1346V27.9277Z" fill="#F8FBF8" stroke="#263969" stroke-width="1.6" stroke-miterlimit="10"/>
<path d="M51.0524 26.8037C51.0518 27.6349 50.7214 28.4318 50.1337 29.0196C49.5459 29.6073 48.749 29.9377 47.9178 29.9383C47.0864 29.9383 46.2892 29.6081 45.7013 29.0202C45.1135 28.4323 44.7832 27.6351 44.7832 26.8037V22.5018C44.7829 22.0901 44.8638 21.6823 45.0212 21.3019C45.1787 20.9215 45.4095 20.5758 45.7007 20.2847C45.9918 19.9935 46.3375 19.7626 46.7179 19.6052C47.0983 19.4478 47.5061 19.3669 47.9178 19.3672V19.3672C48.3294 19.3672 48.737 19.4483 49.1174 19.6058C49.4977 19.7633 49.8432 19.9942 50.1343 20.2853C50.4254 20.5764 50.6563 20.9219 50.8138 21.3022C50.9713 21.6825 51.0524 22.0901 51.0524 22.5018V26.8037Z" fill="#F8FBF8" stroke="#263969" stroke-width="1.6" stroke-miterlimit="10"/>
<path d="M57.3214 26.8129C57.3214 27.6439 56.9915 28.4409 56.4041 29.0286C55.8167 29.6164 55.02 29.9469 54.189 29.9475V29.9475C53.7772 29.9478 53.3694 29.8669 52.9888 29.7095C52.6082 29.5521 52.2624 29.3213 51.9711 29.0302C51.6798 28.7391 51.4487 28.3934 51.2911 28.013C51.1334 27.6325 51.0522 27.2247 51.0522 26.8129V23.8826C51.0522 23.4708 51.1334 23.063 51.2911 22.6826C51.4487 22.3021 51.6798 21.9565 51.9711 21.6654C52.2624 21.3743 52.6082 21.1434 52.9888 20.986C53.3694 20.8286 53.7772 20.7478 54.189 20.748V20.748C55.02 20.7486 55.8167 21.0791 56.4041 21.6669C56.9915 22.2547 57.3214 23.0517 57.3214 23.8826V26.8129Z" fill="#F8FBF8" stroke="#263969" stroke-width="1.6" stroke-miterlimit="10"/>
<path d="M38.2357 43.1082C39.4226 33.6718 31.5492 31.5067 31.5492 31.5067H40.6551C44.7853 30.6176 44.7853 25.4375 44.7853 25.4375H30.4818L25.6734 29.496C25.6734 29.496 23.0649 32.3219 23.9126 36.1912C23.9126 36.1912 25.869 42.5539 31.8296 48.4731" fill="#F8FBF8"/>
<path d="M38.2357 43.1082C39.4226 33.6718 31.5492 31.5067 31.5492 31.5067H40.6551C44.7853 30.6176 44.7853 25.4375 44.7853 25.4375H30.4818L25.6734 29.496C25.6734 29.496 23.0649 32.3219 23.9126 36.1912C23.9126 36.1912 25.869 42.5539 31.8296 48.4731" stroke="#263969" stroke-width="1.6" stroke-linejoin="round"/>
<path d="M52.0939 59.0631C52.0943 59.3929 51.9969 59.7155 51.8139 59.99C51.631 60.2644 51.3707 60.4785 51.0661 60.605C50.7615 60.7315 50.4262 60.7649 50.1026 60.7008C49.7791 60.6367 49.4818 60.4781 49.2484 60.245C49.015 60.0119 48.856 59.7148 48.7915 59.3913C48.727 59.0678 48.7598 58.7325 48.886 58.4277C49.0121 58.1229 49.2258 57.8624 49.5001 57.6791C49.7743 57.4958 50.0967 57.3979 50.4266 57.3979C50.8684 57.3979 51.2921 57.5733 51.6047 57.8855C51.9174 58.1977 52.0933 58.6213 52.0939 59.0631V59.0631Z" fill="#F8FBF8" stroke="#263969" stroke-width="1.6" stroke-miterlimit="10"/>
</svg>
