<svg width="72" height="72" viewBox="0 0 72 72" fill="none" xmlns="http://www.w3.org/2000/svg">
<path d="M44.7636 52.4274V50.3274C45.0111 47.3763 44.8078 46.0412 46.532 45.1592C50.2589 42.8764 53.1382 39.4387 54.7317 35.3691C56.3253 31.2995 56.5459 26.8207 55.36 22.6142C54.1741 18.4077 51.6467 14.7036 48.1621 12.0656C44.6776 9.4276 40.4267 8 36.0562 8C31.6857 8 27.4349 9.4276 23.9503 12.0656C20.4658 14.7036 17.9383 18.4077 16.7524 22.6142C15.5666 26.8207 15.7872 31.2995 17.3807 35.3691C18.9743 39.4387 21.8536 42.8764 25.5805 45.1592C27.57 46.6424 27.1124 47.3697 27.3489 50.3274V52.4318L44.7636 52.4274Z" fill="#F8FBF8" stroke="#263969" stroke-width="1.6" stroke-linecap="round" stroke-linejoin="round"/>
<path d="M44.7729 52.4277H27.3716V59.5435H44.7729V52.4277Z" fill="#F8FBF8" stroke="#263969" stroke-width="1.6" stroke-linecap="round" stroke-linejoin="round"/>
<path d="M27.3716 54.9102H44.7707" stroke="#263969" stroke-width="1.6" stroke-linecap="round" stroke-linejoin="round"/>
<path d="M27.3716 57.2373H44.7707" stroke="#263969" stroke-width="1.6" stroke-linecap="round" stroke-linejoin="round"/>
<path d="M30.9194 59.543C31.0994 60.7809 31.7191 61.9126 32.6651 62.731C33.6111 63.5494 34.8202 63.9998 36.0711 63.9998C37.322 63.9998 38.5311 63.5494 39.4771 62.731C40.4231 61.9126 41.0428 60.7809 41.2228 59.543H30.9194Z" fill="#5D86EF" stroke="#263969" stroke-width="1.6" stroke-linecap="round" stroke-linejoin="round"/>
<path d="M50.0521 30.1872L50.1803 26.3099L47.8283 26.2347C47.6865 25.4391 47.4643 24.66 47.1651 23.9093L49.3204 22.7288L47.4547 19.3246L45.1624 20.5846C44.6683 20.0031 44.1198 19.4702 43.5244 18.993L44.8927 16.6808L41.5548 14.7024L40.14 17.0897C39.4464 16.8356 38.7298 16.6491 38.0002 16.5327V13.7319H34.123V16.5327C33.5682 16.624 33.0202 16.7525 32.4827 16.9173L31.1785 14.4636L27.7522 16.2851L29.0188 18.6725C28.4658 19.0757 27.9481 19.5254 27.4714 20.0165L25.2432 18.5973L23.1587 21.8667L25.2587 23.2085C24.915 23.9323 24.6461 24.6893 24.4563 25.4677L22.0711 25.3881L21.9429 29.2676L24.1534 29.3383C24.2231 30.188 24.3839 31.0276 24.6331 31.8429L22.794 32.8487L24.6596 36.2507L26.3684 35.3134C26.8919 36.0425 27.4963 36.7099 28.17 37.3029L27.2239 38.9078L30.5618 40.8818L31.4615 39.3631C32.3134 39.7166 33.2036 39.9696 34.1141 40.1169V41.8566H38.0091V40.1169C38.7313 40.0008 39.441 39.8173 40.129 39.5687L40.9557 41.1161L44.3798 39.2946L43.5155 37.6654C44.1556 37.1543 44.7422 36.5796 45.2663 35.9501L46.8844 36.9824L48.9689 33.7108L47.227 32.6055C47.5368 31.8051 47.7592 30.9735 47.8902 30.1253L50.0521 30.1872Z" stroke="#263969" stroke-width="1.6" stroke-miterlimit="10"/>
<path d="M36.0653 19.3071C34.3874 19.3071 32.7472 19.8048 31.3522 20.7372C29.9572 21.6696 28.87 22.9948 28.2283 24.5452C27.5866 26.0955 27.4191 27.8014 27.7471 29.4469C28.0751 31.0925 28.8838 32.6038 30.0709 33.7897C31.258 34.9755 32.7701 35.7826 34.416 36.1089C36.0619 36.4352 37.7676 36.2659 39.3173 35.6226C40.867 34.9793 42.1911 33.8908 43.122 32.4948C44.053 31.0988 44.5489 29.4581 44.5472 27.7801C44.5448 25.5321 43.6502 23.377 42.0598 21.7883C40.4694 20.1995 38.3133 19.3071 36.0653 19.3071V19.3071ZM36.0653 33.5961C34.9165 33.5965 33.7934 33.2563 32.8379 32.6185C31.8825 31.9808 31.1375 31.074 30.6973 30.0129C30.2571 28.9519 30.1413 27.7841 30.3647 26.6572C30.5881 25.5304 31.1405 24.495 31.9522 23.6821C32.7639 22.8692 33.7984 22.3151 34.9249 22.0901C36.0514 21.865 37.2194 21.9789 38.2812 22.4176C39.3429 22.8562 40.2508 23.5997 40.89 24.5542C41.5292 25.5087 41.8711 26.6313 41.8724 27.7801C41.8736 28.5435 41.7242 29.2995 41.4329 30.0051C41.1416 30.7107 40.714 31.3519 40.1747 31.8921C39.6353 32.4322 38.9948 32.8608 38.2897 33.1532C37.5845 33.4456 36.8287 33.5961 36.0653 33.5961V33.5961Z" fill="#5D86EF" stroke="#263969" stroke-width="1.6" stroke-miterlimit="10"/>
<path d="M52.9738 28.0674C52.9738 32.4193 51.245 36.5929 48.1677 39.6702C45.0905 42.7474 40.9168 44.4762 36.5649 44.4762" stroke="#263969" stroke-width="1.6" stroke-miterlimit="10"/>
</svg>
