<svg width="46" height="84" viewBox="0 0 46 84" fill="none" xmlns="http://www.w3.org/2000/svg">
<path d="M28.5624 1H15.9828L11.6854 7.44283H8.15798L5.92876 4.91723H1V16.7688H6.41841L7.41706 14.3077H10.2454C10.2454 14.3077 15.9667 15.3482 17.1457 22.7864H29.516L31.6743 15.2419C34.7862 6.70191 43.6161 16.247 43.6161 16.247L44.1509 15.8991C40.7104 1.451 28.5624 1 28.5624 1Z" fill="#F8FBF8" stroke="#263969" stroke-width="2" stroke-miterlimit="10"/>
<path d="M29.4499 22.7769H17.1602V31.1751H29.4499V22.7769Z" fill="#F8FBF8" stroke="#263969" stroke-width="2" stroke-miterlimit="10"/>
<path d="M25.9542 31.175H20.6582V49.2987H25.9542V31.175Z" fill="#F8FBF8" stroke="#263969" stroke-width="2" stroke-miterlimit="10"/>
<path d="M32.1746 82.6018C31.7623 79.2065 29.4493 78.5912 29.4493 78.5912V52.691C29.2979 49.3987 27.2652 49.2988 27.2652 49.2988H19.3469C19.3469 49.2988 17.3142 49.3987 17.1596 52.691V78.6041C17.1596 78.6041 14.8498 79.2193 14.4375 82.6147L32.1746 82.6018Z" fill="#5D86EF" stroke="#263969" stroke-width="2" stroke-miterlimit="10"/>
<path d="M12.1406 11.2603C12.1406 11.2603 18.9636 11.9045 20.1265 19.6585" stroke="#263969" stroke-width="2" stroke-miterlimit="10"/>
</svg>
