<svg width="1702" height="550" viewBox="0 0 1702 550" fill="none" xmlns="http://www.w3.org/2000/svg">
<path d="M1244.87 439.403L1244.87 464.601C1244.87 469.966 1247.89 474.963 1252.89 477.652L1268.41 486.075C1268.76 486.302 1269.2 486.302 1269.54 486.075L1300.85 469.23C1301.63 468.777 1301.63 467.814 1300.85 467.361L1246.6 438.511C1245.82 438.058 1244.87 438.582 1244.87 439.403Z" fill="#223462"/>
<path d="M1306.94 354.951L1306.94 380.8C1306.94 386.18 1303.93 391.106 1298.92 393.795L1246.6 421.966C1245.82 422.419 1244.87 421.895 1244.87 421.074L1244.87 396.202C1244.87 390.143 1248.49 384.467 1254.44 381.253L1305.22 354.06C1306 353.607 1306.94 354.13 1306.94 354.951Z" fill="#21315A"/>
<path d="M1306.94 453.421L1306.94 428.223C1306.94 422.858 1303.93 417.861 1298.92 415.172L1283.4 406.749C1283.06 406.522 1282.62 406.522 1282.27 406.749L1250.97 423.594C1250.19 424.047 1250.19 425.01 1250.97 425.463L1305.22 454.313C1306 454.766 1306.94 454.242 1306.94 453.421Z" fill="#223462"/>
<path d="M1239.36 421.249L1239.36 396.051C1239.36 390.686 1236.35 385.689 1231.34 382.999L1215.82 374.577C1215.48 374.35 1215.03 374.35 1214.69 374.577L1183.39 391.422C1182.6 391.875 1182.6 392.838 1183.39 393.291L1237.63 422.141C1238.42 422.594 1239.36 422.07 1239.36 421.249Z" fill="#223462"/>
<path d="M1106.84 395.166L1106.84 421.015C1106.84 426.395 1103.82 431.321 1098.82 434.011L1046.49 462.181C1045.71 462.634 1044.76 462.11 1044.76 461.289L1044.76 436.417C1044.76 430.358 1048.38 424.682 1054.34 421.468L1105.11 394.275C1105.89 393.822 1106.84 394.345 1106.84 395.166Z" fill="#21315A"/>
<path d="M1106.84 493.636L1106.84 468.438C1106.84 463.073 1103.82 458.076 1098.82 455.387L1083.29 446.964C1082.95 446.737 1082.51 446.737 1082.17 446.964L1050.86 463.809C1050.08 464.262 1050.08 465.225 1050.86 465.678L1105.11 494.528C1105.89 494.981 1106.84 494.457 1106.84 493.636Z" fill="#223462"/>
<path d="M1113.32 495.244L1113.32 469.396C1113.32 464.016 1116.34 459.09 1121.34 456.4L1173.66 428.23C1174.45 427.777 1175.39 428.301 1175.39 429.122L1175.39 453.994C1175.39 460.053 1171.77 465.729 1165.82 468.943L1115.05 496.136C1114.26 496.589 1113.32 496.065 1113.32 495.244Z" fill="#21315A"/>
<path d="M981.768 439.403L981.768 464.601C981.768 469.966 984.784 474.963 989.79 477.652L1005.31 486.075C1005.65 486.302 1006.1 486.302 1006.44 486.075L1037.74 469.23C1038.53 468.777 1038.53 467.814 1037.74 467.361L983.496 438.511C982.714 438.058 981.768 438.582 981.768 439.403Z" fill="#223462"/>
<path d="M978.067 371.038L978.067 396.886C978.067 402.266 975.05 407.192 970.044 409.882L917.721 438.052C916.938 438.505 915.993 437.981 915.993 437.16L915.993 412.288C915.993 406.229 919.612 400.553 925.564 397.339L976.338 370.146C977.121 369.693 978.067 370.216 978.067 371.038Z" fill="#21315A"/>
<path d="M978.067 469.507L978.067 444.309C978.067 438.944 975.05 433.947 970.044 431.258L954.522 422.835C954.18 422.608 953.739 422.608 953.397 422.835L922.091 439.68C921.308 440.133 921.308 441.096 922.091 441.549L976.338 470.399C977.121 470.852 978.067 470.328 978.067 469.507Z" fill="#223462"/>
<path d="M1639.52 470.311L1639.52 444.462C1639.52 439.083 1642.54 434.157 1647.54 431.467L1699.87 403.297C1700.65 402.844 1701.6 403.367 1701.6 404.188L1701.6 429.061C1701.6 435.119 1697.98 440.796 1692.02 444.009L1641.25 471.203C1640.47 471.656 1639.52 471.132 1639.52 470.311Z" fill="#21315A"/>
<path d="M1639.52 371.842L1639.52 397.039C1639.52 402.404 1642.54 407.401 1647.54 410.091L1663.07 418.514C1663.41 418.74 1663.85 418.74 1664.19 418.514L1695.5 401.668C1696.28 401.215 1696.28 400.253 1695.5 399.8L1641.25 370.95C1640.47 370.497 1639.52 371.021 1639.52 371.842Z" fill="#223462"/>
<path d="M1701.6 287.39L1701.6 313.239C1701.6 318.618 1698.58 323.545 1693.57 326.234L1641.25 354.405C1640.47 354.858 1639.52 354.334 1639.52 353.513L1639.52 328.641C1639.52 322.582 1643.14 316.905 1649.09 313.692L1699.87 286.498C1700.65 286.045 1701.6 286.569 1701.6 287.39Z" fill="#21315A"/>
<path d="M1701.6 385.86L1701.6 360.662C1701.6 355.297 1698.58 350.3 1693.57 347.61L1678.05 339.187C1677.71 338.961 1677.27 338.961 1676.93 339.187L1645.62 356.033C1644.84 356.486 1644.84 357.449 1645.62 357.902L1699.87 386.751C1700.65 387.204 1701.6 386.681 1701.6 385.86Z" fill="#223462"/>
<path d="M1634.01 353.688L1634.01 328.49C1634.01 323.125 1631 318.128 1625.99 315.438L1610.47 307.015C1610.13 306.789 1609.69 306.789 1609.34 307.015L1578.04 323.861C1577.26 324.314 1577.26 325.277 1578.04 325.73L1632.29 354.579C1633.07 355.032 1634.01 354.509 1634.01 353.688Z" fill="#223462"/>
<path d="M1501.49 327.605L1501.49 353.454C1501.49 358.833 1498.47 363.76 1493.47 366.449L1441.14 394.62C1440.36 395.073 1439.42 394.549 1439.42 393.728L1439.42 368.856C1439.42 362.797 1443.04 357.12 1448.99 353.907L1499.76 326.713C1500.54 326.26 1501.49 326.784 1501.49 327.605Z" fill="#21315A"/>
<path d="M1501.49 426.075L1501.49 400.877C1501.49 395.512 1498.47 390.515 1493.47 387.825L1477.95 379.402C1477.6 379.176 1477.16 379.176 1476.82 379.402L1445.51 396.248C1444.73 396.701 1444.73 397.664 1445.51 398.117L1499.76 426.967C1500.54 427.42 1501.49 426.896 1501.49 426.075Z" fill="#223462"/>
<path d="M1507.97 427.683L1507.97 401.834C1507.97 396.455 1510.99 391.529 1515.99 388.839L1568.32 360.669C1569.1 360.216 1570.04 360.74 1570.04 361.561L1570.04 386.433C1570.04 392.491 1566.42 398.168 1560.47 401.381L1509.7 428.575C1508.92 429.028 1507.97 428.504 1507.97 427.683Z" fill="#21315A"/>
<path d="M1376.42 470.311L1376.42 444.462C1376.42 439.083 1379.44 434.157 1384.44 431.467L1436.77 403.297C1437.55 402.844 1438.49 403.367 1438.49 404.188L1438.49 429.061C1438.49 435.119 1434.87 440.796 1428.92 444.009L1378.15 471.203C1377.37 471.656 1376.42 471.132 1376.42 470.311Z" fill="#21315A"/>
<path d="M1376.42 371.842L1376.42 397.039C1376.42 402.404 1379.44 407.401 1384.44 410.091L1399.96 418.514C1400.31 418.74 1400.75 418.74 1401.09 418.514L1432.4 401.668C1433.18 401.215 1433.18 400.253 1432.4 399.8L1378.15 370.95C1377.37 370.497 1376.42 371.021 1376.42 371.842Z" fill="#223462"/>
<path d="M1442.2 502.483L1442.2 476.634C1442.2 471.255 1445.21 466.329 1450.22 463.639L1502.54 435.469C1503.32 435.016 1504.27 435.54 1504.27 436.361L1504.27 461.233C1504.27 467.291 1500.65 472.968 1494.7 476.181L1443.92 503.375C1443.14 503.828 1442.2 503.304 1442.2 502.483Z" fill="#21315A"/>
<path d="M1442.2 404.014L1442.2 429.211C1442.2 434.576 1445.21 439.573 1450.22 442.263L1465.74 450.686C1466.08 450.912 1466.52 450.912 1466.87 450.686L1498.17 433.84C1498.95 433.387 1498.95 432.425 1498.17 431.972L1443.92 403.122C1443.14 402.669 1442.2 403.193 1442.2 404.014Z" fill="#223462"/>
<path d="M1507.97 438.599L1507.97 463.796C1507.97 469.161 1510.99 474.158 1515.99 476.848L1531.52 485.271C1531.86 485.497 1532.3 485.497 1532.64 485.271L1563.95 468.425C1564.73 467.972 1564.73 467.01 1563.95 466.557L1509.7 437.707C1508.92 437.254 1507.97 437.778 1507.97 438.599Z" fill="#223462"/>
<path d="M1372.72 303.476L1372.72 329.325C1372.72 334.704 1369.7 339.631 1364.7 342.32L1312.37 370.491C1311.59 370.944 1310.64 370.42 1310.64 369.599L1310.64 344.727C1310.64 338.668 1314.26 332.991 1320.22 329.778L1370.99 302.584C1371.77 302.131 1372.72 302.655 1372.72 303.476Z" fill="#21315A"/>
<path d="M1372.72 401.946L1372.72 376.748C1372.72 371.383 1369.7 366.386 1364.7 363.696L1349.17 355.273C1348.83 355.047 1348.39 355.047 1348.05 355.273L1316.74 372.119C1315.96 372.572 1315.96 373.535 1316.74 373.988L1370.99 402.838C1371.77 403.291 1372.72 402.767 1372.72 401.946Z" fill="#223462"/>
<path d="M1179.09 386.682L1179.09 360.833C1179.09 355.454 1182.11 350.527 1187.12 347.838L1239.44 319.667C1240.22 319.214 1241.17 319.738 1241.17 320.559L1241.17 345.431C1241.17 351.49 1237.55 357.167 1231.6 360.38L1180.82 387.574C1180.04 388.027 1179.09 387.503 1179.09 386.682Z" fill="#21315A"/>
<path d="M1179.09 288.212L1179.09 313.41C1179.09 318.775 1182.11 323.772 1187.12 326.462L1202.64 334.885C1202.98 335.111 1203.42 335.111 1203.76 334.885L1235.07 318.039C1235.85 317.586 1235.85 316.623 1235.07 316.17L1180.82 287.32C1180.04 286.868 1179.09 287.391 1179.09 288.212Z" fill="#223462"/>
<path d="M978.066 252.001L978.066 277.85C978.066 283.229 975.05 288.155 970.044 290.845L917.721 319.015C916.938 319.468 915.992 318.945 915.992 318.124L915.992 293.252C915.992 287.193 919.612 281.516 925.564 278.303L976.338 251.109C977.121 250.656 978.066 251.18 978.066 252.001Z" fill="#21315A"/>
<path d="M978.066 350.47L978.066 325.273C978.066 319.908 975.05 314.911 970.044 312.221L954.522 303.798C954.179 303.572 953.739 303.572 953.397 303.798L922.091 320.644C921.308 321.097 921.308 322.059 922.091 322.512L976.338 351.362C977.121 351.815 978.066 351.292 978.066 350.47Z" fill="#223462"/>
<path d="M1179.09 251.541L1179.09 225.692C1179.09 220.313 1182.11 215.387 1187.12 212.697L1239.44 184.527C1240.22 184.074 1241.17 184.598 1241.17 185.419L1241.17 210.291C1241.17 216.349 1237.55 222.026 1231.6 225.239L1180.82 252.433C1180.04 252.886 1179.09 252.362 1179.09 251.541Z" fill="#21315A"/>
<path d="M1179.09 153.072L1179.09 178.269C1179.09 183.634 1182.11 188.632 1187.12 191.321L1202.64 199.744C1202.98 199.97 1203.42 199.97 1203.76 199.744L1235.07 182.898C1235.85 182.445 1235.85 181.483 1235.07 181.03L1180.82 152.18C1180.04 151.727 1179.09 152.251 1179.09 153.072Z" fill="#223462"/>
<path d="M1241.17 68.6202L1241.17 94.4691C1241.17 99.8484 1238.15 104.775 1233.15 107.464L1180.82 135.635C1180.04 136.088 1179.09 135.564 1179.09 134.743L1179.09 109.871C1179.09 103.812 1182.71 98.1355 1188.67 94.9221L1239.44 67.7284C1240.22 67.2754 1241.17 67.7992 1241.17 68.6202Z" fill="#21315A"/>
<path d="M1241.17 167.09L1241.17 141.892C1241.17 136.527 1238.15 131.53 1233.15 128.84L1217.62 120.417C1217.28 120.191 1216.84 120.191 1216.5 120.417L1185.19 137.263C1184.41 137.716 1184.41 138.679 1185.19 139.132L1239.44 167.982C1240.22 168.435 1241.17 167.911 1241.17 167.09Z" fill="#223462"/>
<path d="M846.563 354.492L846.563 329.294C846.563 323.929 843.546 318.932 838.541 316.242L823.018 307.82C822.676 307.593 822.235 307.593 821.893 307.82L790.587 324.665C789.804 325.118 789.804 326.081 790.587 326.534L844.834 355.384C845.617 355.837 846.563 355.313 846.563 354.492Z" fill="#223462"/>
<path d="M1173.59 134.918L1173.59 109.72C1173.59 104.355 1170.57 99.3579 1165.56 96.6683L1150.04 88.2454C1149.7 88.0189 1149.26 88.0189 1148.92 88.2454L1117.61 105.091C1116.83 105.544 1116.83 106.507 1117.61 106.96L1171.86 135.81C1172.64 136.263 1173.59 135.739 1173.59 134.918Z" fill="#223462"/>
<path d="M1041.06 108.835L1041.06 134.684C1041.06 140.063 1038.05 144.99 1033.04 147.679L980.717 175.85C979.934 176.303 978.989 175.779 978.989 174.958L978.989 150.086C978.989 144.027 982.609 138.351 988.56 135.137L1039.33 107.944C1040.12 107.491 1041.06 108.014 1041.06 108.835Z" fill="#21315A"/>
<path d="M1041.06 207.305L1041.06 182.107C1041.06 176.742 1038.05 171.745 1033.04 169.055L1017.52 160.633C1017.18 160.406 1016.74 160.406 1016.39 160.633L985.087 177.478C984.304 177.931 984.304 178.894 985.087 179.347L1039.33 208.197C1040.12 208.65 1041.06 208.126 1041.06 207.305Z" fill="#223462"/>
<path d="M1047.54 208.913L1047.54 183.064C1047.54 177.685 1050.56 172.759 1055.57 170.069L1107.89 141.899C1108.67 141.446 1109.62 141.97 1109.62 142.791L1109.62 167.663C1109.62 173.721 1106 179.398 1100.05 182.611L1049.27 209.805C1048.49 210.258 1047.54 209.734 1047.54 208.913Z" fill="#21315A"/>
<path d="M850.217 353.687L850.217 327.839C850.217 322.459 853.233 317.533 858.239 314.843L910.562 286.673C911.345 286.22 912.291 286.744 912.291 287.565L912.291 312.437C912.291 318.496 908.671 324.172 902.72 327.386L851.945 354.579C851.162 355.032 850.217 354.508 850.217 353.687Z" fill="#21315A"/>
<path d="M915.992 251.541L915.992 225.692C915.992 220.313 919.009 215.387 924.014 212.697L976.338 184.527C977.12 184.074 978.066 184.598 978.066 185.419L978.066 210.291C978.066 216.349 974.446 222.026 968.495 225.239L917.721 252.433C916.938 252.886 915.992 252.362 915.992 251.541Z" fill="#21315A"/>
<path d="M915.992 153.072L915.992 178.269C915.992 183.634 919.009 188.632 924.014 191.321L939.537 199.744C939.879 199.971 940.32 199.971 940.662 199.744L971.968 182.898C972.751 182.445 972.751 181.483 971.968 181.03L917.721 152.18C916.938 151.727 915.992 152.251 915.992 153.072Z" fill="#223462"/>
<path d="M1113.32 418.836L1113.32 392.987C1113.32 387.608 1116.33 382.681 1121.34 379.992L1173.66 351.821C1174.45 351.368 1175.39 351.892 1175.39 352.713L1175.39 377.585C1175.39 383.644 1171.77 389.321 1165.82 392.534L1115.05 419.728C1114.26 420.181 1113.32 419.657 1113.32 418.836Z" fill="#21315A"/>
<path d="M1113.32 320.366L1113.32 345.564C1113.32 350.929 1116.33 355.926 1121.34 358.616L1136.86 367.039C1137.21 367.265 1137.65 367.265 1137.99 367.039L1169.29 350.193C1170.08 349.74 1170.08 348.777 1169.29 348.324L1115.05 319.474C1114.26 319.021 1113.32 319.545 1113.32 320.366Z" fill="#223462"/>
<path d="M981.768 283.713L981.768 257.864C981.768 252.485 984.784 247.559 989.79 244.869L1042.11 216.699C1042.9 216.246 1043.84 216.77 1043.84 217.591L1043.84 242.463C1043.84 248.521 1040.22 254.198 1034.27 257.411L983.496 284.605C982.713 285.058 981.768 284.534 981.768 283.713Z" fill="#21315A"/>
<path d="M981.768 185.244L981.768 210.441C981.768 215.807 984.784 220.804 989.79 223.493L1005.31 231.916C1005.65 232.143 1006.09 232.143 1006.44 231.916L1037.74 215.07C1038.53 214.617 1038.53 213.655 1037.74 213.202L983.496 184.352C982.713 183.899 981.768 184.423 981.768 185.244Z" fill="#223462"/>
<path d="M1047.54 318.298L1047.54 292.449C1047.54 287.07 1050.56 282.144 1055.57 279.454L1107.89 251.284C1108.67 250.831 1109.62 251.355 1109.62 252.176L1109.62 277.048C1109.62 283.106 1106 288.783 1100.05 291.996L1049.27 319.19C1048.49 319.643 1047.54 319.119 1047.54 318.298Z" fill="#21315A"/>
<path d="M1047.54 219.829L1047.54 245.026C1047.54 250.391 1050.56 255.389 1055.57 258.078L1071.09 266.501C1071.43 266.727 1071.87 266.727 1072.21 266.501L1103.52 249.655C1104.3 249.202 1104.3 248.24 1103.52 247.787L1049.27 218.937C1048.49 218.484 1047.54 219.008 1047.54 219.829Z" fill="#223462"/>
<path d="M1175.39 219.829L1175.39 245.678C1175.39 251.057 1172.38 255.983 1167.37 258.673L1115.05 286.843C1114.26 287.296 1113.32 286.773 1113.32 285.951L1113.32 261.079C1113.32 255.021 1116.94 249.344 1122.89 246.131L1173.66 218.937C1174.45 218.484 1175.39 219.008 1175.39 219.829Z" fill="#223462"/>
<path d="M1175.39 318.298L1175.39 293.101C1175.39 287.736 1172.38 282.739 1167.37 280.049L1151.85 271.626C1151.51 271.4 1151.07 271.4 1150.72 271.626L1119.42 288.472C1118.63 288.925 1118.63 289.887 1119.42 290.34L1173.66 319.19C1174.45 319.643 1175.39 319.119 1175.39 318.298Z" fill="#223462"/>
<path d="M1043.84 288.194L1043.84 314.043C1043.84 319.423 1040.83 324.349 1035.82 327.038L983.496 355.209C982.714 355.662 981.768 355.138 981.768 354.317L981.768 329.445C981.768 323.386 985.388 317.71 991.339 314.496L1042.11 287.303C1042.9 286.85 1043.84 287.373 1043.84 288.194Z" fill="#223462"/>
<path d="M1043.84 386.664L1043.84 361.466C1043.84 356.101 1040.83 351.104 1035.82 348.414L1020.3 339.992C1019.95 339.765 1019.51 339.765 1019.17 339.992L987.866 356.837C987.084 357.29 987.084 358.253 987.866 358.706L1042.11 387.556C1042.9 388.009 1043.84 387.485 1043.84 386.664Z" fill="#223462"/>
<path d="M912.291 84.7063L912.291 110.555C912.291 115.934 909.275 120.861 904.269 123.55L851.945 151.721C851.163 152.174 850.217 151.65 850.217 150.829L850.217 125.957C850.217 119.898 853.837 114.222 859.788 111.008L910.563 83.8145C911.345 83.3615 912.291 83.8853 912.291 84.7063Z" fill="#21315A"/>
<path d="M912.291 183.176L912.291 157.978C912.291 152.613 909.275 147.616 904.269 144.926L888.746 136.503C888.404 136.277 887.964 136.277 887.621 136.503L856.315 153.349C855.533 153.802 855.533 154.765 856.315 155.218L910.563 184.068C911.345 184.521 912.291 183.997 912.291 183.176Z" fill="#223462"/>
<path d="M1572.82 319.121L1572.82 293.272C1572.82 287.893 1575.84 282.966 1580.84 280.277L1633.16 252.106C1633.95 251.653 1634.89 252.177 1634.89 252.998L1634.89 277.87C1634.89 283.929 1631.27 289.605 1625.32 292.819L1574.55 320.013C1573.76 320.466 1572.82 319.942 1572.82 319.121Z" fill="#21315A"/>
<path d="M1572.82 220.651L1572.82 245.849C1572.82 251.214 1575.84 256.211 1580.84 258.901L1596.36 267.324C1596.71 267.55 1597.15 267.55 1597.49 267.324L1628.8 250.478C1629.58 250.025 1629.58 249.062 1628.8 248.609L1574.55 219.759C1573.77 219.306 1572.82 219.83 1572.82 220.651Z" fill="#223462"/>
<path d="M1371.79 184.44L1371.79 210.289C1371.79 215.668 1368.78 220.594 1363.77 223.284L1311.45 251.454C1310.66 251.907 1309.72 251.383 1309.72 250.562L1309.72 225.69C1309.72 219.632 1313.34 213.955 1319.29 210.742L1370.06 183.548C1370.85 183.095 1371.79 183.619 1371.79 184.44Z" fill="#21315A"/>
<path d="M1371.79 282.909L1371.79 257.712C1371.79 252.346 1368.78 247.349 1363.77 244.66L1348.25 236.237C1347.9 236.01 1347.46 236.01 1347.12 236.237L1315.82 253.083C1315.03 253.536 1315.03 254.498 1315.82 254.951L1370.06 283.801C1370.85 284.254 1371.79 283.73 1371.79 282.909Z" fill="#223462"/>
<path d="M1572.82 183.98L1572.82 158.131C1572.82 152.752 1575.84 147.826 1580.84 145.136L1633.16 116.966C1633.95 116.513 1634.89 117.036 1634.89 117.857L1634.89 142.729C1634.89 148.788 1631.27 154.465 1625.32 157.678L1574.55 184.872C1573.76 185.325 1572.82 184.801 1572.82 183.98Z" fill="#21315A"/>
<path d="M1572.82 85.5105L1572.82 110.708C1572.82 116.073 1575.84 121.07 1580.84 123.76L1596.36 132.183C1596.71 132.409 1597.15 132.409 1597.49 132.183L1628.8 115.337C1629.58 114.884 1629.58 113.922 1628.8 113.469L1574.55 84.6187C1573.77 84.1657 1572.82 84.6895 1572.82 85.5105Z" fill="#223462"/>
<path d="M1634.89 1.05915L1634.89 26.908C1634.89 32.2873 1631.88 37.2135 1626.87 39.9032L1574.55 68.0736C1573.77 68.5266 1572.82 68.0028 1572.82 67.1818L1572.82 42.3097C1572.82 36.2509 1576.44 30.5744 1582.39 27.361L1633.17 0.167325C1633.95 -0.285666 1634.89 0.238105 1634.89 1.05915Z" fill="#21315A"/>
<path d="M1634.89 99.5287L1634.89 74.331C1634.89 68.9659 1631.88 63.9688 1626.87 61.2792L1611.35 52.8564C1611.01 52.6299 1610.57 52.6299 1610.22 52.8564L1578.92 69.702C1578.14 70.155 1578.14 71.1176 1578.92 71.5706L1633.17 100.421C1633.95 100.873 1634.89 100.35 1634.89 99.5287Z" fill="#223462"/>
<path d="M1240.29 286.931L1240.29 261.733C1240.29 256.368 1237.27 251.371 1232.27 248.681L1216.74 240.258C1216.4 240.032 1215.96 240.032 1215.62 240.258L1184.31 257.104C1183.53 257.557 1183.53 258.52 1184.31 258.973L1238.56 287.823C1239.34 288.276 1240.29 287.752 1240.29 286.931Z" fill="#223462"/>
<path d="M1567.31 67.3566L1567.31 42.1589C1567.31 36.7938 1564.3 31.7967 1559.29 29.1071L1543.77 20.6843C1543.43 20.4578 1542.98 20.4578 1542.64 20.6843L1511.34 37.5299C1510.55 37.9829 1510.55 38.9455 1511.34 39.3985L1565.58 68.2484C1566.37 68.7014 1567.31 68.1776 1567.31 67.3566Z" fill="#223462"/>
<path d="M1434.79 41.2742L1434.79 67.123C1434.79 72.5023 1431.77 77.4286 1426.77 80.1182L1374.44 108.289C1373.66 108.742 1372.71 108.218 1372.71 107.397L1372.71 82.5247C1372.71 76.466 1376.33 70.7894 1382.29 67.576L1433.06 40.3824C1433.84 39.9294 1434.79 40.4531 1434.79 41.2742Z" fill="#21315A"/>
<path d="M1434.79 139.744L1434.79 114.546C1434.79 109.181 1431.77 104.184 1426.77 101.494L1411.24 93.0714C1410.9 92.8449 1410.46 92.8449 1410.12 93.0714L1378.81 109.917C1378.03 110.37 1378.03 111.333 1378.81 111.786L1433.06 140.636C1433.84 141.089 1434.79 140.565 1434.79 139.744Z" fill="#223462"/>
<path d="M1441.27 141.352L1441.27 115.503C1441.27 110.124 1444.29 105.198 1449.29 102.508L1501.61 74.3377C1502.4 73.8847 1503.34 74.4085 1503.34 75.2295L1503.34 100.102C1503.34 106.16 1499.72 111.837 1493.77 115.05L1443 142.244C1442.21 142.697 1441.27 142.173 1441.27 141.352Z" fill="#21315A"/>
<path d="M1243.94 286.126L1243.94 260.277C1243.94 254.898 1246.96 249.972 1251.96 247.282L1304.29 219.112C1305.07 218.659 1306.02 219.183 1306.02 220.004L1306.02 244.876C1306.02 250.934 1302.4 256.611 1296.45 259.824L1245.67 287.018C1244.89 287.471 1243.94 286.947 1243.94 286.126Z" fill="#21315A"/>
<path d="M1309.72 183.98L1309.72 158.131C1309.72 152.752 1312.73 147.826 1317.74 145.136L1370.06 116.966C1370.85 116.513 1371.79 117.036 1371.79 117.857L1371.79 142.73C1371.79 148.788 1368.17 154.465 1362.22 157.678L1311.45 184.872C1310.66 185.325 1309.72 184.801 1309.72 183.98Z" fill="#21315A"/>
<path d="M1309.72 85.5106L1309.72 110.708C1309.72 116.073 1312.73 121.07 1317.74 123.76L1333.26 132.183C1333.6 132.409 1334.05 132.409 1334.39 132.183L1365.69 115.337C1366.48 114.884 1366.48 113.922 1365.69 113.469L1311.45 84.6187C1310.66 84.1657 1309.72 84.6895 1309.72 85.5106Z" fill="#223462"/>
<path d="M1507.04 351.275L1507.04 325.426C1507.04 320.047 1510.06 315.12 1515.07 312.431L1567.39 284.26C1568.17 283.807 1569.12 284.331 1569.12 285.152L1569.12 310.024C1569.12 316.083 1565.5 321.759 1559.55 324.973L1508.77 352.167C1507.99 352.619 1507.04 352.096 1507.04 351.275Z" fill="#21315A"/>
<path d="M1507.04 252.805L1507.04 278.003C1507.04 283.368 1510.06 288.365 1515.07 291.055L1530.59 299.477C1530.93 299.704 1531.37 299.704 1531.71 299.477L1563.02 282.632C1563.8 282.179 1563.8 281.216 1563.02 280.763L1508.77 251.913C1507.99 251.46 1507.04 251.984 1507.04 252.805Z" fill="#223462"/>
<path d="M1375.49 216.152L1375.49 190.303C1375.49 184.924 1378.51 179.998 1383.52 177.308L1435.84 149.138C1436.62 148.685 1437.57 149.208 1437.57 150.029L1437.57 174.902C1437.57 180.96 1433.95 186.637 1428 189.85L1377.22 217.044C1376.44 217.497 1375.49 216.973 1375.49 216.152Z" fill="#21315A"/>
<path d="M1375.49 117.683L1375.49 142.88C1375.49 148.245 1378.51 153.242 1383.52 155.932L1399.04 164.355C1399.38 164.581 1399.82 164.581 1400.16 164.355L1431.47 147.509C1432.25 147.056 1432.25 146.094 1431.47 145.641L1377.22 116.791C1376.44 116.338 1375.49 116.862 1375.49 117.683Z" fill="#223462"/>
<path d="M1441.27 250.737L1441.27 224.888C1441.27 219.509 1444.28 214.583 1449.29 211.893L1501.61 183.723C1502.4 183.27 1503.34 183.793 1503.34 184.614L1503.34 209.486C1503.34 215.545 1499.72 221.222 1493.77 224.435L1443 251.629C1442.21 252.082 1441.27 251.558 1441.27 250.737Z" fill="#21315A"/>
<path d="M1441.27 152.268L1441.27 177.465C1441.27 182.83 1444.29 187.827 1449.29 190.517L1464.81 198.94C1465.16 199.166 1465.6 199.166 1465.94 198.94L1497.24 182.094C1498.03 181.641 1498.03 180.679 1497.24 180.226L1443 151.376C1442.21 150.923 1441.27 151.446 1441.27 152.268Z" fill="#223462"/>
<path d="M1569.12 152.268L1569.12 178.117C1569.12 183.496 1566.1 188.422 1561.1 191.112L1508.77 219.282C1507.99 219.735 1507.04 219.211 1507.04 218.39L1507.04 193.518C1507.04 187.46 1510.66 181.783 1516.62 178.57L1567.39 151.376C1568.17 150.923 1569.12 151.447 1569.12 152.268Z" fill="#223462"/>
<path d="M1569.12 250.737L1569.12 225.54C1569.12 220.174 1566.1 215.177 1561.1 212.488L1545.57 204.065C1545.23 203.838 1544.79 203.838 1544.45 204.065L1513.14 220.911C1512.36 221.364 1512.36 222.326 1513.14 222.779L1567.39 251.629C1568.17 252.082 1569.12 251.558 1569.12 250.737Z" fill="#223462"/>
<path d="M1437.57 220.633L1437.57 246.482C1437.57 251.861 1434.55 256.788 1429.55 259.477L1377.22 287.648C1376.44 288.101 1375.49 287.577 1375.49 286.756L1375.49 261.884C1375.49 255.825 1379.11 250.149 1385.06 246.935L1435.84 219.741C1436.62 219.288 1437.57 219.812 1437.57 220.633Z" fill="#223462"/>
<path d="M1437.57 319.103L1437.57 293.905C1437.57 288.54 1434.55 283.543 1429.55 280.853L1414.02 272.431C1413.68 272.204 1413.24 272.204 1412.9 272.431L1381.59 289.276C1380.81 289.729 1380.81 290.692 1381.59 291.145L1435.84 319.995C1436.62 320.448 1437.57 319.924 1437.57 319.103Z" fill="#223462"/>
<path d="M1306.02 17.1452L1306.02 42.994C1306.02 48.3733 1303 53.2995 1297.99 55.9892L1245.67 84.1596C1244.89 84.6126 1243.94 84.0888 1243.94 83.2678L1243.94 58.3957C1243.94 52.3369 1247.56 46.6604 1253.51 43.447L1304.29 16.2533C1305.07 15.8003 1306.02 16.3241 1306.02 17.1452Z" fill="#21315A"/>
<path d="M1306.02 115.615L1306.02 90.417C1306.02 85.0519 1303 80.0548 1297.99 77.3652L1282.47 68.9424C1282.13 68.7159 1281.69 68.7159 1281.35 68.9424L1250.04 85.788C1249.26 86.241 1249.26 87.2036 1250.04 87.6566L1304.29 116.507C1305.07 116.96 1306.02 116.436 1306.02 115.615Z" fill="#223462"/>
<path d="M516.943 475.63L516.943 501.478C516.943 506.858 513.927 511.784 508.921 514.474L456.598 542.644C455.815 543.097 454.869 542.573 454.869 541.752L454.869 516.88C454.869 510.821 458.489 505.145 464.441 501.931L515.215 474.738C515.998 474.285 516.943 474.809 516.943 475.63Z" fill="#21315A"/>
<path d="M449.362 541.927L449.362 516.729C449.362 511.364 446.346 506.367 441.34 503.678L425.818 495.255C425.475 495.028 425.035 495.028 424.693 495.255L393.386 512.1C392.604 512.553 392.604 513.516 393.386 513.969L447.634 542.819C448.417 543.272 449.362 542.748 449.362 541.927Z" fill="#223462"/>
<path d="M911.596 408.068L911.596 433.917C911.596 439.296 908.579 444.223 903.574 446.912L851.25 475.083C850.468 475.536 849.522 475.012 849.522 474.191L849.522 449.319C849.522 443.26 853.142 437.584 859.093 434.37L909.868 407.176C910.65 406.723 911.596 407.247 911.596 408.068Z" fill="#21315A"/>
<path d="M844.015 474.366L844.015 449.168C844.015 443.803 840.998 438.806 835.993 436.116L820.47 427.693C820.128 427.467 819.688 427.467 819.345 427.693L788.039 444.539C787.256 444.992 787.256 445.955 788.039 446.408L842.287 475.258C843.069 475.711 844.015 475.187 844.015 474.366Z" fill="#223462"/>
<path d="M711.491 448.283L711.491 474.132C711.491 479.512 708.474 484.438 703.469 487.127L651.145 515.298C650.362 515.751 649.417 515.227 649.417 514.406L649.417 489.534C649.417 483.475 653.037 477.799 658.988 474.585L709.762 447.392C710.545 446.939 711.491 447.462 711.491 448.283Z" fill="#21315A"/>
<path d="M711.491 546.753L711.491 521.555C711.491 516.19 708.474 511.193 703.469 508.503L687.946 500.081C687.604 499.854 687.163 499.854 686.821 500.081L655.515 516.926C654.732 517.379 654.732 518.342 655.515 518.795L709.762 547.645C710.545 548.098 711.491 547.574 711.491 546.753Z" fill="#223462"/>
<path d="M717.971 548.361L717.971 522.512C717.971 517.133 720.987 512.207 725.993 509.517L778.317 481.347C779.099 480.894 780.045 481.418 780.045 482.239L780.045 507.111C780.045 513.17 776.425 518.846 770.474 522.059L719.699 549.253C718.917 549.706 717.971 549.182 717.971 548.361Z" fill="#21315A"/>
<path d="M586.42 492.52L586.42 517.717C586.42 523.083 589.436 528.08 594.442 530.769L609.965 539.192C610.307 539.419 610.747 539.419 611.09 539.192L642.396 522.346C643.178 521.893 643.178 520.931 642.396 520.478L588.148 491.628C587.366 491.175 586.42 491.699 586.42 492.52Z" fill="#223462"/>
<path d="M582.719 424.154L582.719 450.003C582.719 455.382 579.702 460.309 574.697 462.998L522.373 491.169C521.591 491.622 520.645 491.098 520.645 490.277L520.645 465.405C520.645 459.346 524.265 453.67 530.216 450.456L580.99 423.263C581.773 422.81 582.719 423.333 582.719 424.154Z" fill="#21315A"/>
<path d="M582.719 522.624L582.719 497.426C582.719 492.061 579.702 487.064 574.697 484.374L559.174 475.952C558.832 475.725 558.391 475.725 558.049 475.952L526.743 492.797C525.96 493.25 525.96 494.213 526.743 494.666L580.99 523.516C581.773 523.969 582.719 523.445 582.719 522.624Z" fill="#223462"/>
<path d="M389.094 507.36L389.094 481.511C389.094 476.132 392.11 471.206 397.116 468.516L449.439 440.345C450.222 439.893 451.168 440.416 451.168 441.237L451.168 466.109C451.168 472.168 447.548 477.845 441.597 481.058L390.822 508.252C390.039 508.705 389.094 508.181 389.094 507.36Z" fill="#21315A"/>
<path d="M389.094 408.89L389.094 434.088C389.094 439.453 392.11 444.45 397.116 447.14L412.638 455.563C412.981 455.789 413.421 455.789 413.764 455.563L445.07 438.717C445.852 438.264 445.852 437.302 445.07 436.849L390.822 407.999C390.039 407.546 389.094 408.069 389.094 408.89Z" fill="#223462"/>
<path d="M188.066 372.679L188.066 398.528C188.066 403.907 185.05 408.833 180.044 411.523L127.721 439.693C126.938 440.146 125.992 439.623 125.992 438.802L125.992 413.93C125.992 407.871 129.612 402.194 135.564 398.981L186.338 371.787C187.121 371.334 188.066 371.858 188.066 372.679Z" fill="#21315A"/>
<path d="M188.066 471.149L188.066 445.951C188.066 440.586 185.05 435.589 180.044 432.899L164.522 424.476C164.179 424.25 163.739 424.25 163.397 424.476L132.091 441.322C131.308 441.775 131.308 442.737 132.091 443.19L186.338 472.04C187.121 472.493 188.066 471.97 188.066 471.149Z" fill="#223462"/>
<path d="M389.094 372.219L389.094 346.37C389.094 340.991 392.11 336.065 397.116 333.375L449.439 305.205C450.222 304.752 451.168 305.276 451.168 306.097L451.168 330.969C451.168 337.028 447.548 342.704 441.597 345.917L390.822 373.111C390.039 373.564 389.094 373.04 389.094 372.219Z" fill="#21315A"/>
<path d="M389.094 273.75L389.094 298.947C389.094 304.313 392.11 309.31 397.116 311.999L412.638 320.422C412.981 320.649 413.421 320.649 413.764 320.422L445.07 303.576C445.852 303.123 445.852 302.161 445.07 301.708L390.822 272.858C390.039 272.405 389.094 272.929 389.094 273.75Z" fill="#223462"/>
<path d="M451.168 189.298L451.168 215.147C451.168 220.526 448.152 225.453 443.146 228.142L390.822 256.313C390.04 256.766 389.094 256.242 389.094 255.421L389.094 230.549C389.094 224.49 392.714 218.814 398.665 215.6L449.44 188.407C450.222 187.954 451.168 188.477 451.168 189.298Z" fill="#21315A"/>
<path d="M451.168 287.768L451.168 262.57C451.168 257.205 448.152 252.208 443.146 249.518L427.623 241.096C427.281 240.869 426.841 240.869 426.498 241.096L395.192 257.941C394.41 258.394 394.41 259.357 395.192 259.81L449.44 288.66C450.222 289.113 451.168 288.589 451.168 287.768Z" fill="#223462"/>
<path d="M56.563 475.17L56.563 449.972C56.563 444.607 53.5465 439.61 48.5408 436.921L33.0183 428.498C32.6758 428.271 32.2356 428.271 31.8932 428.498L0.587183 445.343C-0.195468 445.796 -0.195468 446.759 0.587183 447.212L54.8346 476.062C55.6173 476.515 56.563 475.991 56.563 475.17Z" fill="#223462"/>
<path d="M383.587 255.596L383.587 230.398C383.587 225.033 380.57 220.036 375.565 217.346L360.042 208.924C359.7 208.697 359.26 208.697 358.917 208.924L327.611 225.769C326.828 226.222 326.828 227.185 327.611 227.638L381.859 256.488C382.641 256.941 383.587 256.417 383.587 255.596Z" fill="#223462"/>
<path d="M251.063 229.513L251.063 255.362C251.063 260.742 248.046 265.668 243.04 268.357L190.717 296.528C189.934 296.981 188.989 296.457 188.989 295.636L188.989 270.764C188.989 264.705 192.608 259.029 198.56 255.815L249.334 228.622C250.117 228.169 251.063 228.692 251.063 229.513Z" fill="#21315A"/>
<path d="M251.063 327.983L251.063 302.785C251.063 297.42 248.046 292.423 243.04 289.733L227.518 281.311C227.175 281.084 226.735 281.084 226.393 281.311L195.087 298.156C194.304 298.609 194.304 299.572 195.087 300.025L249.334 328.875C250.117 329.328 251.063 328.804 251.063 327.983Z" fill="#223462"/>
<path d="M257.543 329.591L257.543 303.743C257.543 298.363 260.559 293.437 265.565 290.747L317.889 262.577C318.671 262.124 319.617 262.648 319.617 263.469L319.617 288.341C319.617 294.4 315.997 300.076 310.046 303.29L259.271 330.483C258.489 330.936 257.543 330.412 257.543 329.591Z" fill="#21315A"/>
<path d="M60.2168 474.366L60.2168 448.517C60.2168 443.137 63.2333 438.211 68.239 435.521L120.562 407.351C121.345 406.898 122.291 407.422 122.291 408.243L122.291 433.115C122.291 439.174 118.671 444.85 112.72 448.064L61.9452 475.257C61.1625 475.71 60.2168 475.187 60.2168 474.366Z" fill="#21315A"/>
<path d="M125.992 372.219L125.992 346.37C125.992 340.991 129.009 336.065 134.014 333.375L186.338 305.205C187.12 304.752 188.066 305.276 188.066 306.097L188.066 330.969C188.066 337.028 184.446 342.704 178.495 345.917L127.721 373.111C126.938 373.564 125.992 373.04 125.992 372.219Z" fill="#21315A"/>
<path d="M125.992 273.75L125.992 298.947C125.992 304.313 129.009 309.31 134.014 311.999L149.537 320.422C149.879 320.649 150.32 320.649 150.662 320.422L181.968 303.576C182.751 303.123 182.751 302.161 181.968 301.708L127.721 272.858C126.938 272.405 125.992 272.929 125.992 273.75Z" fill="#223462"/>
<path d="M323.318 539.514L323.318 513.665C323.318 508.286 326.335 503.36 331.341 500.67L383.664 472.499C384.447 472.046 385.392 472.57 385.392 473.391L385.392 498.263C385.392 504.322 381.773 509.999 375.821 513.212L325.047 540.406C324.264 540.859 323.318 540.335 323.318 539.514Z" fill="#21315A"/>
<path d="M323.318 441.044L323.318 466.242C323.318 471.607 326.335 476.604 331.341 479.294L346.863 487.717C347.206 487.943 347.646 487.943 347.988 487.717L379.294 470.871C380.077 470.418 380.077 469.455 379.294 469.002L325.047 440.153C324.264 439.7 323.318 440.223 323.318 441.044Z" fill="#223462"/>
<path d="M191.768 404.391L191.768 378.543C191.768 373.163 194.784 368.237 199.79 365.547L252.113 337.377C252.896 336.924 253.842 337.448 253.842 338.269L253.842 363.141C253.842 369.2 250.222 374.876 244.27 378.09L193.496 405.283C192.713 405.736 191.768 405.212 191.768 404.391Z" fill="#21315A"/>
<path d="M191.768 305.922L191.768 331.12C191.768 336.485 194.784 341.482 199.79 344.171L215.312 352.594C215.655 352.821 216.095 352.821 216.437 352.594L247.743 335.749C248.526 335.296 248.526 334.333 247.743 333.88L193.496 305.03C192.713 304.577 191.768 305.101 191.768 305.922Z" fill="#223462"/>
<path d="M257.543 438.976L257.543 413.127C257.543 407.748 260.559 402.822 265.565 400.132L317.889 371.962C318.671 371.509 319.617 372.033 319.617 372.854L319.617 397.726C319.617 403.785 315.997 409.461 310.046 412.674L259.271 439.868C258.489 440.321 257.543 439.797 257.543 438.976Z" fill="#21315A"/>
<path d="M257.543 340.507L257.543 365.704C257.543 371.07 260.559 376.067 265.565 378.756L281.088 387.179C281.43 387.406 281.87 387.406 282.213 387.179L313.519 370.333C314.301 369.88 314.301 368.918 313.519 368.465L259.271 339.615C258.489 339.162 257.543 339.686 257.543 340.507Z" fill="#223462"/>
<path d="M385.393 340.507L385.393 366.356C385.393 371.735 382.376 376.661 377.37 379.351L325.047 407.521C324.264 407.974 323.319 407.451 323.319 406.63L323.319 381.758C323.319 375.699 326.938 370.022 332.89 366.809L383.664 339.615C384.447 339.162 385.393 339.686 385.393 340.507Z" fill="#223462"/>
<path d="M385.393 438.976L385.393 413.779C385.393 408.414 382.376 403.417 377.37 400.727L361.848 392.304C361.505 392.078 361.065 392.078 360.723 392.304L329.417 409.15C328.634 409.603 328.634 410.565 329.417 411.018L383.664 439.868C384.447 440.321 385.393 439.798 385.393 438.976Z" fill="#223462"/>
<path d="M253.842 408.873L253.842 434.721C253.842 440.101 250.825 445.027 245.82 447.717L193.496 475.887C192.714 476.34 191.768 475.816 191.768 474.995L191.768 450.123C191.768 444.064 195.388 438.388 201.339 435.174L252.113 407.981C252.896 407.528 253.842 408.052 253.842 408.873Z" fill="#223462"/>
<path d="M253.842 507.342L253.842 482.144C253.842 476.779 250.825 471.782 245.82 469.093L230.297 460.67C229.955 460.443 229.514 460.443 229.172 460.67L197.866 477.515C197.083 477.968 197.083 478.931 197.866 479.384L252.113 508.234C252.896 508.687 253.842 508.163 253.842 507.342Z" fill="#223462"/>
<path d="M122.291 205.384L122.291 231.233C122.291 236.613 119.275 241.539 114.269 244.228L61.9454 272.399C61.1628 272.852 60.2171 272.328 60.2171 271.507L60.217 246.635C60.217 240.576 63.8368 234.9 69.7882 231.686L120.563 204.493C121.345 204.04 122.291 204.563 122.291 205.384Z" fill="#21315A"/>
<path d="M122.291 303.854L122.291 278.656C122.291 273.291 119.275 268.294 114.269 265.604L98.7463 257.182C98.4039 256.955 97.9636 256.955 97.6212 257.182L66.3152 274.027C65.5326 274.48 65.5326 275.443 66.3152 275.896L120.563 304.746C121.345 305.199 122.291 304.675 122.291 303.854Z" fill="#223462"/>
<path d="M782.819 439.799L782.819 413.95C782.819 408.571 785.836 403.644 790.842 400.955L843.165 372.784C843.948 372.331 844.893 372.855 844.893 373.676L844.893 398.548C844.893 404.607 841.274 410.284 835.322 413.497L784.548 440.691C783.765 441.144 782.819 440.62 782.819 439.799Z" fill="#21315A"/>
<path d="M782.82 341.329L782.82 366.527C782.82 371.892 785.836 376.889 790.842 379.579L806.364 388.002C806.707 388.228 807.147 388.228 807.489 388.002L838.795 371.156C839.578 370.703 839.578 369.74 838.795 369.287L784.548 340.438C783.765 339.985 782.82 340.508 782.82 341.329Z" fill="#223462"/>
<path d="M581.792 305.118L581.792 330.967C581.792 336.346 578.776 341.272 573.77 343.962L521.446 372.132C520.664 372.585 519.718 372.062 519.718 371.241L519.718 346.368C519.718 340.31 523.338 334.633 529.289 331.42L580.064 304.226C580.846 303.773 581.792 304.297 581.792 305.118Z" fill="#21315A"/>
<path d="M581.792 403.587L581.792 378.39C581.792 373.025 578.776 368.028 573.77 365.338L558.247 356.915C557.905 356.689 557.465 356.689 557.122 356.915L525.816 373.761C525.034 374.214 525.034 375.176 525.816 375.629L580.064 404.479C580.846 404.932 581.792 404.408 581.792 403.587Z" fill="#223462"/>
<path d="M782.819 304.658L782.819 278.809C782.819 273.43 785.836 268.504 790.842 265.814L843.165 237.644C843.948 237.191 844.893 237.714 844.893 238.536L844.893 263.408C844.893 269.466 841.274 275.143 835.322 278.356L784.548 305.55C783.765 306.003 782.819 305.479 782.819 304.658Z" fill="#21315A"/>
<path d="M782.819 206.189L782.819 231.386C782.819 236.751 785.836 241.749 790.842 244.438L806.364 252.861C806.706 253.087 807.147 253.087 807.489 252.861L838.795 236.015C839.578 235.562 839.578 234.6 838.795 234.147L784.548 205.297C783.765 204.844 782.819 205.368 782.819 206.189Z" fill="#223462"/>
<path d="M844.894 121.737L844.894 147.586C844.894 152.965 841.877 157.892 836.872 160.581L784.548 188.752C783.766 189.205 782.82 188.681 782.82 187.86L782.82 162.988C782.82 156.929 786.44 151.252 792.391 148.039L843.165 120.845C843.948 120.392 844.894 120.916 844.894 121.737Z" fill="#21315A"/>
<path d="M844.894 220.207L844.894 195.009C844.894 189.644 841.877 184.647 836.872 181.957L821.349 173.534C821.007 173.308 820.566 173.308 820.224 173.534L788.918 190.38C788.135 190.833 788.135 191.796 788.918 192.249L843.165 221.099C843.948 221.552 844.894 221.028 844.894 220.207Z" fill="#223462"/>
<path d="M450.289 407.609L450.289 382.411C450.289 377.046 447.272 372.049 442.266 369.359L426.744 360.937C426.401 360.71 425.961 360.71 425.619 360.937L394.313 377.782C393.53 378.235 393.53 379.198 394.313 379.651L448.56 408.501C449.343 408.954 450.289 408.43 450.289 407.609Z" fill="#223462"/>
<path d="M777.313 188.035L777.313 162.837C777.313 157.472 774.296 152.475 769.29 149.785L753.768 141.362C753.425 141.136 752.985 141.136 752.643 141.362L721.337 158.208C720.554 158.661 720.554 159.624 721.337 160.077L775.584 188.927C776.367 189.38 777.313 188.856 777.313 188.035Z" fill="#223462"/>
<path d="M644.788 161.952L644.788 187.801C644.788 193.18 641.772 198.107 636.766 200.796L584.443 228.967C583.66 229.42 582.714 228.896 582.714 228.075L582.714 203.203C582.714 197.144 586.334 191.468 592.286 188.254L643.06 161.06C643.843 160.607 644.788 161.131 644.788 161.952Z" fill="#21315A"/>
<path d="M644.788 260.422L644.788 235.224C644.788 229.859 641.772 224.862 636.766 222.172L621.244 213.749C620.901 213.523 620.461 213.523 620.119 213.749L588.813 230.595C588.03 231.048 588.03 232.011 588.813 232.464L643.06 261.314C643.843 261.767 644.788 261.243 644.788 260.422Z" fill="#223462"/>
<path d="M651.269 262.03L651.269 236.181C651.269 230.802 654.285 225.876 659.291 223.186L711.614 195.016C712.397 194.563 713.343 195.087 713.343 195.908L713.343 220.78C713.343 226.838 709.723 232.515 703.772 235.728L652.997 262.922C652.215 263.375 651.269 262.851 651.269 262.03Z" fill="#21315A"/>
<path d="M453.942 406.804L453.942 380.956C453.942 375.576 456.959 370.65 461.965 367.96L514.288 339.79C515.071 339.337 516.016 339.861 516.016 340.682L516.016 365.554C516.016 371.613 512.397 377.289 506.445 380.503L455.671 407.696C454.888 408.149 453.942 407.625 453.942 406.804Z" fill="#21315A"/>
<path d="M519.718 304.658L519.718 278.809C519.718 273.43 522.734 268.504 527.74 265.814L580.063 237.644C580.846 237.191 581.792 237.714 581.792 238.536L581.792 263.408C581.792 269.466 578.172 275.143 572.221 278.356L521.446 305.55C520.663 306.003 519.718 305.479 519.718 304.658Z" fill="#21315A"/>
<path d="M519.718 206.189L519.718 231.386C519.718 236.751 522.734 241.748 527.74 244.438L543.263 252.861C543.605 253.087 544.045 253.087 544.388 252.861L575.694 236.015C576.476 235.562 576.476 234.6 575.694 234.147L521.446 205.297C520.663 204.844 519.718 205.368 519.718 206.189Z" fill="#223462"/>
<path d="M717.044 471.953L717.044 446.104C717.044 440.725 720.061 435.798 725.066 433.109L777.39 404.938C778.172 404.485 779.118 405.009 779.118 405.83L779.118 430.702C779.118 436.761 775.498 442.438 769.547 445.651L718.773 472.845C717.99 473.298 717.044 472.774 717.044 471.953Z" fill="#21315A"/>
<path d="M717.044 373.483L717.044 398.681C717.044 404.046 720.061 409.043 725.066 411.733L740.589 420.156C740.931 420.382 741.372 420.382 741.714 420.156L773.02 403.31C773.803 402.857 773.803 401.894 773.02 401.441L718.773 372.591C717.99 372.138 717.044 372.662 717.044 373.483Z" fill="#223462"/>
<path d="M585.493 336.83L585.493 310.981C585.493 305.602 588.51 300.676 593.515 297.986L645.839 269.816C646.621 269.363 647.567 269.887 647.567 270.708L647.567 295.58C647.567 301.638 643.947 307.315 637.996 310.528L587.222 337.722C586.439 338.175 585.493 337.651 585.493 336.83Z" fill="#21315A"/>
<path d="M585.493 238.361L585.493 263.558C585.493 268.923 588.51 273.921 593.515 276.61L609.038 285.033C609.38 285.26 609.821 285.26 610.163 285.033L641.469 268.187C642.252 267.734 642.252 266.772 641.469 266.319L587.222 237.469C586.439 237.016 585.493 237.54 585.493 238.361Z" fill="#223462"/>
<path d="M651.269 371.415L651.269 345.566C651.269 340.187 654.285 335.261 659.291 332.571L711.614 304.401C712.397 303.948 713.342 304.471 713.342 305.292L713.342 330.165C713.342 336.223 709.723 341.9 703.771 345.113L652.997 372.307C652.214 372.76 651.269 372.236 651.269 371.415Z" fill="#21315A"/>
<path d="M651.269 272.946L651.269 298.143C651.269 303.508 654.285 308.505 659.291 311.195L674.813 319.618C675.156 319.844 675.596 319.844 675.938 319.618L707.244 302.772C708.027 302.319 708.027 301.357 707.244 300.904L652.997 272.054C652.214 271.601 651.269 272.125 651.269 272.946Z" fill="#223462"/>
<path d="M779.118 272.946L779.118 298.795C779.118 304.174 776.102 309.1 771.096 311.79L718.773 339.96C717.99 340.413 717.044 339.89 717.044 339.068L717.044 314.196C717.044 308.138 720.664 302.461 726.616 299.248L777.39 272.054C778.173 271.601 779.118 272.125 779.118 272.946Z" fill="#223462"/>
<path d="M779.118 371.415L779.118 346.218C779.118 340.853 776.102 335.856 771.096 333.166L755.574 324.743C755.231 324.517 754.791 324.517 754.449 324.743L723.143 341.589C722.36 342.042 722.36 343.004 723.143 343.457L777.39 372.307C778.173 372.76 779.118 372.236 779.118 371.415Z" fill="#223462"/>
<path d="M647.568 341.311L647.568 367.16C647.568 372.54 644.551 377.466 639.545 380.155L587.222 408.326C586.439 408.779 585.494 408.255 585.494 407.434L585.494 382.562C585.494 376.503 589.113 370.827 595.065 367.613L645.839 340.42C646.622 339.967 647.568 340.49 647.568 341.311Z" fill="#223462"/>
<path d="M647.568 439.781L647.568 414.583C647.568 409.218 644.551 404.221 639.545 401.531L624.023 393.109C623.68 392.882 623.24 392.882 622.898 393.109L591.592 409.954C590.809 410.407 590.809 411.37 591.592 411.823L645.839 440.673C646.622 441.126 647.568 440.602 647.568 439.781Z" fill="#223462"/>
<path d="M516.017 137.823L516.017 163.672C516.017 169.051 513 173.978 507.994 176.667L455.671 204.838C454.888 205.291 453.943 204.767 453.943 203.946L453.943 179.074C453.943 173.015 457.562 167.338 463.514 164.125L514.288 136.931C515.071 136.478 516.017 137.002 516.017 137.823Z" fill="#21315A"/>
<path d="M516.017 236.293L516.017 211.095C516.017 205.73 513 200.733 507.994 198.043L492.472 189.62C492.129 189.394 491.689 189.394 491.347 189.62L460.041 206.466C459.258 206.919 459.258 207.882 460.041 208.335L514.288 237.185C515.071 237.638 516.017 237.114 516.017 236.293Z" fill="#223462"/>
</svg>
