<svg width="181" height="34" viewBox="0 0 181 34" fill="none" xmlns="http://www.w3.org/2000/svg">
<path d="M2.08957 0.685059H17.7273C20.9816 0.685059 23.9618 2.26938 25.589 4.89851L42.6312 32.3801C42.9052 32.7912 42.5884 33.2879 42.0916 33.2879H27.0448C23.3795 33.2879 19.9453 31.3867 18.0013 28.2609L1.55004 1.59283C1.276 1.18177 1.59286 0.685059 2.08957 0.685059Z" fill="#5D86EF"/>
<path d="M61.6604 0.685059H46.4166C43.1708 0.685059 40.1478 2.26938 38.5206 4.89851L33.4251 13.0514C33.2881 13.2312 33.2881 13.4624 33.4251 13.6423L43.6162 30.085C43.8902 30.4961 44.4726 30.4961 44.7466 30.085L62.1999 1.59283C62.4739 1.18177 62.1571 0.685059 61.6604 0.685059Z" fill="#263969"/>
<path d="M63.0904 18.4296H61.1464C60.7696 18.4296 60.487 18.1812 60.487 17.8386V16.1173C60.487 15.7833 60.7696 15.5264 61.1464 15.5264H63.0819C63.4587 15.5264 63.7413 15.7747 63.7413 16.1173V17.8386C63.7498 18.1812 63.4672 18.4296 63.0904 18.4296Z" fill="#263969"/>
<path d="M2.64625 18.4296H0.659422C0.282609 18.4296 0 18.1812 0 17.8386V16.1173C0 15.7833 0.282609 15.5264 0.659422 15.5264H2.59487C2.97168 15.5264 3.25429 15.7747 3.25429 16.1173V17.8386C3.30567 18.1812 2.97168 18.4296 2.64625 18.4296Z" fill="#5D86EF"/>
<path d="M80.0211 16.1538L73.9257 1.06323C73.8566 0.895554 73.9849 0.718018 74.1624 0.718018H76.8156C77.4863 0.718018 78.0879 1.13227 78.3246 1.75365L82.3586 12.3269L86.4814 1.75365C86.7181 1.13227 87.3198 0.727881 87.9806 0.727881H90.4858C90.6633 0.727881 90.7916 0.91528 90.7225 1.08295L84.5384 16.1637C84.4989 16.2623 84.4101 16.3215 84.3016 16.3215H80.2578C80.1592 16.3116 80.0605 16.2426 80.0211 16.1538Z" fill="#5D86EF"/>
<path d="M93.6319 3.77553C93.1684 3.77553 92.764 3.60786 92.4385 3.28238C92.113 2.95689 91.9454 2.5525 91.9454 2.08894C91.9454 1.62537 92.113 1.22098 92.4385 0.8955C92.764 0.570017 93.1585 0.402344 93.6319 0.402344C94.0955 0.402344 94.4999 0.570017 94.8254 0.8955C95.1508 1.22098 95.3185 1.62537 95.3185 2.08894C95.3185 2.5525 95.1508 2.95689 94.8254 3.28238C94.49 3.60786 94.0955 3.77553 93.6319 3.77553Z" fill="#5D86EF"/>
<path d="M112.964 3.77553C112.5 3.77553 112.096 3.60786 111.77 3.28238C111.445 2.95689 111.277 2.5525 111.277 2.08894C111.277 1.62537 111.445 1.22098 111.77 0.8955C112.096 0.570017 112.49 0.402344 112.964 0.402344C113.427 0.402344 113.832 0.570017 114.157 0.8955C114.483 1.22098 114.65 1.62537 114.65 2.08894C114.65 2.5525 114.483 2.95689 114.157 3.28238C113.832 3.60786 113.437 3.77553 112.964 3.77553Z" fill="#5D86EF"/>
<path d="M95.4369 4.78134V16.0549C95.4369 16.193 95.3185 16.3113 95.1804 16.3113H92.0834C91.9453 16.3113 91.827 16.193 91.827 16.0549V4.78134C91.827 4.64326 91.9453 4.5249 92.0834 4.5249H95.1804C95.3185 4.5249 95.4369 4.64326 95.4369 4.78134Z" fill="#5D86EF"/>
<path d="M101.473 16.1732L96.6503 4.87997C96.5813 4.7123 96.6996 4.5249 96.887 4.5249H99.3331C99.9939 4.5249 100.586 4.91943 100.832 5.53094L103.347 11.7348L105.853 5.53094C106.099 4.91943 106.691 4.5249 107.352 4.5249H109.758C109.916 4.5249 110.025 4.69258 109.966 4.84052L105.113 16.1732C105.073 16.2522 104.995 16.3113 104.906 16.3113H101.681C101.592 16.3113 101.503 16.2522 101.473 16.1732Z" fill="#5D86EF"/>
<path d="M114.769 4.78134V16.0549C114.769 16.193 114.651 16.3113 114.513 16.3113H111.415C111.277 16.3113 111.159 16.193 111.159 16.0549V4.78134C111.159 4.64326 111.277 4.5249 111.415 4.5249H114.513C114.66 4.5249 114.769 4.64326 114.769 4.78134Z" fill="#5D86EF"/>
<path d="M126.861 6.15241C126.339 5.59021 125.717 5.14637 124.987 4.81103C124.257 4.48554 123.468 4.31787 122.6 4.31787C121.742 4.31787 120.934 4.47568 120.174 4.78144C119.434 5.09706 118.783 5.52117 118.241 6.07351C117.689 6.62584 117.255 7.27681 116.929 8.03627C116.614 8.77601 116.466 9.57492 116.466 10.4231C116.466 11.2714 116.633 12.0703 116.959 12.8298C117.304 13.5695 117.758 14.2205 118.32 14.7629C118.902 15.3153 119.582 15.7394 120.371 16.055C121.16 16.3706 121.999 16.5186 122.886 16.5186C123.863 16.5186 124.741 16.3805 125.51 16.0944C126.21 15.838 126.901 15.4533 127.571 14.9306C127.7 14.832 127.7 14.6446 127.581 14.5361L125.589 12.7903C125.49 12.7015 125.352 12.7015 125.254 12.7903C125.007 13.0073 124.721 13.175 124.396 13.313C123.991 13.461 123.547 13.5399 123.054 13.5399C122.374 13.5399 121.782 13.3722 121.269 13.027C120.766 12.6719 120.391 12.2182 120.154 11.6659H128.301C128.439 11.6659 128.558 11.5475 128.558 11.4095V10.7684C128.558 9.85109 128.41 8.99299 128.114 8.20394C127.808 7.39517 127.394 6.71461 126.861 6.15241ZM125.017 9.14094H120.095C120.273 8.54915 120.579 8.08559 121.012 7.7601C121.446 7.43462 121.959 7.26695 122.551 7.26695C123.133 7.26695 123.636 7.43462 124.07 7.77983C124.504 8.11518 124.82 8.56888 125.017 9.14094Z" fill="#5D86EF"/>
<path d="M137.011 4.2981C136.419 4.2981 135.847 4.38686 135.294 4.5644C134.762 4.74194 134.278 4.99838 133.844 5.32386V4.77153C133.844 4.63344 133.726 4.51508 133.588 4.51508H130.491C130.353 4.51508 130.235 4.63344 130.235 4.77153V16.0451C130.235 16.1832 130.353 16.3015 130.491 16.3015H133.588C133.726 16.3015 133.844 16.1832 133.844 16.0451V8.43074C133.844 8.37156 133.864 8.31238 133.904 8.26307C134.13 7.99676 134.407 7.78964 134.732 7.64169C135.087 7.47402 135.501 7.39511 135.955 7.39511C136.596 7.39511 137.109 7.59238 137.494 7.99676C137.898 8.38143 138.095 8.89431 138.095 9.53541V16.0549C138.095 16.193 138.214 16.3114 138.352 16.3114H141.449C141.587 16.3114 141.705 16.193 141.705 16.0549V9.05212C141.705 7.67128 141.271 6.53702 140.394 5.63948C139.526 4.7518 138.391 4.2981 137.011 4.2981Z" fill="#5D86EF"/>
<path d="M155.761 0.00762421L152.664 0.678316C152.545 0.707906 152.466 0.806537 152.466 0.924894V5.15617C152.022 4.89973 151.549 4.71233 151.046 4.57425C150.543 4.43617 150.01 4.37699 149.468 4.37699C148.62 4.37699 147.821 4.5348 147.061 4.84055C146.322 5.15617 145.671 5.58029 145.128 6.13262C144.576 6.66523 144.142 7.30633 143.816 8.04607C143.501 8.77594 143.353 9.56499 143.353 10.4034C143.353 11.2516 143.511 12.0406 143.816 12.7902C144.132 13.5201 144.556 14.1612 145.089 14.7037C145.641 15.256 146.282 15.6801 147.002 15.9957C147.742 16.3114 148.531 16.4593 149.359 16.4593C149.941 16.4593 150.494 16.3705 151.026 16.193C151.559 16.0155 152.062 15.759 152.516 15.4335V16.0451C152.516 16.1831 152.634 16.3015 152.772 16.3015H155.83C155.968 16.3015 156.086 16.1831 156.086 16.0451V0.254202C156.066 0.0865292 155.918 -0.0318283 155.761 0.00762421ZM152.456 12.3464C152.456 12.4154 152.427 12.4845 152.378 12.5338C152.072 12.81 151.727 13.0171 151.342 13.1749C150.928 13.3228 150.464 13.4017 149.961 13.4017C149.103 13.4017 148.363 13.1157 147.752 12.5535C147.16 11.9716 146.864 11.2614 146.864 10.4132C146.864 9.56499 147.16 8.86471 147.752 8.29265C148.343 7.71072 149.083 7.42469 149.961 7.42469C150.454 7.42469 150.908 7.5036 151.342 7.67127C151.736 7.81922 152.072 8.01648 152.368 8.26306C152.427 8.31237 152.456 8.38142 152.456 8.46032V12.3464Z" fill="#5D86EF"/>
<path d="M180.024 10.2751C179.402 9.66364 178.505 9.27897 177.351 9.12116L175.013 8.76609C174.51 8.68719 174.155 8.58856 173.948 8.45047C173.741 8.30252 173.632 8.10526 173.632 7.86855C173.632 7.61211 173.77 7.41484 174.056 7.2669C174.342 7.09922 174.707 7.02032 175.171 7.02032C175.753 7.02032 176.325 7.10909 176.907 7.28662C177.43 7.43457 177.972 7.66142 178.544 7.97704C178.653 8.03622 178.791 8.00663 178.87 7.908L180.29 5.99455C180.379 5.8762 180.339 5.69866 180.211 5.61976C179.55 5.23509 178.84 4.92934 178.071 4.72221C177.222 4.46577 176.374 4.34741 175.526 4.34741C173.948 4.34741 172.715 4.69262 171.808 5.37318C170.9 6.05373 170.446 6.99073 170.446 8.18417C170.446 9.15075 170.762 9.9398 171.383 10.5415C172.005 11.1332 172.892 11.5179 174.056 11.6954L176.394 12.0505C176.808 12.1097 177.114 12.2182 177.311 12.3661C177.508 12.5042 177.597 12.6818 177.597 12.8987C177.597 13.1848 177.42 13.4116 177.065 13.5892C176.719 13.7568 176.256 13.8357 175.664 13.8357C175.072 13.8357 174.471 13.7371 173.859 13.5497C173.307 13.3623 172.695 13.0763 172.034 12.6916C171.926 12.6226 171.778 12.662 171.699 12.7607L170.269 14.7925C170.19 14.9108 170.22 15.0686 170.338 15.1475C170.979 15.5815 171.719 15.9169 172.577 16.1536C173.543 16.41 174.579 16.5284 175.694 16.5284C176.453 16.5284 177.153 16.4297 177.814 16.2423C178.465 16.0352 179.027 15.7492 179.481 15.3941C179.954 15.039 180.329 14.6149 180.596 14.1218C180.862 13.6286 181 13.1059 181 12.5437C180.98 11.6264 180.665 10.8669 180.024 10.2751Z" fill="#5D86EF"/>
<path d="M74.1522 30.7412L75.5429 29.0053C75.6218 28.9066 75.7698 28.8869 75.8684 28.9757C76.6279 29.6069 77.3479 30.0803 78.0482 30.396C78.8175 30.7214 79.6164 30.8792 80.4646 30.8792C81.3425 30.8792 82.0329 30.7214 82.5556 30.396C83.0784 30.0705 83.3447 29.6464 83.3447 29.1039C83.3447 28.6206 83.1671 28.2458 82.8022 27.9795C82.457 27.7132 81.8652 27.5061 81.0268 27.3778L78.2257 26.8945C77.0125 26.6973 76.0953 26.2732 75.464 25.6222C74.8427 24.9811 74.5369 24.1427 74.5369 23.1268C74.5369 21.815 75.0301 20.7695 76.0262 20.0101C77.0323 19.2408 78.3934 18.866 80.0898 18.866C81.1057 18.866 82.1414 19.0435 83.1671 19.3887C84.1337 19.7142 84.9819 20.1482 85.7217 20.7005C85.8203 20.7794 85.8499 20.9175 85.771 21.026L84.4691 22.8309C84.3902 22.9394 84.2521 22.9592 84.1436 22.8803C83.4532 22.3772 82.7825 22.0024 82.1118 21.7559C81.3819 21.4698 80.6422 21.3317 79.8729 21.3317C79.0937 21.3317 78.4723 21.4797 77.9989 21.7756C77.5254 22.0616 77.2887 22.4364 77.2887 22.9197C77.2887 23.3537 77.4465 23.689 77.7523 23.9257C78.058 24.1723 78.5808 24.34 79.3008 24.4485L81.9638 24.8923C83.3644 25.1192 84.4099 25.5729 85.1102 26.2436C85.8203 26.9044 86.1754 27.7724 86.1754 28.8573C86.1754 30.2283 85.6329 31.3231 84.548 32.1417C83.4729 32.9604 82.0329 33.3746 80.2378 33.3746C79.1134 33.3746 77.9989 33.1576 76.8942 32.7335C75.898 32.3094 74.9906 31.7571 74.1818 31.0568C74.0832 30.9779 74.0733 30.8398 74.1522 30.7412ZM91.4817 33.3352C90.3574 33.3352 89.4302 33.0393 88.7201 32.4475C88.0099 31.8458 87.6549 31.0666 87.6549 30.1099C87.6549 29.1137 88.0395 28.3346 88.799 27.7724C89.5683 27.2102 90.6237 26.9241 91.965 26.9241C92.399 26.9241 92.8231 26.9537 93.2571 27.0228C93.6812 27.0918 94.1053 27.1904 94.5294 27.3285V26.5789C94.5294 25.9773 94.342 25.5137 93.9673 25.208C93.5925 24.9022 93.0401 24.7444 92.3201 24.7444C91.8763 24.7444 91.393 24.8134 90.8702 24.9614C90.3574 25.0995 89.7754 25.3066 89.1146 25.6025L88.2171 23.7778C88.1579 23.6594 88.2072 23.5214 88.3255 23.4622C89.0653 23.1367 89.7853 22.8901 90.4856 22.7126C91.2648 22.5252 92.0341 22.4266 92.7837 22.4266C94.1941 22.4266 95.2889 22.7718 96.0681 23.4523C96.8571 24.123 97.2517 25.0797 97.2517 26.3126V32.8913C97.2517 33.0195 97.153 33.1182 97.0248 33.1182H94.7662C94.6379 33.1182 94.5393 33.0195 94.5393 32.8913V32.3982C94.0955 32.7039 93.6319 32.9308 93.1289 33.0787C92.6357 33.2563 92.0933 33.3352 91.4817 33.3352ZM90.2982 30.0507C90.2982 30.4551 90.4757 30.7806 90.8209 31.0173C91.1661 31.2442 91.6297 31.3625 92.2116 31.3625C92.6653 31.3625 93.0894 31.3132 93.4642 31.2047C93.8588 31.0864 94.2138 30.9187 94.5294 30.7017V29.1335C94.1941 28.9954 93.839 28.9066 93.4642 28.8474C93.0993 28.7784 92.7245 28.7488 92.3201 28.7488C91.6889 28.7488 91.1957 28.8672 90.8308 29.1137C90.4658 29.3307 90.2982 29.6464 90.2982 30.0507ZM99.3328 32.9209V22.8901C99.3328 22.7619 99.4314 22.6633 99.5596 22.6633H101.858C101.986 22.6633 102.085 22.7619 102.085 22.8901V23.4819C102.489 23.1466 102.933 22.8901 103.416 22.7126C103.909 22.535 104.452 22.4463 105.024 22.4463C106.237 22.4463 107.223 22.8309 108.002 23.6101C108.782 24.3893 109.166 25.3855 109.166 26.6085V32.9012C109.166 33.0294 109.068 33.128 108.939 33.128H106.651C106.523 33.128 106.424 33.0294 106.424 32.9012V27.0228C106.424 26.3619 106.227 25.8392 105.823 25.4348C105.428 25.0304 104.905 24.8332 104.254 24.8332C103.801 24.8332 103.377 24.9318 103.002 25.1192C102.667 25.2869 102.371 25.5137 102.144 25.8195C102.114 25.8589 102.094 25.9082 102.094 25.9576V32.9209C102.094 33.0491 101.996 33.1478 101.868 33.1478H99.5695C99.4314 33.1478 99.3328 33.0491 99.3328 32.9209ZM112.313 30.1888V24.9712H110.389C110.261 24.9712 110.162 24.8726 110.162 24.7444V22.8901C110.162 22.7619 110.261 22.6633 110.389 22.6633H112.313V20.1679C112.313 20.0594 112.392 19.9706 112.49 19.941L114.788 19.4183C114.936 19.3887 115.064 19.4972 115.064 19.6452V22.6633H117.816C117.944 22.6633 118.043 22.7619 118.043 22.8901V24.7444C118.043 24.8726 117.944 24.9712 117.816 24.9712H115.064V29.6266C115.064 30.1198 115.173 30.4749 115.39 30.6721C115.607 30.8694 115.982 30.9779 116.514 30.9779C116.771 30.9779 117.007 30.968 117.234 30.9384C117.244 30.9384 117.244 30.9384 117.254 30.9384C117.392 30.9088 117.54 30.8792 117.698 30.8299C117.846 30.7905 117.994 30.899 117.994 31.0469V32.8124C117.994 32.9209 117.925 33.0097 117.826 33.0393C117.57 33.1083 117.264 33.1675 116.929 33.2069C116.514 33.276 116.159 33.3056 115.863 33.3056C114.7 33.3056 113.812 33.0393 113.2 32.5165C112.599 31.9839 112.313 31.2146 112.313 30.1888ZM122.738 33.3352C121.614 33.3352 120.686 33.0393 119.976 32.4475C119.266 31.8458 118.911 31.0666 118.911 30.1099C118.911 29.1137 119.296 28.3346 120.055 27.7724C120.825 27.2102 121.87 26.9241 123.221 26.9241C123.645 26.9241 124.079 26.9537 124.513 27.0228C124.947 27.0918 125.362 27.1904 125.786 27.3285V26.5789C125.786 25.9773 125.598 25.5137 125.223 25.208C124.849 24.9022 124.296 24.7444 123.576 24.7444C123.132 24.7444 122.649 24.8134 122.126 24.9614C121.614 25.0995 121.032 25.3066 120.371 25.6025L119.473 23.7778C119.414 23.6594 119.463 23.5214 119.582 23.4622C120.322 23.1367 121.042 22.8901 121.742 22.7126C122.521 22.5252 123.29 22.4266 124.04 22.4266C125.45 22.4266 126.545 22.7718 127.324 23.4523C128.113 24.123 128.518 25.0797 128.518 26.3126V32.8913C128.518 33.0195 128.419 33.1182 128.291 33.1182H126.032C125.904 33.1182 125.805 33.0195 125.805 32.8913V32.3982C125.362 32.7039 124.888 32.9308 124.395 33.0787C123.882 33.2563 123.34 33.3352 122.738 33.3352ZM121.545 30.0507C121.545 30.4551 121.722 30.7806 122.067 31.0173C122.412 31.2442 122.876 31.3625 123.458 31.3625C123.912 31.3625 124.326 31.3132 124.711 31.2047C125.095 31.0864 125.45 30.9187 125.776 30.7017V29.1335C125.44 28.9954 125.085 28.9066 124.711 28.8474C124.346 28.7784 123.961 28.7488 123.566 28.7488C122.935 28.7488 122.442 28.8672 122.077 29.1137C121.722 29.3307 121.545 29.6464 121.545 30.0507ZM134.82 32.9209V19.2802C134.82 19.152 134.919 19.0534 135.047 19.0534H145.482C145.611 19.0534 145.709 19.152 145.709 19.2802V20.9274C145.709 21.2923 145.413 21.5882 145.048 21.5882H137.967C137.838 21.5882 137.74 21.6868 137.74 21.815V24.6753C137.74 24.8036 137.838 24.9022 137.967 24.9022H142.8C142.928 24.9022 143.026 25.0008 143.026 25.129V27.1214C143.026 27.2496 142.928 27.3482 142.8 27.3482H137.967C137.838 27.3482 137.74 27.4469 137.74 27.5751V32.8913C137.74 33.0195 137.641 33.1182 137.513 33.1182H135.057C134.919 33.1478 134.82 33.0491 134.82 32.9209ZM154.931 31.6584C155.04 31.7571 155.03 31.9247 154.911 32.0135C154.339 32.4475 153.748 32.773 153.136 32.99C152.465 33.2365 151.716 33.3549 150.877 33.3549C150.088 33.3549 149.339 33.2168 148.639 32.9308C147.958 32.6447 147.356 32.2699 146.843 31.7867C146.35 31.3034 145.946 30.7313 145.66 30.0705C145.374 29.3998 145.236 28.6798 145.236 27.9203C145.236 27.1707 145.374 26.4606 145.64 25.8096C145.926 25.1389 146.301 24.557 146.784 24.0737C147.268 23.5805 147.84 23.186 148.5 22.9098C149.171 22.6238 149.881 22.4857 150.631 22.4857C151.371 22.4857 152.051 22.6337 152.682 22.9296C153.324 23.2156 153.876 23.6003 154.33 24.0934C154.803 24.5866 155.158 25.1882 155.414 25.8885C155.681 26.5691 155.819 27.3187 155.819 28.1274C155.819 28.5318 155.493 28.8573 155.089 28.8573H147.997C148.185 29.5181 148.55 30.0409 149.082 30.4453C149.615 30.8497 150.246 31.0469 150.976 31.0469C151.43 31.0469 151.864 30.9779 152.268 30.8299C152.604 30.7116 152.899 30.5439 153.146 30.3368C153.235 30.2677 153.363 30.2677 153.442 30.3466L154.931 31.6584ZM150.582 24.7542C149.95 24.7542 149.408 24.9515 148.954 25.3362C148.5 25.711 148.185 26.2239 148.007 26.865H153.146C152.968 26.2436 152.653 25.7406 152.179 25.3559C151.716 24.9515 151.183 24.7542 150.582 24.7542Z" fill="#263969"/>
<path d="M167.527 5.48191C166.619 4.69286 165.347 4.29834 163.72 4.29834C162.832 4.29834 161.925 4.40683 161.007 4.63369C160.179 4.82109 159.331 5.10712 158.463 5.48191C158.334 5.54109 158.275 5.6989 158.334 5.82712L159.409 8.0266C159.469 8.14496 159.617 8.20413 159.735 8.14496C160.406 7.86879 160.997 7.66166 161.52 7.52358C162.102 7.37563 162.615 7.29673 163.078 7.29673C163.818 7.29673 164.38 7.44467 164.745 7.74057C165.13 8.0266 165.327 8.46058 165.327 9.05236V9.63429C164.893 9.52579 164.459 9.44689 164.015 9.38771C163.572 9.32853 163.118 9.29894 162.654 9.29894C161.126 9.29894 159.932 9.61456 159.064 10.2359C158.216 10.8573 157.792 11.7253 157.792 12.8398C157.792 13.905 158.196 14.7828 158.995 15.4634C159.794 16.1439 160.82 16.4892 162.072 16.4892C162.714 16.4892 163.286 16.4201 163.808 16.2919C164.173 16.1933 164.528 16.0453 164.864 15.8579C165.051 15.7396 165.327 15.5324 165.327 15.5324V16.0256C165.327 16.1637 165.446 16.282 165.584 16.282H168.641C168.779 16.282 168.898 16.1637 168.898 16.0256V8.72688C168.888 7.34604 168.434 6.25124 167.527 5.48191ZM165.317 13.4119C165.002 13.6091 164.657 13.7472 164.272 13.836C163.897 13.9247 163.503 13.9741 163.069 13.9741C162.487 13.9741 162.033 13.8656 161.708 13.6584C161.382 13.4513 161.214 13.1653 161.214 12.7905C161.214 12.4157 161.382 12.1395 161.727 11.9423C162.072 11.7351 162.556 11.6266 163.177 11.6266C163.552 11.6266 163.907 11.6464 164.272 11.6957C164.627 11.745 164.982 11.8042 165.317 11.8929V13.4119Z" fill="#5D86EF"/>
</svg>
