<svg width="63" height="32" viewBox="0 0 63 32" fill="none" xmlns="http://www.w3.org/2000/svg">
<path d="M2.04343 0H17.3356C20.5179 0 23.4323 1.54931 25.0235 4.12033L41.6891 30.9946C41.9571 31.3966 41.6472 31.8823 41.1615 31.8823H26.4472C22.8628 31.8823 19.5046 30.0232 17.6035 26.9664L1.51582 0.887714C1.24783 0.48573 1.5577 0 2.04343 0Z" fill="#F8FBF8"/>
<path d="M60.2977 0H45.3908C42.2168 0 39.2605 1.54931 37.6694 4.12033L32.6864 12.093C32.5524 12.2689 32.5524 12.495 32.6864 12.6709L42.6523 28.7502C42.9203 29.1522 43.4897 29.1522 43.7577 28.7502L60.8253 0.887714C61.0933 0.48573 60.7834 0 60.2977 0Z" fill="white"/>
<path d="M60.2977 0H45.3908C42.2168 0 39.2605 1.54931 37.6694 4.12033L32.6864 12.093C32.5524 12.2689 32.5524 12.495 32.6864 12.6709L42.6523 28.7502C42.9203 29.1522 43.4897 29.1522 43.7577 28.7502L60.8253 0.887714C61.0933 0.48573 60.7834 0 60.2977 0Z" fill="black" fill-opacity="0.2"/>
<path d="M60.2977 0H45.3908C42.2168 0 39.2605 1.54931 37.6694 4.12033L32.6864 12.093C32.5524 12.2689 32.5524 12.495 32.6864 12.6709L42.6523 28.7502C42.9203 29.1522 43.4897 29.1522 43.7577 28.7502L60.8253 0.887714C61.0933 0.48573 60.7834 0 60.2977 0Z" fill="black" fill-opacity="0.2"/>
<path d="M60.2977 0H45.3908C42.2168 0 39.2605 1.54931 37.6694 4.12033L32.6864 12.093C32.5524 12.2689 32.5524 12.495 32.6864 12.6709L42.6523 28.7502C42.9203 29.1522 43.4897 29.1522 43.7577 28.7502L60.8253 0.887714C61.0933 0.48573 60.7834 0 60.2977 0Z" fill="#73E262"/>
<path d="M61.6962 17.3524H59.7951C59.4266 17.3524 59.1503 17.1095 59.1503 16.7745V15.0912C59.1503 14.7646 59.4266 14.5134 59.7951 14.5134H61.6878C62.0563 14.5134 62.3326 14.7562 62.3326 15.0912V16.7745C62.341 17.1095 62.0647 17.3524 61.6962 17.3524Z" fill="white"/>
<path d="M61.6962 17.3524H59.7951C59.4266 17.3524 59.1503 17.1095 59.1503 16.7745V15.0912C59.1503 14.7646 59.4266 14.5134 59.7951 14.5134H61.6878C62.0563 14.5134 62.3326 14.7562 62.3326 15.0912V16.7745C62.341 17.1095 62.0647 17.3524 61.6962 17.3524Z" fill="black" fill-opacity="0.2"/>
<path d="M61.6962 17.3524H59.7951C59.4266 17.3524 59.1503 17.1095 59.1503 16.7745V15.0912C59.1503 14.7646 59.4266 14.5134 59.7951 14.5134H61.6878C62.0563 14.5134 62.3326 14.7562 62.3326 15.0912V16.7745C62.341 17.1095 62.0647 17.3524 61.6962 17.3524Z" fill="black" fill-opacity="0.2"/>
<path d="M61.6962 17.3524H59.7951C59.4266 17.3524 59.1503 17.1095 59.1503 16.7745V15.0912C59.1503 14.7646 59.4266 14.5134 59.7951 14.5134H61.6878C62.0563 14.5134 62.3326 14.7562 62.3326 15.0912V16.7745C62.341 17.1095 62.0647 17.3524 61.6962 17.3524Z" fill="#73E262"/>
<path d="M2.58777 17.3524H0.644849C0.276364 17.3524 0 17.1095 0 16.7745V15.0912C0 14.7646 0.276364 14.5134 0.644849 14.5134H2.53752C2.90601 14.5134 3.18237 14.7562 3.18237 15.0912V16.7745C3.23262 17.1095 2.90601 17.3524 2.58777 17.3524Z" fill="#F8FBF8"/>
</svg>
