<svg width="353" height="66" viewBox="0 0 353 66" fill="none" xmlns="http://www.w3.org/2000/svg">
<path d="M4.07477 1.33618H34.5726C40.9194 1.33618 46.7317 4.42605 49.9051 9.55357L83.1421 63.1503C83.6766 63.952 83.0586 64.9207 82.0899 64.9207H52.7444C45.596 64.9207 38.8985 61.2129 35.1071 55.1167L3.02254 3.10659C2.48808 2.3049 3.10605 1.33618 4.07477 1.33618Z" fill="#F8FBF8"/>
<path d="M120.254 1.33618H90.5247C84.1946 1.33618 78.2988 4.42605 75.1254 9.55357L65.1877 25.4539C64.9205 25.8046 64.9205 26.2556 65.1877 26.6063L85.0631 58.6742C85.5976 59.4759 86.7333 59.4759 87.2678 58.6742L121.307 3.10659C121.841 2.3049 121.223 1.33618 120.254 1.33618Z" fill="#73E262"/>
<path d="M123.044 35.9429H119.253C118.518 35.9429 117.967 35.4585 117.967 34.7904V31.4333C117.967 30.7819 118.518 30.2809 119.253 30.2809H123.027C123.762 30.2809 124.314 30.7652 124.314 31.4333V34.7904C124.33 35.4585 123.779 35.9429 123.044 35.9429Z" fill="#73E262"/>
<path d="M5.16092 35.9429H1.28605C0.551166 35.9429 0 35.4585 0 34.7904V31.4333C0 30.7819 0.551166 30.2809 1.28605 30.2809H5.06071C5.7956 30.2809 6.34676 30.7652 6.34676 31.4333V34.7904C6.44698 35.4585 5.7956 35.9429 5.16092 35.9429Z" fill="#F8FBF8"/>
<path d="M156.063 31.5041L144.176 2.07334C144.041 1.74633 144.291 1.40009 144.637 1.40009H149.812C151.12 1.40009 152.293 2.20799 152.755 3.41985L160.622 24.0406L168.663 3.41985C169.125 2.20799 170.298 1.41932 171.587 1.41932H176.473C176.819 1.41932 177.069 1.7848 176.934 2.11181L164.873 31.5234C164.796 31.7157 164.623 31.8311 164.412 31.8311H156.525C156.333 31.8119 156.14 31.6773 156.063 31.5041Z" fill="#F8FBF8"/>
<path d="M182.609 7.3635C181.705 7.3635 180.916 7.03649 180.281 6.40171C179.646 5.76693 179.319 4.97826 179.319 4.07418C179.319 3.17009 179.646 2.38142 180.281 1.74664C180.916 1.11186 181.685 0.784851 182.609 0.784851C183.513 0.784851 184.301 1.11186 184.936 1.74664C185.571 2.38142 185.898 3.17009 185.898 4.07418C185.898 4.97826 185.571 5.76693 184.936 6.40171C184.282 7.03649 183.513 7.3635 182.609 7.3635Z" fill="#F8FBF8"/>
<path d="M220.311 7.3635C219.407 7.3635 218.618 7.03649 217.983 6.40171C217.348 5.76693 217.021 4.97826 217.021 4.07418C217.021 3.17009 217.348 2.38142 217.983 1.74664C218.618 1.11186 219.388 0.784851 220.311 0.784851C221.215 0.784851 222.004 1.11186 222.638 1.74664C223.273 2.38142 223.6 3.17009 223.6 4.07418C223.6 4.97826 223.273 5.76693 222.638 6.40171C222.004 7.03649 221.234 7.3635 220.311 7.3635Z" fill="#F8FBF8"/>
<path d="M186.128 9.32478V31.3113C186.128 31.5806 185.897 31.8114 185.628 31.8114H179.588C179.319 31.8114 179.088 31.5806 179.088 31.3113V9.32478C179.088 9.05548 179.319 8.82465 179.588 8.82465H185.628C185.897 8.82465 186.128 9.05548 186.128 9.32478Z" fill="#F8FBF8"/>
<path d="M197.901 31.5421L188.495 9.51713C188.36 9.19013 188.591 8.82465 188.957 8.82465H193.727C195.016 8.82465 196.17 9.59408 196.651 10.7867L201.556 22.886L206.442 10.7867C206.923 9.59408 208.077 8.82465 209.366 8.82465H214.059C214.367 8.82465 214.579 9.15165 214.463 9.44019L204.999 31.5421C204.922 31.696 204.768 31.8114 204.595 31.8114H198.305C198.132 31.8114 197.959 31.696 197.901 31.5421Z" fill="#F8FBF8"/>
<path d="M223.831 9.32478V31.3113C223.831 31.5806 223.601 31.8114 223.331 31.8114H217.291C217.022 31.8114 216.791 31.5806 216.791 31.3113V9.32478C216.791 9.05548 217.022 8.82465 217.291 8.82465H223.331C223.62 8.82465 223.831 9.05548 223.831 9.32478Z" fill="#F8FBF8"/>
<path d="M247.415 11.9992C246.396 10.9027 245.184 10.0371 243.76 9.38312C242.337 8.74833 240.798 8.42133 239.105 8.42133C237.432 8.42133 235.854 8.7291 234.373 9.32541C232.931 9.94096 231.661 10.7681 230.603 11.8453C229.526 12.9225 228.679 14.1921 228.045 15.6732C227.429 17.1159 227.141 18.674 227.141 20.3283C227.141 21.9826 227.468 23.5407 228.102 25.0218C228.776 26.4645 229.661 27.7341 230.757 28.7921C231.892 29.8693 233.219 30.6964 234.758 31.3119C236.297 31.9275 237.932 32.216 239.663 32.216C241.567 32.216 243.279 31.9467 244.78 31.3889C246.146 30.8888 247.492 30.1386 248.8 29.1191C249.05 28.9267 249.05 28.5612 248.819 28.3496L244.934 24.9449C244.741 24.7718 244.472 24.7718 244.28 24.9449C243.799 25.3681 243.241 25.6951 242.606 25.9644C241.818 26.2529 240.952 26.4068 239.99 26.4068C238.663 26.4068 237.509 26.0798 236.508 25.4066C235.527 24.7141 234.796 23.8292 234.335 22.752H250.224C250.493 22.752 250.724 22.5212 250.724 22.2519V21.0015C250.724 19.2126 250.435 17.5391 249.858 16.0002C249.262 14.4229 248.454 13.0956 247.415 11.9992ZM243.818 17.8276H234.219C234.566 16.6735 235.162 15.7694 236.008 15.1346C236.855 14.4998 237.855 14.1728 239.009 14.1728C240.144 14.1728 241.125 14.4998 241.971 15.1731C242.818 15.8271 243.433 16.712 243.818 17.8276Z" fill="#F8FBF8"/>
<path d="M267.21 8.38281C266.056 8.38281 264.94 8.55593 263.863 8.90218C262.824 9.24842 261.882 9.74856 261.035 10.3833V9.30613C261.035 9.03683 260.805 8.806 260.535 8.806H254.495C254.226 8.806 253.995 9.03683 253.995 9.30613V31.2927C253.995 31.562 254.226 31.7928 254.495 31.7928H260.535C260.805 31.7928 261.035 31.562 261.035 31.2927V16.4426C261.035 16.3272 261.074 16.2118 261.151 16.1156C261.593 15.5962 262.132 15.1923 262.767 14.9038C263.459 14.5767 264.267 14.4229 265.152 14.4229C266.402 14.4229 267.403 14.8076 268.153 15.5962C268.941 16.3464 269.326 17.3467 269.326 18.597V31.3119C269.326 31.5812 269.557 31.812 269.826 31.812H275.866C276.136 31.812 276.366 31.5812 276.366 31.3119V17.6545C276.366 14.9615 275.52 12.7493 273.808 10.9989C272.115 9.26766 269.903 8.38281 267.21 8.38281Z" fill="#F8FBF8"/>
<path d="M303.778 0.0148693L297.738 1.3229C297.507 1.38061 297.353 1.57297 297.353 1.8038V10.056C296.487 9.55583 295.564 9.19035 294.583 8.92105C293.602 8.65175 292.563 8.53633 291.505 8.53633C289.851 8.53633 288.293 8.84411 286.812 9.44042C285.369 10.056 284.099 10.8831 283.042 11.9603C281.964 12.999 281.118 14.2494 280.483 15.6921C279.868 17.1155 279.579 18.6544 279.579 20.2894C279.579 21.9437 279.887 23.4826 280.483 24.9445C281.099 26.3679 281.926 27.6183 282.965 28.6762C284.042 29.7534 285.292 30.5806 286.696 31.1961C288.139 31.8117 289.678 32.1002 291.294 32.1002C292.429 32.1002 293.506 31.9271 294.545 31.5808C295.583 31.2346 296.564 30.7345 297.449 30.0997V31.2923C297.449 31.5616 297.68 31.7924 297.949 31.7924H303.912C304.182 31.7924 304.412 31.5616 304.412 31.2923V0.495765C304.374 0.168756 304.085 -0.0620739 303.778 0.0148693ZM297.334 24.0789C297.334 24.2135 297.276 24.3482 297.18 24.4444C296.583 24.983 295.91 25.3869 295.16 25.6947C294.352 25.9832 293.448 26.1371 292.467 26.1371C290.794 26.1371 289.351 25.5793 288.158 24.4828C287.004 23.3479 286.427 21.9629 286.427 20.3087C286.427 18.6544 287.004 17.2886 288.158 16.173C289.312 15.038 290.755 14.4802 292.467 14.4802C293.429 14.4802 294.314 14.6341 295.16 14.9611C295.929 15.2496 296.583 15.6344 297.161 16.1152C297.276 16.2114 297.334 16.3461 297.334 16.5V24.0789Z" fill="#F8FBF8"/>
<path d="M351.096 20.0383C349.884 18.8456 348.133 18.0954 345.883 17.7877L341.324 17.0952C340.343 16.9413 339.65 16.7489 339.246 16.4796C338.842 16.1911 338.631 15.8064 338.631 15.3447C338.631 14.8446 338.9 14.4599 339.458 14.1713C340.016 13.8443 340.727 13.6904 341.631 13.6904C342.766 13.6904 343.882 13.8636 345.017 14.2098C346.037 14.4983 347.095 14.9408 348.21 15.5563C348.422 15.6717 348.691 15.614 348.845 15.4217L351.615 11.6899C351.788 11.4591 351.711 11.1128 351.461 10.959C350.172 10.2088 348.787 9.61245 347.287 9.2085C345.633 8.70837 343.978 8.47754 342.324 8.47754C339.246 8.47754 336.842 9.15079 335.072 10.4781C333.302 11.8053 332.417 13.6327 332.417 15.9603C332.417 17.8454 333.033 19.3842 334.245 20.5576C335.457 21.7118 337.188 22.462 339.458 22.8082L344.017 23.5007C344.825 23.6161 345.421 23.8277 345.806 24.1163C346.19 24.3856 346.364 24.7318 346.364 25.155C346.364 25.7128 346.017 26.1553 345.325 26.5015C344.652 26.8285 343.747 26.9824 342.593 26.9824C341.439 26.9824 340.266 26.79 339.073 26.4245C337.996 26.0591 336.803 25.5012 335.514 24.751C335.303 24.6164 335.014 24.6933 334.86 24.8857L332.071 28.8483C331.917 29.0791 331.975 29.3869 332.206 29.5408C333.456 30.3871 334.899 31.0411 336.572 31.5028C338.458 32.0029 340.477 32.2338 342.651 32.2338C344.132 32.2338 345.498 32.0414 346.787 31.6759C348.056 31.272 349.153 30.7141 350.038 30.0216C350.961 29.3292 351.692 28.502 352.211 27.5402C352.731 26.5784 353 25.5589 353 24.4625C352.961 22.6736 352.346 21.1924 351.096 20.0383Z" fill="#F8FBF8"/>
<path d="M144.617 59.9539L147.329 56.5684C147.483 56.3761 147.772 56.3376 147.964 56.5107C149.445 57.7418 150.85 58.6651 152.215 59.2807C153.716 59.9154 155.274 60.2232 156.928 60.2232C158.64 60.2232 159.987 59.9154 161.006 59.2807C162.026 58.6459 162.545 57.8187 162.545 56.7608C162.545 55.8182 162.199 55.0873 161.487 54.5679C160.814 54.0485 159.66 53.6446 158.025 53.3945L152.562 52.452C150.196 52.0672 148.407 51.2401 147.176 49.9705C145.964 48.7202 145.367 47.0852 145.367 45.1039C145.367 42.5455 146.329 40.5065 148.272 39.0254C150.234 37.525 152.889 36.794 156.197 36.794C158.178 36.794 160.198 37.1403 162.199 37.8135C164.084 38.4483 165.738 39.2947 167.181 40.3719C167.373 40.5258 167.431 40.7951 167.277 41.0066L164.738 44.5268C164.584 44.7384 164.315 44.7769 164.103 44.623C162.757 43.642 161.449 42.911 160.141 42.4301C158.717 41.8723 157.274 41.603 155.774 41.603C154.254 41.603 153.043 41.8915 152.119 42.4686C151.196 43.0264 150.734 43.7574 150.734 44.6999C150.734 45.5463 151.042 46.2003 151.638 46.662C152.235 47.1429 153.254 47.4699 154.658 47.6815L159.852 48.5471C162.583 48.9895 164.622 49.8744 165.988 51.1824C167.373 52.4712 168.066 54.1639 168.066 56.2799C168.066 58.9537 167.008 61.0888 164.892 62.6854C162.795 64.282 159.987 65.0899 156.486 65.0899C154.293 65.0899 152.119 64.6667 149.965 63.8396C148.022 63.0124 146.252 61.9352 144.675 60.5695C144.483 60.4156 144.463 60.1463 144.617 59.9539ZM178.415 65.0129C176.222 65.0129 174.414 64.4359 173.029 63.2817C171.644 62.1083 170.951 60.5887 170.951 58.7228C170.951 56.78 171.701 55.2604 173.182 54.1639C174.683 53.0675 176.741 52.5097 179.357 52.5097C180.203 52.5097 181.031 52.5674 181.877 52.702C182.704 52.8367 183.531 53.029 184.358 53.2983V51.8364C184.358 50.663 183.993 49.7589 183.262 49.1626C182.531 48.5663 181.454 48.2585 180.05 48.2585C179.184 48.2585 178.241 48.3932 177.222 48.6817C176.222 48.951 175.087 49.355 173.798 49.9321L172.048 46.3734C171.932 46.1426 172.028 45.8733 172.259 45.7579C173.702 45.1231 175.106 44.6422 176.472 44.296C177.991 43.9305 179.492 43.7381 180.954 43.7381C183.704 43.7381 185.84 44.4114 187.359 45.7387C188.898 47.0467 189.668 48.9126 189.668 51.317V64.1473C189.668 64.3974 189.475 64.5897 189.225 64.5897H184.82C184.57 64.5897 184.378 64.3974 184.378 64.1473V63.1855C183.512 63.7818 182.608 64.2243 181.627 64.5128C180.665 64.8591 179.607 65.0129 178.415 65.0129ZM176.106 58.6074C176.106 59.3961 176.453 60.0309 177.126 60.4925C177.799 60.9349 178.703 61.1658 179.838 61.1658C180.723 61.1658 181.55 61.0696 182.281 60.858C183.05 60.6272 183.743 60.3002 184.358 59.877V56.8185C183.704 56.5492 183.012 56.3761 182.281 56.2606C181.569 56.126 180.838 56.0683 180.05 56.0683C178.819 56.0683 177.857 56.2991 177.145 56.78C176.433 57.2032 176.106 57.8187 176.106 58.6074ZM193.726 64.205V44.6422C193.726 44.3922 193.919 44.1998 194.169 44.1998H198.651C198.901 44.1998 199.093 44.3922 199.093 44.6422V45.7964C199.882 45.1423 200.747 44.6422 201.69 44.296C202.652 43.9497 203.71 43.7766 204.825 43.7766C207.191 43.7766 209.115 44.5268 210.635 46.0464C212.154 47.5661 212.904 49.5089 212.904 51.8941V64.1666C212.904 64.4166 212.712 64.609 212.462 64.609H207.999C207.749 64.609 207.557 64.4166 207.557 64.1666V52.702C207.557 51.4132 207.172 50.3937 206.383 49.6051C205.614 48.8164 204.594 48.4317 203.325 48.4317C202.44 48.4317 201.613 48.624 200.882 48.9895C200.228 49.3165 199.651 49.7589 199.208 50.3552C199.151 50.4322 199.112 50.5284 199.112 50.6246V64.205C199.112 64.4551 198.92 64.6475 198.67 64.6475H194.188C193.919 64.6475 193.726 64.4551 193.726 64.205ZM219.041 58.8767V48.701H215.29C215.04 48.701 214.847 48.5086 214.847 48.2585V44.6422C214.847 44.3922 215.04 44.1998 215.29 44.1998H219.041V39.3331C219.041 39.1215 219.194 38.9484 219.387 38.8907L223.869 37.8712C224.157 37.8135 224.407 38.0251 224.407 38.3136V44.1998H229.774C230.024 44.1998 230.217 44.3922 230.217 44.6422V48.2585C230.217 48.5086 230.024 48.701 229.774 48.701H224.407V57.7803C224.407 58.7421 224.619 59.4346 225.042 59.8193C225.465 60.204 226.196 60.4156 227.235 60.4156C227.735 60.4156 228.197 60.3963 228.639 60.3386C228.658 60.3386 228.658 60.3386 228.678 60.3386C228.947 60.2809 229.236 60.2232 229.543 60.127C229.832 60.0501 230.12 60.2617 230.12 60.5502V63.9934C230.12 64.205 229.986 64.3782 229.793 64.4359C229.293 64.5705 228.697 64.6859 228.043 64.7629C227.235 64.8975 226.543 64.9552 225.965 64.9552C223.696 64.9552 221.964 64.4359 220.772 63.4164C219.598 62.3776 219.041 60.8772 219.041 58.8767ZM239.373 65.0129C237.18 65.0129 235.372 64.4359 233.987 63.2817C232.602 62.1083 231.909 60.5887 231.909 58.7228C231.909 56.78 232.66 55.2604 234.141 54.1639C235.641 53.0675 237.68 52.5097 240.315 52.5097C241.143 52.5097 241.989 52.5674 242.835 52.702C243.682 52.8367 244.49 53.029 245.317 53.2983V51.8364C245.317 50.663 244.951 49.7589 244.22 49.1626C243.489 48.5663 242.412 48.2585 241.008 48.2585C240.142 48.2585 239.2 48.3932 238.18 48.6817C237.18 48.951 236.045 49.355 234.756 49.9321L233.006 46.3734C232.89 46.1426 232.987 45.8733 233.217 45.7579C234.66 45.1231 236.064 44.6422 237.43 44.296C238.95 43.9305 240.45 43.7381 241.912 43.7381C244.663 43.7381 246.798 44.4114 248.317 45.7387C249.856 47.0467 250.645 48.9126 250.645 51.317V64.1473C250.645 64.3974 250.453 64.5897 250.203 64.5897H245.798C245.548 64.5897 245.355 64.3974 245.355 64.1473V63.1855C244.49 63.7818 243.566 64.2243 242.604 64.5128C241.604 64.8591 240.546 65.0129 239.373 65.0129ZM237.045 58.6074C237.045 59.3961 237.392 60.0309 238.065 60.4925C238.738 60.9349 239.642 61.1658 240.777 61.1658C241.662 61.1658 242.47 61.0696 243.22 60.858C243.97 60.6272 244.663 60.3002 245.297 59.877V56.8185C244.643 56.5492 243.951 56.3761 243.22 56.2606C242.508 56.126 241.758 56.0683 240.989 56.0683C239.758 56.0683 238.796 56.2991 238.084 56.78C237.392 57.2032 237.045 57.8187 237.045 58.6074ZM262.937 64.205V37.6019C262.937 37.3518 263.129 37.1595 263.379 37.1595H283.731C283.981 37.1595 284.173 37.3518 284.173 37.6019V40.8143C284.173 41.526 283.596 42.1031 282.884 42.1031H269.073C268.823 42.1031 268.631 42.2954 268.631 42.5455V48.1239C268.631 48.374 268.823 48.5663 269.073 48.5663H278.498C278.749 48.5663 278.941 48.7587 278.941 49.0087V52.8944C278.941 53.1444 278.749 53.3368 278.498 53.3368H269.073C268.823 53.3368 268.631 53.5292 268.631 53.7792V64.1473C268.631 64.3974 268.438 64.5897 268.188 64.5897H263.398C263.129 64.6475 262.937 64.4551 262.937 64.205ZM302.159 61.7428C302.37 61.9352 302.351 62.2622 302.12 62.4353C301.004 63.2817 299.85 63.9165 298.658 64.3397C297.35 64.8206 295.888 65.0514 294.253 65.0514C292.714 65.0514 291.252 64.7821 289.886 64.2243C288.559 63.6664 287.385 62.9355 286.385 61.9929C285.423 61.0504 284.635 59.9347 284.077 58.6459C283.519 57.3378 283.25 55.9336 283.25 54.4525C283.25 52.9906 283.519 51.6056 284.038 50.336C284.596 49.028 285.327 47.8931 286.27 46.9505C287.212 45.9887 288.328 45.2193 289.617 44.6807C290.925 44.1228 292.31 43.8535 293.772 43.8535C295.214 43.8535 296.542 44.1421 297.773 44.7192C299.023 45.277 300.1 46.0272 300.985 46.989C301.908 47.9508 302.601 49.1242 303.101 50.4899C303.62 51.8172 303.89 53.2791 303.89 54.8564C303.89 55.6451 303.255 56.2799 302.466 56.2799H288.636C289.001 57.5687 289.713 58.5882 290.752 59.3768C291.79 60.1655 293.022 60.5502 294.445 60.5502C295.33 60.5502 296.176 60.4156 296.965 60.127C297.619 59.8962 298.196 59.5692 298.677 59.1653C298.85 59.0306 299.1 59.0306 299.254 59.1845L302.159 61.7428ZM293.676 48.2778C292.444 48.2778 291.386 48.6625 290.502 49.4127C289.617 50.1437 289.001 51.1439 288.655 52.3942H298.677C298.331 51.1824 297.715 50.2014 296.792 49.4512C295.888 48.6625 294.849 48.2778 293.676 48.2778Z" fill="#73E262"/>
<path d="M326.724 10.6913C324.954 9.15243 322.473 8.383 319.299 8.383C317.568 8.383 315.798 8.59459 314.009 9.03701C312.393 9.40249 310.739 9.96033 309.046 10.6913C308.796 10.8067 308.681 11.1145 308.796 11.3645L310.893 15.6541C311.008 15.885 311.297 16.0004 311.528 15.885C312.836 15.3464 313.99 14.9424 315.009 14.6731C316.144 14.3846 317.145 14.2307 318.049 14.2307C319.491 14.2307 320.588 14.5192 321.3 15.0963C322.05 15.6541 322.434 16.5005 322.434 17.6547V18.7896C321.588 18.578 320.742 18.4241 319.876 18.3087C319.01 18.1933 318.126 18.1356 317.222 18.1356C314.24 18.1356 311.912 18.7511 310.22 19.963C308.565 21.1748 307.738 22.8676 307.738 25.0412C307.738 27.1187 308.527 28.8307 310.085 30.1579C311.643 31.4852 313.644 32.1585 316.087 32.1585C317.337 32.1585 318.453 32.0238 319.472 31.7737C320.184 31.5814 320.876 31.2928 321.53 30.9274C321.896 30.6965 322.434 30.2926 322.434 30.2926V31.2544C322.434 31.5237 322.665 31.7545 322.935 31.7545H328.898C329.167 31.7545 329.398 31.5237 329.398 31.2544V17.0199C329.379 14.3269 328.494 12.1917 326.724 10.6913ZM322.415 26.1569C321.8 26.5416 321.126 26.8109 320.376 26.984C319.645 27.1571 318.876 27.2533 318.029 27.2533C316.895 27.2533 316.01 27.0417 315.375 26.6378C314.74 26.2338 314.413 25.676 314.413 24.945C314.413 24.2141 314.74 23.6755 315.413 23.2907C316.087 22.8868 317.029 22.6752 318.241 22.6752C318.972 22.6752 319.664 22.7137 320.376 22.8099C321.069 22.906 321.761 23.0214 322.415 23.1946V26.1569Z" fill="#F8FBF8"/>
</svg>
