<svg width="21" height="24" viewBox="0 0 21 24" fill="none" xmlns="http://www.w3.org/2000/svg">
<path d="M10.5 23.1C4.66515 21.8033 0 16.2981 0 10.5V4.2L10.5 0L21 4.2V10.5C21 16.3002 16.3348 21.8033 10.5 23.1ZM2.1 5.25V10.5C2.16 12.9277 3.01388 15.2689 4.53094 17.1653C6.04799 19.0616 8.14465 20.4085 10.5 21C12.8553 20.4085 14.952 19.0616 16.4691 17.1653C17.9861 15.2689 18.84 12.9277 18.9 10.5V5.25L10.5 2.1L2.1 5.25Z" fill="#4B72D7"/>
<path d="M10.5 10.5C11.9497 10.5 13.125 9.32475 13.125 7.875C13.125 6.42525 11.9497 5.25 10.5 5.25C9.05025 5.25 7.875 6.42525 7.875 7.875C7.875 9.32475 9.05025 10.5 10.5 10.5Z" fill="#4B72D7"/>
<path d="M5.25 14.7C5.76753 15.6431 6.52637 16.4318 7.44885 16.9853C8.37132 17.5387 9.4243 17.8372 10.5 17.85C11.5757 17.8372 12.6287 17.5387 13.5512 16.9853C14.4736 16.4318 15.2325 15.6431 15.75 14.7C15.7237 12.7092 12.2409 11.55 10.5 11.55C8.74965 11.55 5.27625 12.7092 5.25 14.7Z" fill="#4B72D7"/>
</svg>
