<svg width="18" height="17" viewBox="0 0 18 17" fill="none" xmlns="http://www.w3.org/2000/svg">
<path d="M17.1 6.2629H4.5V3.67973C4.5 2.78765 5.1102 1.95911 5.9949 1.81416C6.25331 1.77044 6.51821 1.78328 6.77112 1.85177C7.02403 1.92027 7.25888 2.04278 7.45928 2.21076C7.65969 2.37873 7.82084 2.58814 7.9315 2.82438C8.04215 3.06063 8.09966 3.31802 8.1 3.57862H9.9C9.89956 3.07872 9.79388 2.58444 9.58973 2.12759C9.38559 1.67074 9.08752 1.26143 8.71469 0.926004C8.34186 0.590573 7.90253 0.336448 7.42496 0.179976C6.9474 0.0235043 6.44218 -0.0318479 5.9418 0.0174806C4.0707 0.198222 2.7 1.86874 2.7 3.73789V6.2629H0.9C0.661305 6.2629 0.432387 6.35716 0.263604 6.52496C0.0948211 6.69276 0 6.92035 0 7.15765V8.94717C0 11.2789 1.5066 13.2626 3.6 14.0026V17H5.4V14.3157H12.6V17H14.4V14.0026C16.4934 13.2626 18 11.2789 18 8.94717V7.15765C18 6.92035 17.9052 6.69276 17.7364 6.52496C17.5676 6.35716 17.3387 6.2629 17.1 6.2629V6.2629Z" fill="#5D86EF"/>
</svg>
