<svg width="32" height="32" viewBox="0 0 32 32" fill="none" xmlns="http://www.w3.org/2000/svg">
<path d="M24.1 13.2629H11.5V10.6797C11.5 9.78765 12.1102 8.95911 12.9949 8.81416C13.2533 8.77044 13.5182 8.78328 13.7711 8.85177C14.024 8.92027 14.2589 9.04278 14.4593 9.21076C14.6597 9.37873 14.8208 9.58814 14.9315 9.82438C15.0422 10.0606 15.0997 10.318 15.1 10.5786H16.9C16.8996 10.0787 16.7939 9.58444 16.5897 9.12759C16.3856 8.67074 16.0875 8.26143 15.7147 7.926C15.3419 7.59057 14.9025 7.33645 14.425 7.17998C13.9474 7.0235 13.4422 6.96815 12.9418 7.01748C11.0707 7.19822 9.7 8.86874 9.7 10.7379V13.2629H7.9C7.66131 13.2629 7.43239 13.3572 7.2636 13.525C7.09482 13.6928 7 13.9203 7 14.1577V15.9472C7 18.2789 8.5066 20.2626 10.6 21.0026V24H12.4V21.3157H19.6V24H21.4V21.0026C23.4934 20.2626 25 18.2789 25 15.9472V14.1577C25 13.9203 24.9052 13.6928 24.7364 13.525C24.5676 13.3572 24.3387 13.2629 24.1 13.2629V13.2629Z" fill="#F8FBF8"/>
</svg>
