<svg width="32" height="32" viewBox="0 0 32 32" fill="none" xmlns="http://www.w3.org/2000/svg">
<path d="M12.1317 16.4531H9.57511L9.41994 17.8105L9.26131 19.1987L9.1062 20.5561H11.453V22.623C11.453 22.9978 11.7568 23.3017 12.1317 23.3017C12.5065 23.3017 12.8104 22.9978 12.8104 22.623V17.1318C12.8104 16.757 12.5065 16.4531 12.1317 16.4531Z" fill="#F8FBF8"/>
<path d="M7.08779 19.199L7.24642 17.8107L7.40159 16.4533H5.65021C5.61233 15.4785 5.51873 14.4543 5.36905 13.3825C4.98029 10.5988 4.35349 8.56328 4.32702 8.47802C4.21584 8.12004 3.8354 7.92007 3.47755 8.03119C3.11957 8.14237 2.91955 8.52269 3.03073 8.88066C3.05534 8.96001 5.47307 16.8779 3.59169 22.4046C3.47089 22.7594 3.66061 23.1449 4.01544 23.2657C4.08794 23.2904 4.16167 23.3021 4.23422 23.3021C4.51674 23.3021 4.78057 23.1243 4.87663 22.842C5.11781 22.1335 5.30402 21.3708 5.43519 20.5564H6.93262L7.08779 19.199H5.59894C6.15863 19.2809 7.07996 19.6751 7.08779 19.199Z" fill="#F8FBF8"/>
<path d="M28.5224 8.0308C28.1644 7.91943 27.7841 8.11959 27.673 8.47762C27.6465 8.56289 27.0197 10.5984 26.6309 13.3821C26.4813 14.454 26.3877 15.4782 26.3498 16.4529H24.5984L24.7536 17.8103L24.9122 19.1985C24.92 19.6746 26.0129 19.7321 26.401 19.1985H24.9122L25.0673 20.5559H26.5648C26.696 21.3704 26.8822 22.133 27.1234 22.8415C27.2195 23.1239 27.4832 23.3017 27.7658 23.3017C27.8383 23.3017 27.9121 23.29 27.9845 23.2653C28.3394 23.1445 28.5291 22.7589 28.4083 22.4041C26.5309 16.8894 28.9412 8.97103 28.9693 8.88021C29.0805 8.52229 28.8804 8.14198 28.5224 8.0308Z" fill="#F8FBF8"/>
<path d="M22.7384 19.1987L22.5798 17.8105L22.4246 16.4531H19.8681C19.4933 16.4531 19.1895 16.757 19.1895 17.1318V22.623C19.1895 22.9978 19.4933 23.3017 19.8681 23.3017C20.243 23.3017 20.5468 22.9978 20.5468 22.623V20.5561H22.8935L22.7384 19.1987Z" fill="#F8FBF8"/>
<path d="M23.7671 12.7113H24.2985C24.8779 12.7113 25.3475 12.2417 25.3475 11.6624C25.3475 11.083 24.8779 10.6133 24.2985 10.6133H7.70159C7.12218 10.6133 6.65259 11.083 6.65259 11.6624C6.65259 12.2417 7.12218 12.7113 7.70159 12.7113H8.23294L7.10435 22.5862C7.06177 22.9587 7.32918 23.295 7.70159 23.3376C8.07413 23.3806 8.41039 23.1128 8.45296 22.7404L9.59914 12.7112H22.4009L23.5471 22.7404C23.5866 23.0866 23.8802 23.3421 24.2205 23.3421C24.2463 23.3421 24.2723 23.3406 24.2985 23.3376C24.6709 23.2951 24.9383 22.9587 24.8957 22.5862L23.7671 12.7113Z" fill="#F8FBF8"/>
</svg>
