<svg width="63" height="63" viewBox="0 0 63 63" fill="none" xmlns="http://www.w3.org/2000/svg">
<path d="M32.8696 26.9567L32.1307 18H30.7495H29.3683L28.6294 26.9567H32.8696Z" fill="#263969" stroke="#F8FBF8" stroke-miterlimit="10"/>
<path d="M49.1584 41.6371C49.1584 35.6997 46.6688 29.6699 41.8109 25.7126C40.6087 24.7372 39.2835 23.924 37.8695 23.2937L37.4654 20.6858C35.814 19.9127 34.0464 19.4173 32.2337 19.2195L32.8702 26.9595H28.63L29.2693 19.1949C26.0654 19.4836 24.0347 20.6858 24.0347 20.6858L23.57 23.2937C18.7107 25.5264 15.182 29.8445 13.5209 34.6115C12.7354 36.8705 12.3353 39.2454 12.3374 41.6371H49.1541" stroke="#F8FBF8" stroke-miterlimit="10"/>
<path d="M37.4653 20.6829L38.8725 29.7738" stroke="#F8FBF8" stroke-miterlimit="10"/>
<path d="M22.4108 29.7738L24.0344 20.6829" stroke="#F8FBF8" stroke-miterlimit="10"/>
<path d="M16.6383 33.1625C16.6383 33.1625 14.7737 36.4358 14.918 38.9354H26.4292" stroke="#F8FBF8" stroke-miterlimit="10"/>
<path d="M49.3647 41.6372H12.1613C12.1613 41.6372 10.4842 41.7007 10.5001 44.2798H50.9999C51.0158 41.7007 49.3647 41.6372 49.3647 41.6372Z" stroke="#F8FBF8" stroke-miterlimit="10"/>
</svg>
