<svg width="87" height="87" viewBox="0 0 87 87" fill="none" xmlns="http://www.w3.org/2000/svg">
<path d="M47.4544 37.596L46.2502 23H43.9994H41.7486L40.5444 37.596H47.4544Z" fill="#5D86EF" stroke="#263969" stroke-width="2" stroke-miterlimit="10"/>
<path d="M73.9987 61.5201C73.9987 51.8443 69.9417 42.018 62.0251 35.569C60.0659 33.9796 57.9064 32.6543 55.602 31.6272L54.9435 27.3773C52.2523 26.1174 49.3717 25.3101 46.4177 24.9877L47.4549 37.6011H40.545L41.5869 24.9478C36.3656 25.4181 33.0565 27.3773 33.0565 27.3773L32.2992 31.6272C24.3802 35.2656 18.6298 42.3026 15.9227 50.071C14.6427 53.7523 13.9907 57.6226 13.9942 61.5201H73.9917" fill="#F8FBF8"/>
<path d="M73.9987 61.5201C73.9987 51.8443 69.9417 42.018 62.0251 35.569C60.0659 33.9796 57.9064 32.6543 55.602 31.6272L54.9435 27.3773C52.2523 26.1174 49.3717 25.3101 46.4177 24.9877L47.4549 37.6011H40.545L41.5869 24.9478C36.3656 25.4181 33.0565 27.3773 33.0565 27.3773L32.2992 31.6272C24.3802 35.2656 18.6298 42.3026 15.9227 50.071C14.6427 53.7523 13.9907 57.6226 13.9942 61.5201H73.9917" stroke="#263969" stroke-width="2" stroke-miterlimit="10"/>
<path d="M54.9438 27.3726L57.237 42.1873" stroke="#263969" stroke-width="2" stroke-miterlimit="10"/>
<path d="M30.4102 42.1873L33.0561 27.3726" stroke="#263969" stroke-width="2" stroke-miterlimit="10"/>
<path d="M21.0035 47.709C21.0035 47.709 17.9648 53.0431 18.2 57.1167H36.9589" fill="#F8FBF8"/>
<path d="M21.0035 47.709C21.0035 47.709 17.9648 53.0431 18.2 57.1167H36.9589" stroke="#263969" stroke-width="2" stroke-miterlimit="10"/>
<path d="M74.3351 61.52H13.7072C13.7072 61.52 10.9743 61.6235 11.0002 65.8264H76.9998C77.0257 61.6235 74.3351 61.52 74.3351 61.52Z" fill="#5D86EF" stroke="#263969" stroke-width="2" stroke-miterlimit="10"/>
</svg>
