<svg width="48" height="89" viewBox="0 0 48 89" fill="none" xmlns="http://www.w3.org/2000/svg">
<path d="M5.70394 72.312L24.5782 18.0697L17.7617 15.6956L1.00391 70.6787V82.5883L5.70394 72.312Z" fill="#F8FBF8" stroke="#263969" stroke-width="2" stroke-miterlimit="10"/>
<path d="M45.9557 82.5883L46.2005 72.312L30.174 15.6956L23.3574 18.0697L45.9557 82.5883Z" fill="#F8FBF8" stroke="#263969" stroke-width="2" stroke-miterlimit="10"/>
<path d="M31.9995 18.6142C32.0001 20.2027 31.5297 21.7557 30.6476 23.0768C29.7655 24.398 28.5115 25.4278 27.0441 26.0361C25.5767 26.6445 23.9618 26.804 22.4037 26.4945C20.8456 26.185 19.4144 25.4203 18.2909 24.2973C17.1674 23.1743 16.4022 21.7433 16.0921 20.1854C15.7819 18.6274 15.9408 17.0125 16.5485 15.5448C17.1563 14.0772 18.1856 12.8227 19.5064 11.9401C20.8272 11.0575 22.38 10.5864 23.9685 10.5864C26.0979 10.5864 28.1401 11.4321 29.6461 12.9375C31.1522 14.4429 31.9986 16.4848 31.9995 18.6142V18.6142Z" fill="#5D86EF" stroke="#263969" stroke-width="2" stroke-miterlimit="10"/>
<path d="M46.2036 30.5173C40.0516 36.2043 31.9817 39.3629 23.6038 39.3629C15.2259 39.3629 7.15592 36.2043 1.00391 30.5173" stroke="#263969" stroke-width="2" stroke-miterlimit="10"/>
<path d="M23.9688 32.9463V43.1485" stroke="#263969" stroke-width="2" stroke-miterlimit="10"/>
<path d="M23.969 10.5864C24.8808 10.5852 25.7862 10.7399 26.6459 11.0438V3.77312C26.6584 3.41355 26.5984 3.05515 26.4694 2.71928C26.3404 2.38341 26.1451 2.07692 25.8951 1.81813C25.6452 1.55935 25.3456 1.35354 25.0144 1.21298C24.6832 1.07242 24.3271 1 23.9673 1C23.6076 1 23.2514 1.07242 22.9202 1.21298C22.589 1.35354 22.2895 1.55935 22.0396 1.81813C21.7896 2.07692 21.5943 2.38341 21.4653 2.71928C21.3363 3.05515 21.2762 3.41355 21.2887 3.77312V11.0535C22.149 10.7463 23.0555 10.5883 23.969 10.5864Z" fill="#5D86EF" stroke="#263969" stroke-width="2" stroke-miterlimit="10"/>
<path d="M12.0044 61.4815C12.0037 62.5696 11.6805 63.633 11.0755 64.5374C10.4705 65.4419 9.61099 66.1466 8.60555 66.5625C7.6001 66.9785 6.4939 67.087 5.4268 66.8743C4.35969 66.6617 3.37959 66.1374 2.61042 65.3678C1.84125 64.5981 1.31753 63.6178 1.10549 62.5505C0.893448 61.4833 1.0026 60.3771 1.41914 59.3719C1.83568 58.3667 2.5409 57.5076 3.44566 56.9031C4.35042 56.2987 5.4141 55.9761 6.50219 55.9761C7.22514 55.9757 7.94105 56.1178 8.60901 56.3944C9.27696 56.6709 9.88385 57.0765 10.3949 57.5878C10.906 58.0992 11.3112 58.7063 11.5873 59.3744C11.8635 60.0425 12.0052 60.7586 12.0044 61.4815V61.4815Z" fill="#5D86EF" stroke="#263969" stroke-width="2" stroke-miterlimit="10"/>
</svg>
