<svg width="40" height="40" viewBox="0 0 40 40" fill="none" xmlns="http://www.w3.org/2000/svg">
<path d="M31.9227 15.0955C31.9093 14.0861 31.7203 13.0868 31.3643 12.1422C31.0556 11.3454 30.584 10.6218 29.9798 10.0175C29.3756 9.41332 28.652 8.94178 27.8552 8.63305C26.9227 8.28302 25.9376 8.09375 24.9418 8.0733C23.6597 8.01599 23.2532 8 19.9987 8C16.7441 8 16.327 8 15.0542 8.0733C14.0589 8.0939 13.0742 8.28316 12.1422 8.63305C11.3453 8.94157 10.6215 9.41303 10.0173 10.0173C9.41303 10.6215 8.94157 11.3453 8.63305 12.1422C8.28232 13.0739 8.09346 14.0588 8.07463 15.0542C8.01733 16.3376 8 16.7441 8 19.9987C8 23.2532 8 23.669 8.07463 24.9431C8.09462 25.94 8.28254 26.9236 8.63305 27.8578C8.94208 28.6545 9.4139 29.3779 10.0184 29.9819C10.6228 30.5859 11.3466 31.0572 12.1435 31.3656C13.073 31.7297 14.0578 31.9325 15.0555 31.9653C16.339 32.0227 16.7454 32.04 20 32.04C23.2546 32.04 23.6717 32.04 24.9445 31.9653C25.9402 31.9457 26.9254 31.7569 27.8578 31.4069C28.6544 31.0978 29.3778 30.6262 29.982 30.022C30.5862 29.4178 31.0579 28.6944 31.3669 27.8978C31.7175 26.9649 31.9054 25.9813 31.9254 24.9831C31.9827 23.701 32 23.2945 32 20.0387C31.9973 16.7841 31.9973 16.3709 31.9227 15.0955V15.0955ZM19.9907 26.1533C16.5869 26.1533 13.8294 23.3958 13.8294 19.992C13.8294 16.5882 16.5869 13.8307 19.9907 13.8307C21.6247 13.8307 23.1919 14.4799 24.3473 15.6353C25.5028 16.7908 26.1519 18.3579 26.1519 19.992C26.1519 21.6261 25.5028 23.1932 24.3473 24.3487C23.1919 25.5041 21.6247 26.1533 19.9907 26.1533V26.1533ZM26.3972 15.0395C26.2084 15.0397 26.0215 15.0027 25.8472 14.9305C25.6728 14.8584 25.5143 14.7526 25.3809 14.6191C25.2474 14.4857 25.1416 14.3272 25.0695 14.1529C24.9973 13.9785 24.9603 13.7916 24.9605 13.6028C24.9605 13.4143 24.9976 13.2275 25.0698 13.0533C25.1419 12.8791 25.2477 12.7208 25.3811 12.5874C25.5144 12.4541 25.6727 12.3483 25.8469 12.2761C26.0212 12.204 26.2079 12.1668 26.3965 12.1668C26.5851 12.1668 26.7718 12.204 26.946 12.2761C27.1203 12.3483 27.2786 12.4541 27.4119 12.5874C27.5453 12.7208 27.651 12.8791 27.7232 13.0533C27.7954 13.2275 27.8325 13.4143 27.8325 13.6028C27.8325 14.3972 27.1901 15.0395 26.3972 15.0395Z" fill="#263969"/>
<path d="M19.9907 23.9943C22.2011 23.9943 23.993 22.2024 23.993 19.992C23.993 17.7817 22.2011 15.9898 19.9907 15.9898C17.7804 15.9898 15.9885 17.7817 15.9885 19.992C15.9885 22.2024 17.7804 23.9943 19.9907 23.9943Z" fill="#263969"/>
</svg>
