<svg width="32" height="32" viewBox="0 0 32 32" fill="none" xmlns="http://www.w3.org/2000/svg">
<path d="M9 11.8906V9.875C9 8.84375 9.9 8 11 8H21C22.1 8 23 8.84375 23 9.875V11.9C21.84 12.2844 21 13.3156 21 14.5344V16.4375H11V14.525C11 13.3156 10.16 12.275 9 11.8906ZM24 12.6875C22.9 12.6875 22 13.5312 22 14.5625V17.375H10V14.5625C10 14.0652 9.78929 13.5883 9.41421 13.2367C9.03914 12.885 8.53043 12.6875 8 12.6875C7.46957 12.6875 6.96086 12.885 6.58579 13.2367C6.21071 13.5883 6 14.0652 6 14.5625V19.25C6 20.2813 6.9 21.125 8 21.125V23H10V21.125H22V23H24V21.125C25.1 21.125 26 20.2813 26 19.25V14.5625C26 13.5312 25.1 12.6875 24 12.6875Z" fill="#F8FBF8"/>
</svg>
