<svg width="20" height="15" viewBox="0 0 20 15" fill="none" xmlns="http://www.w3.org/2000/svg">
<path d="M3 3.89062V1.875C3 0.84375 3.9 0 5 0H15C16.1 0 17 0.84375 17 1.875V3.9C15.84 4.28437 15 5.31563 15 6.53438V8.4375H5V6.525C5 5.31563 4.16 4.275 3 3.89062ZM18 4.6875C16.9 4.6875 16 5.53125 16 6.5625V9.375H4V6.5625C4 6.06522 3.78929 5.58831 3.41421 5.23668C3.03914 4.88504 2.53043 4.6875 2 4.6875C1.46957 4.6875 0.960859 4.88504 0.585786 5.23668C0.210714 5.58831 0 6.06522 0 6.5625V11.25C0 12.2813 0.9 13.125 2 13.125V15H4V13.125H16V15H18V13.125C19.1 13.125 20 12.2813 20 11.25V6.5625C20 5.53125 19.1 4.6875 18 4.6875Z" fill="#5D86EF"/>
</svg>
