<svg width="72" height="72" viewBox="0 0 72 72" fill="none" xmlns="http://www.w3.org/2000/svg">
<path d="M33.3567 58.7013C34.4566 66.1749 17.1198 66.4004 15.6543 55.102C8.50509 57.101 3.58864 50.2103 7.03948 44.1252C2.91496 41.3013 2.97822 33.0633 7.28971 30.5941C3.9901 27.0827 7.99364 17.2526 15.9595 19.0042C13.7845 11.1098 25.3084 4.67557 33.4034 10.9668L33.3567 58.7013Z" fill="#F8FBF8" stroke="#263969" stroke-width="1.6" stroke-miterlimit="10"/>
<path d="M15.7183 17.2524C16.3094 20.7555 19.3946 23.4667 22.9142 24.0992Z" fill="#F8FBF8"/>
<path d="M15.7183 17.2524C16.3094 20.7555 19.3946 23.4667 22.9142 24.0992" stroke="#263969" stroke-width="1.6" stroke-miterlimit="10"/>
<path d="M22.9133 14.6187C22.0883 19.843 30.8873 22.0428 33.2713 18.6552Z" fill="#F8FBF8"/>
<path d="M22.9133 14.6187C22.0883 19.843 30.8873 22.0428 33.2713 18.6552" stroke="#263969" stroke-width="1.6" stroke-miterlimit="10"/>
<path d="M18.5239 22.3452C18.5239 24.182 16.0492 26.5357 14.6743 27.0829Z" fill="#F8FBF8"/>
<path d="M18.5239 22.3452C18.5239 24.182 16.0492 26.5357 14.6743 27.0829" stroke="#263969" stroke-width="1.6" stroke-miterlimit="10"/>
<path d="M13.0825 33.0496C15.2465 34.1495 15.2823 37.2951 17.6388 37.9991C20.0942 38.7305 21.4306 36.0193 22.4177 34.1358C23.9218 31.2624 26.1545 30.0992 29.4047 30.6107C30.466 30.7757 32.3055 31.5208 32.9187 31.8315" fill="#F8FBF8"/>
<path d="M13.0825 33.0496C15.2465 34.1495 15.2823 37.2951 17.6388 37.9991C20.0942 38.7305 21.4306 36.0193 22.4177 34.1358C23.9218 31.2624 26.1545 30.0992 29.4047 30.6107C30.466 30.7757 32.3055 31.5208 32.9187 31.8315" stroke="#263969" stroke-width="1.6" stroke-miterlimit="10"/>
<path d="M10.625 32.8738C12.3078 34.9581 15.0052 31.8784 13.2592 30.0664Z" fill="#F8FBF8"/>
<path d="M10.625 32.8738C12.3078 34.9581 15.0052 31.8784 13.2592 30.0664" stroke="#263969" stroke-width="1.6" stroke-miterlimit="10"/>
<path d="M33.4454 43.7597C31.1412 41.461 27.5501 44.054 26.7775 46.5424C25.8673 49.4763 28.639 51.863 27.6628 54.7172C27.0717 56.4495 25.7106 57.2139 23.9673 56.917" fill="#F8FBF8"/>
<path d="M33.4454 43.7597C31.1412 41.461 27.5501 44.054 26.7775 46.5424C25.8673 49.4763 28.639 51.863 27.6628 54.7172C27.0717 56.4495 25.7106 57.2139 23.9673 56.917" stroke="#263969" stroke-width="1.6" stroke-miterlimit="10"/>
<path d="M15.7166 56.5704C13.011 49.4899 26.4239 51.4834 20.6303 40.7734Z" fill="#F8FBF8"/>
<path d="M15.7166 56.5704C13.011 49.4899 26.4239 51.4834 20.6303 40.7734" stroke="#263969" stroke-width="1.6" stroke-miterlimit="10"/>
<path d="M6.93701 44.4608C7.8994 42.888 10.1954 42.7725 11.8672 42.8742C13.3795 42.9677 15.0788 44.1088 15.7168 44.2848" fill="#F8FBF8"/>
<path d="M6.93701 44.4608C7.8994 42.888 10.1954 42.7725 11.8672 42.8742C13.3795 42.9677 15.0788 44.1088 15.7168 44.2848" stroke="#263969" stroke-width="1.6" stroke-miterlimit="10"/>
<path d="M68.2861 40.7789L68.5391 33.0551L63.8647 32.9011C63.585 31.3176 63.1436 29.7669 62.5476 28.2734L66.8426 25.9197L63.125 19.1445L58.5605 21.6467C57.5752 20.4908 56.4823 19.4311 55.2966 18.4818L58.0243 13.8706L51.3728 9.93303L48.5599 14.6872C47.1771 14.1903 45.7513 13.8221 44.3007 13.5874V8H40.4731V64H44.2924V60.5381C45.7295 60.3032 47.1416 59.935 48.5105 59.4383L50.1603 62.5317L56.9822 58.9076L55.2581 55.6602C56.533 54.6419 57.7013 53.4967 58.7448 52.2424L61.9674 54.2991L66.1221 47.7796L62.6493 45.5799C63.2657 43.9831 63.7046 42.3233 63.9581 40.6305L68.2861 40.7789Z" fill="#F8FBF8" stroke="#263969" stroke-width="1.6" stroke-miterlimit="10"/>
<path d="M40.4731 19.106V24.4321C43.5099 24.4789 46.4064 25.7181 48.5373 27.8822C50.6683 30.0462 51.8627 32.9615 51.8627 35.9986C51.8627 39.0357 50.6683 41.951 48.5373 44.1151C46.4064 46.2791 43.5099 47.5183 40.4731 47.5651V52.8913C44.916 52.8346 49.1577 51.0299 52.2795 47.8681C55.4012 44.7062 57.1516 40.4419 57.1516 35.9986C57.1516 31.5554 55.4012 27.291 52.2795 24.1292C49.1577 20.9673 44.916 19.1626 40.4731 19.106V19.106Z" fill="#5D86EF" stroke="#263969" stroke-width="1.6" stroke-miterlimit="10"/>
</svg>
