<svg width="17" height="17" viewBox="0 0 17 17" fill="none" xmlns="http://www.w3.org/2000/svg">
<path d="M16.8484 16.1192L14.3521 13.6263V4.03592L13.1732 1.85721C13.0862 1.69111 12.9558 1.55203 12.7959 1.45501C12.636 1.35799 12.4527 1.30671 12.2659 1.30671C12.0792 1.30671 11.8959 1.35799 11.736 1.45501C11.5761 1.55203 11.4457 1.69111 11.3587 1.85721L10.2515 4.04107V9.52646L0.876513 0.152363C0.804819 0.0797245 0.713221 0.0301856 0.613398 0.0100624C0.513575 -0.0100609 0.41005 0.000143246 0.316021 0.0393737C0.221992 0.0786042 0.14172 0.145084 0.0854385 0.230336C0.0291571 0.315589 -0.000583403 0.415752 8.67122e-06 0.518056V4.67974H1.1123V5.50384H8.67122e-06V8.80023H1.1123V9.62433H8.67122e-06V13.0495H1.1123V13.8736H8.67122e-06V16.4849C8.67122e-06 16.6215 0.054012 16.7525 0.150139 16.8491C0.246265 16.9457 0.376641 17 0.512584 17H16.4844C16.5863 17.0006 16.6859 16.9707 16.7708 16.9141C16.8556 16.8576 16.9218 16.7769 16.9608 16.6824C16.9999 16.588 17.01 16.4839 16.99 16.3836C16.97 16.2833 16.9207 16.1913 16.8484 16.1192V16.1192ZM4.10061 12.9207V8.25426L8.74968 12.9207H4.10061ZM13.327 14.0075H11.2767V12.7559H13.327V14.0075ZM13.327 11.9472H11.2767V4.29345L12.2711 2.35167L13.327 4.2986V11.9472Z" fill="#5D86EF"/>
</svg>
