<svg width="32" height="32" viewBox="0 0 32 32" fill="none" xmlns="http://www.w3.org/2000/svg">
<path d="M23.8484 23.1192L21.3521 20.6263V11.0359L20.1732 8.85721C20.0862 8.69111 19.9558 8.55203 19.7959 8.45501C19.636 8.35799 19.4527 8.30671 19.2659 8.30671C19.0792 8.30671 18.8959 8.35799 18.736 8.45501C18.5761 8.55203 18.4457 8.69111 18.3587 8.85721L17.2515 11.0411V16.5265L7.87651 7.15236C7.80482 7.07972 7.71322 7.03019 7.6134 7.01006C7.51358 6.98994 7.41005 7.00014 7.31602 7.03937C7.22199 7.0786 7.14172 7.14508 7.08544 7.23034C7.02916 7.31559 6.99942 7.41575 7.00001 7.51806V11.6797H8.1123V12.5038H7.00001V15.8002H8.1123V16.6243H7.00001V20.0495H8.1123V20.8736H7.00001V23.4849C7.00001 23.6215 7.05401 23.7525 7.15014 23.8491C7.24627 23.9457 7.37664 24 7.51258 24H23.4844C23.5863 24.0006 23.6859 23.9707 23.7708 23.9141C23.8556 23.8576 23.9218 23.7769 23.9608 23.6824C23.9999 23.588 24.01 23.4839 23.99 23.3836C23.97 23.2833 23.9207 23.1913 23.8484 23.1192V23.1192ZM11.1006 19.9207V15.2543L15.7497 19.9207H11.1006ZM20.327 21.0075H18.2767V19.7559H20.327V21.0075ZM20.327 18.9472H18.2767V11.2934L19.2711 9.35167L20.327 11.2986V18.9472Z" fill="#F8FBF8"/>
</svg>
