<svg width="87" height="87" viewBox="0 0 87 87" fill="none" xmlns="http://www.w3.org/2000/svg">
<path d="M70 17.2349H18V79.3543H70V17.2349Z" fill="#5D86EF" stroke="#263969" stroke-width="1.6" stroke-miterlimit="10"/>
<path d="M65.8717 17.2349H22.1323V75.1916H65.8717V17.2349Z" fill="#F8FBF8" stroke="#263969" stroke-width="1.6" stroke-miterlimit="10"/>
<path d="M27.2891 40.4761H60.7146" stroke="#263969" stroke-width="1.6" stroke-miterlimit="10"/>
<path d="M27.2891 51.6182H35.1103" stroke="#263969" stroke-width="1.6" stroke-miterlimit="10"/>
<path d="M38.1904 51.6182H60.7135" stroke="#263969" stroke-width="1.6" stroke-miterlimit="10"/>
<path d="M27.2891 45.6924H40.0898" stroke="#263969" stroke-width="1.6" stroke-miterlimit="10"/>
<path d="M43.6445 45.6924H60.715" stroke="#263969" stroke-width="1.6" stroke-miterlimit="10"/>
<path d="M27.2891 57.2817H60.7146" stroke="#263969" stroke-width="1.6" stroke-miterlimit="10"/>
<path d="M27.2891 68.4238H35.1103" stroke="#263969" stroke-width="1.6" stroke-miterlimit="10"/>
<path d="M38.1904 68.4238H60.7135" stroke="#263969" stroke-width="1.6" stroke-miterlimit="10"/>
<path d="M27.2891 62.498H40.0898" stroke="#263969" stroke-width="1.6" stroke-miterlimit="10"/>
<path d="M43.6445 62.498H60.715" stroke="#263969" stroke-width="1.6" stroke-miterlimit="10"/>
<path d="M50.153 14.399C50.153 14.3229 50.153 14.2441 50.153 14.1652C50.153 12.5301 49.5035 10.9619 48.3473 9.80575C47.1911 8.64955 45.623 8 43.9879 8C42.3527 8 40.7846 8.64955 39.6284 9.80575C38.4722 10.9619 37.8227 12.5301 37.8227 14.1652C37.8227 14.2441 37.8227 14.3229 37.8367 14.399H33.5698V21.0373H54.4312V14.399H50.153Z" fill="#5D86EF" stroke="#263969" stroke-width="1.6" stroke-miterlimit="10"/>
<path d="M50.1193 30.7936C50.1193 30.6077 50.1193 30.4274 50.0939 30.2472L51.3191 29.9233L50.7558 27.825L49.5194 28.1433C49.258 27.5969 48.9162 27.0928 48.5054 26.6478L49.3081 25.6113L47.5901 24.2848L46.779 25.3381C46.2473 25.0661 45.6776 24.8762 45.0891 24.7748V23.437H42.9176V24.7636C42.3576 24.8625 41.8144 25.0398 41.3038 25.2902L40.5039 24.2256L38.7662 25.5409L39.5548 26.5914C39.2527 26.9087 38.9864 27.2582 38.7606 27.6335L37.541 27.1857L36.7947 29.2192L37.9917 29.6585C37.9186 30.0296 37.8818 30.4069 37.8818 30.7851C37.8818 30.9203 37.8818 31.0527 37.8818 31.185L36.6792 31.523L37.2425 33.6213L38.4282 33.3115C38.6854 33.88 39.0262 34.4069 39.4393 34.8746L38.7014 35.8294L40.4194 37.1559L41.1489 36.2152C41.7058 36.5104 42.3054 36.7167 42.9261 36.8264V38.0008H45.0976V36.8179C45.6853 36.7137 46.2547 36.524 46.7874 36.2546L47.5028 37.2066L49.2377 35.9054L48.5139 34.9365C48.8222 34.603 49.0915 34.2354 49.3166 33.841L50.4657 34.2606L51.2149 32.2243L50.032 31.7849C50.0883 31.4574 50.1175 31.1259 50.1193 30.7936ZM43.9991 33.5509C43.4388 33.5509 42.891 33.3847 42.425 33.0734C41.9591 32.762 41.5959 32.3195 41.3815 31.8018C41.167 31.2841 41.1109 30.7144 41.2202 30.1648C41.3296 29.6151 41.5994 29.1103 41.9957 28.714C42.3919 28.3178 42.8968 28.0479 43.4464 27.9386C43.996 27.8293 44.5657 27.8854 45.0834 28.0998C45.6011 28.3143 46.0436 28.6775 46.355 29.1434C46.6663 29.6093 46.8325 30.1571 46.8325 30.7175C46.8329 31.0897 46.7598 31.4583 46.6176 31.8022C46.4753 32.1462 46.2666 32.4586 46.0034 32.7218C45.7403 32.985 45.4278 33.1937 45.0839 33.3359C44.7399 33.4782 44.3713 33.5512 43.9991 33.5509V33.5509Z" stroke="#263969" stroke-width="1.6" stroke-miterlimit="10"/>
</svg>
