<svg width="40" height="40" viewBox="0 0 40 40" fill="none" xmlns="http://www.w3.org/2000/svg">
<path d="M29.3547 14.0874C26.0638 8.99983 19.3448 7.48732 14.1341 10.6498C9.06063 13.8124 7.41516 20.6874 10.7061 25.775L10.9803 26.1875L9.88336 30.3125L13.997 29.2125L14.4084 29.4875C16.191 30.45 18.1107 31 20.0304 31C22.0872 31 24.1441 30.45 25.9266 29.35C31.0002 26.05 32.5085 19.3124 29.3547 14.0874V14.0874ZM26.4751 24.675C25.9266 25.5 25.241 26.05 24.2812 26.1875C23.7327 26.1875 23.0471 26.4625 20.3046 25.3625C17.9736 24.2624 16.0539 22.4749 14.6826 20.4124C13.8599 19.4499 13.4485 18.2124 13.3114 16.9749C13.3114 15.8749 13.7228 14.9124 14.4084 14.2249C14.6826 13.9499 14.9569 13.8124 15.2311 13.8124H15.9167C16.191 13.8124 16.4652 13.8124 16.6023 14.3624C16.8766 15.0499 17.5622 16.6999 17.5622 16.8374C17.6993 16.9749 17.6993 17.2499 17.5622 17.3874C17.6993 17.6624 17.5622 17.9374 17.4251 18.0749C17.288 18.2124 17.1508 18.4874 17.0137 18.6249C16.7395 18.7624 16.6023 19.0374 16.7395 19.3124C17.288 20.1374 17.9736 20.9624 18.6592 21.6499C19.4819 22.3374 20.3046 22.8874 21.2645 23.2999C21.5387 23.4374 21.813 23.4374 21.9501 23.1624C22.0872 22.8874 22.7728 22.1999 23.0471 21.9249C23.3213 21.6499 23.4585 21.6499 23.7327 21.7874L25.9266 22.8874C26.2009 23.0249 26.4751 23.1624 26.6123 23.2999C26.7494 23.7124 26.7494 24.2624 26.4751 24.675V24.675Z" fill="#263969"/>
</svg>
